<svg xmlns="http://www.w3.org/2000/svg" xmlns:xlink="http://www.w3.org/1999/xlink" width="50" zoomAndPan="magnify" viewBox="0 0 37.5 37.499999" height="50" preserveAspectRatio="xMidYMid meet" version="1.0"><defs><clipPath id="615591f9c2"><path d="M 17 5.335938 L 31 5.335938 L 31 13 L 17 13 Z M 17 5.335938 " clip-rule="nonzero"/></clipPath><clipPath id="f481e1132a"><path d="M 18 24 L 32.960938 24 L 32.960938 31.980469 L 18 31.980469 Z M 18 24 " clip-rule="nonzero"/></clipPath><clipPath id="ef7482091c"><path d="M 4.09375 9 L 17 9 L 17 31.980469 L 4.09375 31.980469 Z M 4.09375 9 " clip-rule="nonzero"/></clipPath><clipPath id="4df2a96731"><path d="M 15 31 L 20 31 L 20 31.980469 L 15 31.980469 Z M 15 31 " clip-rule="nonzero"/></clipPath><clipPath id="62c8a84a0d"><path d="M 26 31 L 30 31 L 30 31.980469 L 26 31.980469 Z M 26 31 " clip-rule="nonzero"/></clipPath></defs><path fill="#000000" d="M 18.058594 10.371094 L 17.886719 10.355469 L 17.886719 11.148438 C 17.945312 11.113281 18 11.082031 18.058594 11.050781 Z M 18.058594 10.371094 " fill-opacity="1" fill-rule="nonzero"/><path fill="#000000" d="M 18.058594 8.675781 C 18.003906 8.660156 17.945312 8.644531 17.886719 8.628906 L 17.886719 9.742188 L 18.058594 9.730469 Z M 18.058594 8.675781 " fill-opacity="1" fill-rule="nonzero"/><g clip-path="url(#615591f9c2)"><path fill="#000000" d="M 27.882812 12.671875 L 27.882812 12.125 L 29.078125 12.125 C 29.574219 12.125 29.976562 11.71875 29.976562 11.21875 L 29.976562 9.214844 L 30.480469 9.214844 L 30.480469 7.722656 L 29.304688 7.722656 L 29.304688 9.214844 L 29.808594 9.214844 L 29.808594 11.21875 C 29.808594 11.625 29.480469 11.957031 29.078125 11.957031 L 27.882812 11.957031 L 27.882812 11.367188 L 27.9375 11.367188 C 28.449219 11.367188 28.867188 10.945312 28.867188 10.429688 L 28.867188 5.347656 L 28.414062 5.347656 L 28.414062 10.429688 C 28.414062 10.695312 28.203125 10.910156 27.9375 10.910156 L 27.882812 10.910156 L 27.882812 6.480469 C 27.882812 6.316406 27.75 6.179688 27.585938 6.179688 L 18.183594 6.179688 C 18.019531 6.179688 17.886719 6.316406 17.886719 6.480469 L 17.886719 7.761719 C 17.945312 7.773438 18 7.789062 18.058594 7.804688 L 18.058594 6.480469 C 18.058594 6.410156 18.113281 6.351562 18.183594 6.351562 L 25.152344 6.351562 L 25.152344 6.636719 L 18.339844 6.636719 L 18.339844 7.898438 C 18.398438 7.921875 18.453125 7.941406 18.507812 7.964844 L 18.507812 6.808594 L 25.152344 6.808594 L 25.152344 12.34375 L 19.597656 12.34375 C 19.566406 12.398438 19.535156 12.453125 19.503906 12.515625 L 25.152344 12.515625 L 25.152344 12.796875 L 19.355469 12.796875 C 19.332031 12.855469 19.304688 12.910156 19.277344 12.96875 L 27.585938 12.96875 C 27.75 12.96875 27.882812 12.835938 27.882812 12.671875 Z M 25.425781 6.351562 L 27.585938 6.351562 C 27.65625 6.351562 27.714844 6.410156 27.714844 6.480469 L 27.714844 10.910156 L 27.429688 10.910156 L 27.429688 9.355469 L 25.714844 9.355469 L 25.714844 11.480469 L 27.429688 11.480469 L 27.429688 11.367188 L 27.714844 11.367188 L 27.714844 11.957031 L 27.429688 11.957031 L 27.429688 11.753906 L 25.714844 11.753906 L 25.714844 12.507812 L 27.429688 12.507812 L 27.429688 12.125 L 27.714844 12.125 L 27.714844 12.671875 C 27.714844 12.742188 27.65625 12.796875 27.585938 12.796875 L 25.425781 12.796875 Z M 27.316406 9.46875 L 27.316406 11.367188 L 25.828125 11.367188 L 25.828125 9.46875 Z M 27.316406 12.390625 L 25.828125 12.390625 L 25.828125 11.867188 L 27.316406 11.867188 Z M 27.316406 12.390625 " fill-opacity="1" fill-rule="nonzero"/></g><path fill="#000000" d="M 18.183594 12.796875 C 18.113281 12.796875 18.058594 12.742188 18.058594 12.671875 L 18.058594 11.980469 C 18 12.023438 17.945312 12.0625 17.886719 12.105469 L 17.886719 12.671875 C 17.886719 12.835938 18.019531 12.96875 18.183594 12.96875 L 18.304688 12.96875 C 18.335938 12.910156 18.363281 12.855469 18.394531 12.796875 Z M 18.183594 12.796875 " fill-opacity="1" fill-rule="nonzero"/><path fill="#000000" d="M 18.507812 11.664062 C 18.453125 11.699219 18.394531 11.738281 18.339844 11.78125 L 18.339844 12.515625 L 18.554688 12.515625 C 18.589844 12.453125 18.625 12.398438 18.660156 12.34375 L 18.507812 12.34375 Z M 18.507812 11.664062 " fill-opacity="1" fill-rule="nonzero"/><path fill="#000000" d="M 18.339844 8.765625 L 18.339844 9.703125 L 18.507812 9.691406 L 18.507812 8.828125 C 18.453125 8.808594 18.398438 8.785156 18.339844 8.765625 Z M 18.339844 8.765625 " fill-opacity="1" fill-rule="nonzero"/><path fill="#000000" d="M 18.507812 10.804688 L 18.507812 10.410156 L 18.339844 10.394531 L 18.339844 10.894531 C 18.398438 10.863281 18.453125 10.832031 18.507812 10.804688 Z M 18.507812 10.804688 " fill-opacity="1" fill-rule="nonzero"/><path fill="#000000" d="M 20.894531 9.457031 C 20.949219 9.132812 21.230469 8.882812 21.570312 8.882812 C 21.617188 8.882812 21.660156 8.886719 21.703125 8.894531 C 21.929688 8.589844 22.40625 8.46875 22.242188 8.121094 C 22.019531 7.644531 21.222656 7.675781 20.730469 7.851562 C 20.25 8.027344 19.910156 8.53125 20.246094 9.027344 C 20.433594 9.300781 20.695312 9.410156 20.894531 9.457031 Z M 20.894531 9.457031 " fill-opacity="1" fill-rule="nonzero"/><path fill="#000000" d="M 20.910156 9.761719 C 20.570312 9.648438 20.292969 9.324219 20.058594 9.597656 C 19.71875 9.996094 20.070312 10.722656 20.433594 11.101562 C 20.789062 11.472656 21.382812 11.582031 21.691406 11.070312 C 21.882812 10.753906 21.851562 10.429688 21.800781 10.226562 C 21.730469 10.253906 21.652344 10.265625 21.570312 10.265625 C 21.257812 10.265625 20.992188 10.050781 20.910156 9.761719 Z M 20.910156 9.761719 " fill-opacity="1" fill-rule="nonzero"/><path fill="#000000" d="M 22.253906 9.574219 C 22.253906 9.746094 22.195312 9.898438 22.09375 10.019531 C 22.347656 10.347656 22.222656 10.914062 22.632812 10.902344 C 23.15625 10.882812 23.445312 10.128906 23.476562 9.605469 C 23.507812 9.089844 23.183594 8.574219 22.601562 8.691406 C 22.328125 8.746094 22.136719 8.898438 22.011719 9.046875 C 22.160156 9.171875 22.253906 9.363281 22.253906 9.574219 Z M 22.253906 9.574219 " fill-opacity="1" fill-rule="nonzero"/><path fill="#000000" d="M 21.015625 9.574219 C 21.015625 9.886719 21.261719 10.136719 21.570312 10.136719 C 21.875 10.136719 22.125 9.886719 22.125 9.574219 C 22.125 9.265625 21.875 9.015625 21.570312 9.015625 C 21.261719 9.015625 21.015625 9.265625 21.015625 9.574219 Z M 21.015625 9.574219 " fill-opacity="1" fill-rule="nonzero"/><path fill="#000000" d="M 19.402344 13.410156 L 19.402344 14.675781 L 19.648438 14.675781 L 19.648438 13.410156 L 20.195312 13.410156 L 20.195312 13.160156 L 19.195312 13.160156 C 19.160156 13.238281 19.128906 13.324219 19.09375 13.410156 Z M 19.402344 13.410156 " fill-opacity="1" fill-rule="nonzero"/><path fill="#000000" d="M 26.367188 14.675781 L 26.367188 13.410156 L 26.914062 13.410156 L 26.914062 13.160156 L 25.574219 13.160156 L 25.574219 13.410156 L 26.121094 13.410156 L 26.121094 14.675781 Z M 26.367188 14.675781 " fill-opacity="1" fill-rule="nonzero"/><path fill="#000000" d="M 25.652344 6.609375 L 27.476562 6.609375 L 27.476562 9.109375 L 25.652344 9.109375 Z M 25.652344 6.609375 " fill-opacity="1" fill-rule="nonzero"/><path fill="#000000" d="M 26.015625 9.65625 L 26.203125 9.65625 L 26.203125 11.167969 L 26.015625 11.167969 Z M 26.015625 9.65625 " fill-opacity="1" fill-rule="nonzero"/><path fill="#000000" d="M 26.421875 9.65625 L 27.128906 9.65625 L 27.128906 9.816406 L 26.421875 9.816406 Z M 26.421875 9.65625 " fill-opacity="1" fill-rule="nonzero"/><path fill="#000000" d="M 26.519531 11 L 26.621094 11 L 26.621094 10.121094 L 27.128906 10.121094 L 27.128906 9.960938 L 26.421875 9.960938 L 26.421875 10.121094 L 26.519531 10.121094 Z M 26.519531 11 " fill-opacity="1" fill-rule="nonzero"/><path fill="#000000" d="M 27.078125 10.519531 C 27.078125 10.613281 27.03125 10.660156 26.9375 10.660156 C 26.84375 10.660156 26.796875 10.613281 26.796875 10.519531 C 26.796875 10.425781 26.84375 10.378906 26.9375 10.378906 C 27.03125 10.378906 27.078125 10.425781 27.078125 10.519531 Z M 27.078125 10.519531 " fill-opacity="1" fill-rule="nonzero"/><path fill="#000000" d="M 26.109375 12.261719 C 26.183594 12.261719 26.246094 12.199219 26.246094 12.121094 C 26.246094 12.042969 26.183594 11.980469 26.109375 11.980469 C 26.03125 11.980469 25.96875 12.042969 25.96875 12.121094 C 25.96875 12.199219 26.03125 12.261719 26.109375 12.261719 Z M 26.109375 12.261719 " fill-opacity="1" fill-rule="nonzero"/><path fill="#000000" d="M 26.34375 12.085938 L 27.210938 12.085938 L 27.210938 12.171875 L 26.34375 12.171875 Z M 26.34375 12.085938 " fill-opacity="1" fill-rule="nonzero"/><g clip-path="url(#f481e1132a)"><path fill="#000000" d="M 32.664062 24.421875 L 23.261719 24.421875 C 23.097656 24.421875 22.964844 24.558594 22.964844 24.722656 L 22.964844 30.914062 C 22.964844 30.929688 22.96875 30.941406 22.96875 30.957031 C 22.3125 30.960938 21.589844 30.949219 20.992188 30.941406 C 19.125 30.914062 18.359375 30.910156 18.273438 31.007812 C 18.261719 31.019531 18.257812 31.035156 18.261719 31.050781 C 18.277344 31.1875 18.765625 31.226562 20.226562 31.28125 C 20.824219 31.304688 21.5625 31.332031 21.703125 31.386719 C 21.625 31.433594 21.273438 31.449219 21.035156 31.460938 C 20.464844 31.492188 20.117188 31.519531 20.117188 31.675781 C 20.117188 31.734375 20.117188 31.8125 21.78125 31.871094 C 22.496094 31.894531 23.347656 31.910156 24.132812 31.910156 C 24.367188 31.910156 24.597656 31.90625 24.8125 31.90625 C 26.484375 31.886719 26.488281 31.8125 26.492188 31.757812 C 26.496094 31.710938 26.5 31.664062 25.761719 31.585938 C 25.480469 31.558594 25.328125 31.535156 25.242188 31.519531 C 25.613281 31.472656 26.898438 31.457031 28.148438 31.445312 C 30.945312 31.414062 32.125 31.378906 32.203125 31.25 C 32.210938 31.238281 32.214844 31.226562 32.210938 31.210938 L 32.664062 31.210938 C 32.828125 31.210938 32.960938 31.078125 32.960938 30.914062 L 32.960938 24.722656 C 32.960938 24.558594 32.828125 24.421875 32.664062 24.421875 Z M 26.648438 30.578125 C 25.140625 30.578125 23.914062 29.339844 23.914062 27.816406 C 23.914062 26.296875 25.140625 25.054688 26.648438 25.054688 C 28.15625 25.054688 29.378906 26.296875 29.378906 27.816406 C 29.378906 29.339844 28.15625 30.578125 26.648438 30.578125 Z M 32.117188 31.21875 C 31.851562 31.324219 29.71875 31.347656 28.148438 31.363281 C 25.347656 31.394531 25.082031 31.417969 25.078125 31.511719 C 25.078125 31.5625 25.074219 31.59375 25.753906 31.667969 C 26.125 31.707031 26.289062 31.734375 26.363281 31.753906 C 25.714844 31.898438 20.539062 31.828125 20.199219 31.664062 C 20.246094 31.582031 20.757812 31.554688 21.039062 31.542969 C 21.566406 31.515625 21.78125 31.492188 21.796875 31.390625 C 21.796875 31.375 21.792969 31.359375 21.78125 31.34375 C 21.71875 31.265625 21.257812 31.242188 20.230469 31.203125 C 19.535156 31.175781 18.5 31.136719 18.351562 31.050781 C 18.554688 30.984375 19.84375 31.003906 20.988281 31.019531 C 21.75 31.03125 22.425781 31.039062 22.992188 31.039062 C 23.039062 31.140625 23.140625 31.210938 23.261719 31.210938 L 32.105469 31.210938 C 32.109375 31.214844 32.113281 31.214844 32.117188 31.21875 Z M 32.117188 31.21875 " fill-opacity="1" fill-rule="nonzero"/></g><path fill="#000000" d="M 26.648438 25.273438 C 25.257812 25.273438 24.128906 26.414062 24.128906 27.816406 C 24.128906 29.222656 25.257812 30.363281 26.648438 30.363281 C 28.039062 30.363281 29.167969 29.222656 29.167969 27.816406 C 29.167969 26.414062 28.039062 25.273438 26.648438 25.273438 Z M 27.71875 29.929688 L 25.578125 29.929688 C 25.429688 29.855469 25.292969 29.761719 25.164062 29.65625 L 28.132812 29.65625 C 28.003906 29.761719 27.867188 29.855469 27.71875 29.929688 Z M 25.695312 29.988281 L 27.601562 29.988281 C 27.308594 30.117188 26.988281 30.191406 26.648438 30.191406 C 26.308594 30.191406 25.988281 30.117188 25.695312 29.988281 Z M 28.199219 29.601562 L 25.097656 29.601562 C 25.003906 29.515625 24.914062 29.425781 24.835938 29.328125 L 28.460938 29.328125 C 28.378906 29.425781 28.292969 29.515625 28.199219 29.601562 Z M 25.578125 25.703125 L 27.71875 25.703125 C 27.867188 25.78125 28.003906 25.871094 28.132812 25.976562 L 25.164062 25.976562 C 25.292969 25.871094 25.429688 25.78125 25.578125 25.703125 Z M 25.695312 25.648438 C 25.988281 25.515625 26.308594 25.441406 26.648438 25.441406 C 26.988281 25.441406 27.308594 25.515625 27.601562 25.648438 Z M 25.097656 26.035156 L 28.199219 26.035156 C 28.292969 26.117188 28.378906 26.207031 28.460938 26.304688 L 24.835938 26.304688 C 24.914062 26.207031 25.003906 26.117188 25.097656 26.035156 Z M 28.6875 26.636719 L 24.609375 26.636719 C 24.664062 26.539062 24.726562 26.449219 24.792969 26.363281 L 28.503906 26.363281 C 28.570312 26.449219 28.632812 26.539062 28.6875 26.636719 Z M 28.941406 27.292969 L 24.355469 27.292969 C 24.375 27.203125 24.402344 27.109375 24.433594 27.023438 L 28.863281 27.023438 C 28.894531 27.109375 28.917969 27.203125 28.941406 27.292969 Z M 28.863281 28.613281 L 24.433594 28.613281 C 24.402344 28.523438 24.375 28.433594 24.355469 28.339844 L 28.941406 28.339844 C 28.917969 28.433594 28.894531 28.523438 28.863281 28.613281 Z M 28.503906 29.273438 L 24.792969 29.273438 C 24.726562 29.183594 24.664062 29.09375 24.609375 29 L 28.6875 29 C 28.632812 29.09375 28.570312 29.183594 28.503906 29.273438 Z M 28.71875 28.941406 L 24.578125 28.941406 C 24.53125 28.855469 24.488281 28.761719 24.453125 28.667969 L 28.839844 28.667969 C 28.804688 28.761719 28.765625 28.855469 28.71875 28.941406 Z M 24.34375 28.28125 C 24.324219 28.195312 24.3125 28.101562 24.304688 28.011719 L 28.992188 28.011719 C 28.984375 28.101562 28.96875 28.195312 28.953125 28.28125 Z M 29 27.816406 C 29 27.863281 28.996094 27.910156 28.996094 27.953125 L 24.300781 27.953125 C 24.296875 27.910156 24.296875 27.863281 24.296875 27.816406 C 24.296875 27.773438 24.296875 27.726562 24.300781 27.679688 L 28.996094 27.679688 C 28.996094 27.726562 29 27.773438 29 27.816406 Z M 24.304688 27.625 C 24.3125 27.53125 24.324219 27.441406 24.34375 27.351562 L 28.953125 27.351562 C 28.96875 27.441406 28.984375 27.53125 28.992188 27.625 Z M 24.453125 26.964844 C 24.488281 26.871094 24.53125 26.78125 24.578125 26.691406 L 28.71875 26.691406 C 28.765625 26.78125 28.804688 26.871094 28.839844 26.964844 Z M 24.453125 26.964844 " fill-opacity="1" fill-rule="nonzero"/><path fill="#000000" d="M 9.996094 26.304688 L 9.496094 26.304688 L 9.792969 28.4375 L 10.042969 26.644531 Z M 9.996094 26.304688 " fill-opacity="1" fill-rule="nonzero"/><path fill="#000000" d="M 9.910156 25.679688 L 9.59375 23.421875 L 9.09375 23.421875 L 9.410156 25.679688 Z M 9.910156 25.679688 " fill-opacity="1" fill-rule="nonzero"/><g clip-path="url(#ef7482091c)"><path fill="#000000" d="M 13.933594 29.015625 L 14.390625 31.011719 L 14.894531 31.011719 L 14.351562 28.621094 C 14.414062 28.566406 14.480469 28.507812 14.542969 28.453125 C 15.097656 27.941406 15.554688 27.355469 15.917969 26.703125 C 17.101562 24.570312 16.976562 22.101562 16.664062 20.410156 C 16.355469 18.746094 15.746094 17.1875 15.207031 16.214844 C 15.242188 16.183594 15.269531 16.152344 15.292969 16.113281 C 15.421875 15.898438 15.355469 15.617188 15.144531 15.488281 L 14.546875 15.117188 C 13.710938 13.648438 13.375 12.441406 13.53125 11.457031 L 13.703125 11.351562 C 13.917969 11.21875 13.984375 10.9375 13.855469 10.722656 C 13.851562 10.722656 13.851562 10.71875 13.851562 10.71875 L 14.023438 10.445312 L 14.089844 10.335938 C 14.148438 10.238281 14.253906 10.183594 14.363281 10.183594 L 15.835938 10.183594 L 15.835938 10.125 L 16.886719 10.125 L 16.886719 9.953125 L 15.835938 9.953125 L 15.835938 9.898438 L 14.363281 9.898438 C 14.15625 9.898438 13.964844 10.003906 13.851562 10.183594 L 13.785156 10.292969 L 13.628906 10.535156 C 13.503906 10.488281 13.359375 10.496094 13.234375 10.574219 L 11.765625 11.484375 L 9.589844 11.410156 C 9.441406 11.40625 9.304688 11.476562 9.21875 11.589844 C 9.15625 11.648438 9.109375 11.726562 9.089844 11.816406 L 8.835938 12.902344 L 8.4375 14.621094 L 8.324219 15.101562 L 8.222656 15.539062 C 8.179688 15.664062 8.171875 15.800781 8.210938 15.9375 L 8.929688 18.660156 L 8.285156 22.0625 C 8.214844 22.433594 8.453125 22.792969 8.820312 22.863281 C 8.863281 22.871094 8.90625 22.875 8.949219 22.875 C 9.265625 22.875 9.550781 22.648438 9.613281 22.320312 L 10.289062 18.761719 C 10.308594 18.660156 10.304688 18.558594 10.277344 18.457031 L 10.039062 17.554688 C 10.128906 17.542969 10.222656 17.511719 10.304688 17.457031 L 11.535156 16.667969 L 11.628906 16.808594 L 10.945312 17.25 L 10.664062 18.949219 C 10.605469 19.320312 10.855469 19.671875 11.222656 19.734375 C 11.257812 19.742188 11.296875 19.746094 11.332031 19.746094 C 11.65625 19.746094 11.945312 19.507812 12 19.171875 L 12.5625 15.738281 C 12.5625 15.734375 12.5625 15.730469 12.566406 15.726562 C 12.566406 15.714844 12.566406 15.703125 12.570312 15.6875 C 12.570312 15.679688 12.570312 15.667969 12.570312 15.65625 C 12.570312 15.644531 12.570312 15.632812 12.570312 15.625 C 12.570312 15.613281 12.570312 15.601562 12.570312 15.589844 C 12.570312 15.578125 12.570312 15.566406 12.566406 15.558594 C 12.566406 15.546875 12.566406 15.535156 12.5625 15.523438 C 12.5625 15.511719 12.558594 15.503906 12.558594 15.492188 C 12.554688 15.480469 12.554688 15.46875 12.550781 15.457031 C 12.546875 15.449219 12.546875 15.4375 12.542969 15.425781 C 12.539062 15.417969 12.535156 15.40625 12.53125 15.394531 C 12.527344 15.382812 12.523438 15.375 12.519531 15.363281 C 12.515625 15.355469 12.511719 15.34375 12.503906 15.332031 C 12.5 15.324219 12.496094 15.3125 12.492188 15.304688 C 12.484375 15.292969 12.480469 15.28125 12.472656 15.273438 C 12.472656 15.269531 12.46875 15.265625 12.46875 15.261719 C 12.464844 15.257812 12.460938 15.25 12.457031 15.246094 C 12.449219 15.238281 12.441406 15.226562 12.4375 15.214844 C 12.429688 15.207031 12.421875 15.199219 12.414062 15.191406 C 12.410156 15.183594 12.402344 15.175781 12.394531 15.167969 C 12.386719 15.15625 12.378906 15.148438 12.371094 15.140625 C 12.363281 15.132812 12.355469 15.125 12.347656 15.121094 C 12.339844 15.113281 12.332031 15.105469 12.320312 15.097656 C 12.3125 15.089844 12.304688 15.082031 12.296875 15.078125 C 12.289062 15.070312 12.277344 15.0625 12.269531 15.058594 C 12.257812 15.050781 12.25 15.046875 12.242188 15.039062 C 12.230469 15.035156 12.222656 15.027344 12.214844 15.023438 C 12.203125 15.019531 12.191406 15.011719 12.183594 15.007812 C 12.171875 15.003906 12.164062 15 12.152344 14.996094 C 12.144531 14.992188 12.132812 14.988281 12.121094 14.984375 C 12.109375 14.980469 12.101562 14.976562 12.089844 14.972656 C 12.082031 14.96875 12.070312 14.96875 12.058594 14.964844 C 12.046875 14.960938 12.035156 14.960938 12.023438 14.957031 C 12.019531 14.957031 12.011719 14.953125 12.007812 14.953125 C 12.003906 14.953125 11.996094 14.953125 11.992188 14.953125 C 11.980469 14.949219 11.96875 14.949219 11.957031 14.949219 C 11.945312 14.945312 11.9375 14.945312 11.925781 14.945312 C 11.914062 14.945312 11.902344 14.945312 11.890625 14.945312 C 11.878906 14.945312 11.871094 14.945312 11.859375 14.945312 C 11.847656 14.945312 11.835938 14.945312 11.824219 14.949219 C 11.8125 14.949219 11.804688 14.949219 11.796875 14.953125 C 11.78125 14.953125 11.769531 14.957031 11.757812 14.960938 C 11.75 14.960938 11.738281 14.960938 11.730469 14.964844 C 11.71875 14.96875 11.703125 14.972656 11.691406 14.976562 C 11.683594 14.980469 11.675781 14.980469 11.667969 14.984375 C 11.65625 14.988281 11.644531 14.992188 11.628906 15 C 11.621094 15.003906 11.613281 15.007812 11.609375 15.011719 C 11.59375 15.015625 11.582031 15.023438 11.570312 15.027344 C 11.5625 15.03125 11.554688 15.039062 11.546875 15.042969 C 11.542969 15.042969 11.539062 15.046875 11.535156 15.050781 L 11.457031 15.101562 L 11.507812 14.867188 L 11.542969 14.71875 L 11.800781 13.613281 L 11.921875 13.847656 L 12.386719 14.765625 C 12.425781 14.839844 12.480469 14.902344 12.550781 14.945312 L 14.671875 16.261719 C 14.746094 16.308594 14.828125 16.328125 14.90625 16.328125 C 14.960938 16.328125 15.011719 16.320312 15.0625 16.300781 C 15.59375 17.261719 16.191406 18.800781 16.496094 20.441406 C 16.804688 22.105469 16.929688 24.53125 15.769531 26.621094 C 15.433594 27.230469 15.007812 27.777344 14.5 28.257812 C 14.4375 28.320312 14.371094 28.375 14.308594 28.433594 L 12.507812 20.554688 L 12 20.554688 L 12.550781 22.96875 L 11.402344 22.96875 L 11.359375 23.253906 L 12.617188 23.253906 L 13.210938 25.851562 L 10.996094 25.851562 L 10.957031 26.132812 L 13.273438 26.132812 L 13.867188 28.730469 L 10.59375 28.730469 L 10.554688 29.015625 L 13.554688 29.015625 C 12.71875 29.585938 11.722656 30.035156 10.5625 30.363281 L 10.464844 29.65625 L 10.359375 30.421875 C 10.300781 30.4375 10.242188 30.449219 10.179688 30.464844 L 11.59375 20.382812 L 12.519531 20.382812 L 12.519531 19.964844 L 10.230469 19.964844 L 10.152344 20.382812 L 11.089844 20.382812 L 10.730469 22.96875 L 9.300781 22.96875 C 9.191406 23.019531 9.074219 23.046875 8.949219 23.046875 C 8.894531 23.046875 8.839844 23.039062 8.789062 23.03125 C 8.71875 23.019531 8.65625 22.996094 8.597656 22.96875 L 7.707031 22.96875 L 8.296875 20.382812 L 8.429688 20.382812 L 8.511719 19.964844 L 7.695312 19.964844 L 7.695312 20.382812 L 7.789062 20.382812 L 5.363281 31.011719 L 5.871094 31.011719 L 6.324219 29.015625 L 9.882812 29.015625 L 9.664062 30.585938 C 9.605469 30.601562 9.546875 30.613281 9.488281 30.625 C 8.449219 30.839844 7.300781 30.96875 6.042969 31.015625 C 5.761719 31.027344 5.476562 31.03125 5.183594 31.035156 C 4.832031 31.035156 4.46875 31.035156 4.097656 31.023438 L 4.09375 31.195312 C 4.386719 31.203125 4.675781 31.207031 4.960938 31.207031 C 6.632812 31.207031 8.136719 31.070312 9.460938 30.804688 C 9.519531 30.792969 9.582031 30.78125 9.636719 30.769531 L 9.589844 31.117188 L 10.09375 31.082031 L 10.15625 30.648438 C 10.214844 30.632812 10.273438 30.617188 10.332031 30.601562 L 10.265625 31.089844 L 10.671875 31.117188 L 10.589844 30.53125 C 11.804688 30.1875 12.851562 29.714844 13.722656 29.105469 C 13.765625 29.078125 13.808594 29.046875 13.851562 29.015625 Z M 12.152344 12.3125 L 13.347656 11.570312 C 13.242188 12.507812 13.542969 13.617188 14.253906 14.933594 L 13.128906 14.238281 Z M 7.640625 23.253906 L 10.691406 23.253906 L 10.328125 25.851562 L 7.050781 25.851562 Z M 6.390625 28.730469 L 6.984375 26.132812 L 10.285156 26.132812 L 9.921875 28.730469 Z M 6.390625 28.730469 " fill-opacity="1" fill-rule="nonzero"/></g><path fill="#000000" d="M 10.074219 10.367188 C 10.339844 11.023438 11.082031 11.335938 11.726562 11.070312 C 12.375 10.800781 12.6875 10.054688 12.421875 9.398438 C 12.15625 8.746094 11.417969 8.429688 10.769531 8.699219 C 10.121094 8.964844 9.808594 9.714844 10.074219 10.367188 Z M 10.074219 10.367188 " fill-opacity="1" fill-rule="nonzero"/><path fill="#000000" d="M 22.464844 13.28125 L 22.464844 22.695312 C 22.464844 22.792969 22.542969 22.875 22.640625 22.875 C 22.738281 22.875 22.820312 22.792969 22.820312 22.695312 L 22.820312 13.34375 L 22.738281 13.34375 L 22.738281 22.695312 C 22.738281 22.75 22.695312 22.796875 22.640625 22.796875 C 22.585938 22.796875 22.542969 22.75 22.542969 22.695312 L 22.542969 13.28125 Z M 22.464844 13.28125 " fill-opacity="1" fill-rule="nonzero"/><path fill="#000000" d="M 21.523438 13.171875 L 21.523438 20.980469 C 21.523438 21.078125 21.601562 21.160156 21.699219 21.160156 C 21.796875 21.160156 21.875 21.078125 21.875 20.980469 L 21.875 13.34375 L 21.796875 13.34375 L 21.796875 20.980469 C 21.796875 21.035156 21.753906 21.078125 21.699219 21.078125 C 21.644531 21.078125 21.601562 21.035156 21.601562 20.980469 L 21.601562 13.171875 Z M 21.523438 13.171875 " fill-opacity="1" fill-rule="nonzero"/><path fill="#000000" d="M 20.578125 13.398438 L 20.578125 16.648438 C 20.578125 16.746094 20.65625 16.828125 20.753906 16.828125 C 20.851562 16.828125 20.933594 16.746094 20.933594 16.648438 L 20.933594 13.746094 L 20.855469 13.746094 L 20.855469 16.648438 C 20.855469 16.703125 20.808594 16.746094 20.753906 16.746094 C 20.703125 16.746094 20.65625 16.703125 20.65625 16.648438 L 20.65625 13.398438 Z M 20.578125 13.398438 " fill-opacity="1" fill-rule="nonzero"/><path fill="#000000" d="M 23.40625 13.398438 L 23.40625 18.109375 C 23.40625 18.207031 23.488281 18.289062 23.585938 18.289062 C 23.683594 18.289062 23.761719 18.207031 23.761719 18.109375 L 23.761719 13.746094 L 23.683594 13.746094 L 23.683594 18.109375 C 23.683594 18.164062 23.636719 18.207031 23.585938 18.207031 C 23.53125 18.207031 23.484375 18.164062 23.484375 18.109375 L 23.484375 13.398438 Z M 23.40625 13.398438 " fill-opacity="1" fill-rule="nonzero"/><g clip-path="url(#4df2a96731)"><path fill="#000000" d="M 19.003906 31.429688 C 18.617188 31.402344 18.109375 31.386719 17.566406 31.386719 C 17.023438 31.386719 16.511719 31.402344 16.128906 31.429688 C 15.496094 31.46875 15.496094 31.519531 15.496094 31.5625 C 15.496094 31.609375 15.496094 31.65625 16.421875 31.699219 C 16.941406 31.726562 17.589844 31.738281 18.152344 31.738281 C 19.632812 31.738281 19.632812 31.632812 19.632812 31.5625 C 19.632812 31.519531 19.632812 31.46875 19.003906 31.429688 Z M 18.152344 31.660156 C 17.125 31.660156 15.96875 31.613281 15.648438 31.558594 C 15.871094 31.515625 16.550781 31.46875 17.566406 31.46875 C 18.675781 31.46875 19.382812 31.523438 19.535156 31.570312 C 19.464844 31.605469 19.1875 31.660156 18.152344 31.660156 Z M 18.152344 31.660156 " fill-opacity="1" fill-rule="nonzero"/></g><g clip-path="url(#62c8a84a0d)"><path fill="#000000" d="M 29.316406 31.660156 C 29.0625 31.632812 28.722656 31.621094 28.363281 31.621094 C 28 31.621094 27.664062 31.632812 27.40625 31.660156 C 27.011719 31.699219 26.976562 31.75 26.976562 31.796875 C 26.976562 31.835938 26.976562 31.886719 27.601562 31.929688 C 27.949219 31.957031 28.378906 31.972656 28.75 31.972656 C 29.667969 31.972656 29.746094 31.878906 29.746094 31.796875 C 29.746094 31.75 29.710938 31.699219 29.316406 31.660156 Z M 28.75 31.890625 C 28.015625 31.890625 27.285156 31.839844 27.09375 31.789062 C 27.230469 31.746094 27.683594 31.699219 28.363281 31.699219 C 29.105469 31.699219 29.574219 31.757812 29.660156 31.800781 C 29.632812 31.828125 29.492188 31.890625 28.75 31.890625 Z M 28.75 31.890625 " fill-opacity="1" fill-rule="nonzero"/></g><path fill="#000000" d="M 19.625 10.257812 L 19.625 10.144531 L 17.132812 10.074219 L 17.132812 10.128906 L 17.128906 10.1875 L 17.132812 10.1875 Z M 19.625 10.257812 " fill-opacity="1" fill-rule="nonzero"/><path fill="#000000" d="M 19.625 9.957031 L 19.625 9.84375 L 17.132812 9.914062 L 17.128906 9.914062 L 17.132812 9.96875 L 17.132812 10.027344 Z M 19.625 9.957031 " fill-opacity="1" fill-rule="nonzero"/><path fill="#000000" d="M 19.726562 9.28125 C 19.742188 9.296875 19.765625 9.308594 19.789062 9.308594 C 19.792969 9.308594 19.800781 9.308594 19.804688 9.304688 C 19.816406 9.300781 19.828125 9.296875 19.839844 9.289062 C 19.871094 9.261719 19.875 9.210938 19.851562 9.179688 C 19.84375 9.167969 19.117188 8.21875 17.5625 7.917969 C 17.535156 7.910156 17.460938 7.894531 17.398438 7.929688 C 17.363281 7.945312 17.324219 7.980469 17.308594 8.058594 C 17.292969 8.117188 17.300781 8.175781 17.332031 8.21875 C 17.375 8.285156 17.449219 8.300781 17.457031 8.300781 C 19.09375 8.605469 19.722656 9.273438 19.726562 9.28125 Z M 17.476562 8.1875 C 17.476562 8.1875 17.441406 8.183594 17.425781 8.15625 C 17.414062 8.136719 17.410156 8.113281 17.417969 8.082031 C 17.425781 8.042969 17.445312 8.03125 17.449219 8.027344 C 17.460938 8.023438 17.472656 8.019531 17.484375 8.019531 C 17.507812 8.019531 17.527344 8.027344 17.527344 8.027344 L 17.535156 8.03125 C 18.429688 8.199219 19.039062 8.589844 19.394531 8.882812 C 19.03125 8.65625 18.417969 8.363281 17.476562 8.1875 Z M 17.476562 8.1875 " fill-opacity="1" fill-rule="nonzero"/><path fill="#000000" d="M 20.007812 11.421875 C 20.035156 11.402344 20.046875 11.367188 20.039062 11.335938 C 20.035156 11.320312 20.03125 11.308594 20.023438 11.296875 C 19.992188 11.257812 19.9375 11.25 19.898438 11.277344 C 19.886719 11.289062 18.5 12.289062 17.996094 14.527344 C 17.984375 14.558594 17.957031 14.65625 18 14.746094 C 18.03125 14.808594 18.085938 14.851562 18.164062 14.871094 C 18.191406 14.878906 18.21875 14.882812 18.246094 14.882812 C 18.292969 14.882812 18.335938 14.871094 18.375 14.84375 C 18.460938 14.789062 18.484375 14.695312 18.488281 14.683594 C 19.011719 12.308594 20 11.433594 20.007812 11.421875 Z M 18.378906 14.660156 C 18.375 14.660156 18.363281 14.71875 18.316406 14.75 C 18.28125 14.769531 18.242188 14.773438 18.191406 14.761719 C 18.144531 14.75 18.117188 14.726562 18.101562 14.695312 C 18.074219 14.640625 18.101562 14.570312 18.105469 14.5625 L 18.105469 14.554688 C 18.460938 12.980469 19.257812 12.03125 19.683594 11.617188 C 19.34375 12.042969 18.746094 12.984375 18.378906 14.660156 Z M 18.378906 14.660156 " fill-opacity="1" fill-rule="nonzero"/><path fill="#000000" d="M 19.460938 10.808594 C 19.503906 10.785156 19.523438 10.730469 19.503906 10.683594 C 19.480469 10.632812 19.425781 10.613281 19.378906 10.632812 C 19.355469 10.644531 16.882812 11.6875 15.207031 13.542969 C 15.132812 13.632812 15.105469 13.777344 15.214844 13.878906 C 15.25 13.914062 15.296875 13.933594 15.34375 13.933594 C 15.347656 13.933594 15.347656 13.933594 15.351562 13.933594 C 15.464844 13.929688 15.570312 13.828125 15.597656 13.796875 C 17.585938 11.789062 19.441406 10.816406 19.460938 10.808594 Z M 15.519531 13.71875 L 15.488281 13.691406 L 15.515625 13.71875 C 15.484375 13.753906 15.410156 13.816406 15.347656 13.820312 C 15.324219 13.820312 15.308594 13.8125 15.292969 13.796875 C 15.210938 13.71875 15.289062 13.617188 15.292969 13.617188 C 16.570312 12.203125 18.320312 11.261719 19.066406 10.902344 C 18.433594 11.28125 17.011719 12.207031 15.519531 13.71875 Z M 15.519531 13.71875 " fill-opacity="1" fill-rule="nonzero"/></svg>