<svg xmlns="http://www.w3.org/2000/svg" xmlns:xlink="http://www.w3.org/1999/xlink" width="50" zoomAndPan="magnify" viewBox="0 0 37.5 37.499999" height="50" preserveAspectRatio="xMidYMid meet" version="1.0"><defs><clipPath id="9063112a30"><path d="M 16 8.183594 L 18 8.183594 L 18 9 L 16 9 Z M 16 8.183594 " clip-rule="nonzero"/></clipPath><clipPath id="c31eb2a0a3"><path d="M 14 13 L 35.527344 13 L 35.527344 27 L 14 27 Z M 14 13 " clip-rule="nonzero"/></clipPath><clipPath id="f14763e913"><path d="M 19 26 L 22 26 L 22 28.90625 L 19 28.90625 Z M 19 26 " clip-rule="nonzero"/></clipPath><clipPath id="8205db4f60"><path d="M 32 26 L 35 26 L 35 28.90625 L 32 28.90625 Z M 32 26 " clip-rule="nonzero"/></clipPath><clipPath id="6c2464f726"><path d="M 5 22 L 8 22 L 8 28.90625 L 5 28.90625 Z M 5 22 " clip-rule="nonzero"/></clipPath><clipPath id="e3880f426a"><path d="M 9 23 L 11 23 L 11 28.90625 L 9 28.90625 Z M 9 23 " clip-rule="nonzero"/></clipPath><clipPath id="c084fbf536"><path d="M 1.480469 16 L 11 16 L 11 28.90625 L 1.480469 28.90625 Z M 1.480469 16 " clip-rule="nonzero"/></clipPath></defs><g clip-path="url(#9063112a30)"><path fill="#000000" d="M 17.097656 8.839844 C 17.277344 8.839844 17.425781 8.691406 17.425781 8.511719 C 17.425781 8.332031 17.277344 8.183594 17.097656 8.183594 C 16.917969 8.183594 16.769531 8.332031 16.769531 8.511719 C 16.769531 8.691406 16.917969 8.839844 17.097656 8.839844 Z M 17.097656 8.347656 C 17.1875 8.347656 17.257812 8.421875 17.257812 8.511719 C 17.257812 8.601562 17.1875 8.675781 17.097656 8.675781 C 17.007812 8.675781 16.9375 8.601562 16.9375 8.511719 C 16.9375 8.421875 17.007812 8.347656 17.097656 8.347656 Z M 17.097656 8.347656 " fill-opacity="1" fill-rule="nonzero"/></g><path fill="#000000" d="M 24.472656 11.972656 C 24.867188 11.972656 25.191406 11.652344 25.191406 11.253906 C 25.191406 10.855469 24.867188 10.53125 24.472656 10.53125 C 24.078125 10.53125 23.753906 10.855469 23.753906 11.253906 C 23.753906 11.652344 24.078125 11.972656 24.472656 11.972656 Z M 24.472656 10.699219 C 24.777344 10.699219 25.023438 10.945312 25.023438 11.253906 C 25.023438 11.558594 24.777344 11.808594 24.472656 11.808594 C 24.167969 11.808594 23.917969 11.558594 23.917969 11.253906 C 23.917969 10.945312 24.167969 10.699219 24.472656 10.699219 Z M 24.472656 10.699219 " fill-opacity="1" fill-rule="nonzero"/><g clip-path="url(#c31eb2a0a3)"><path fill="#000000" d="M 20.246094 17.074219 C 20.246094 17.472656 20.550781 17.796875 20.933594 17.832031 L 20.863281 17.964844 L 19.234375 17.964844 C 18.902344 17.964844 18.902344 19.175781 19.234375 19.175781 L 20.203125 19.175781 L 19.933594 19.667969 C 19.855469 19.605469 19.761719 19.570312 19.652344 19.570312 C 19.402344 19.570312 19.195312 19.777344 19.195312 20.03125 C 19.195312 20.230469 19.324219 20.402344 19.5 20.464844 C 19.457031 20.546875 19.417969 20.628906 19.378906 20.714844 C 19.289062 20.667969 19.1875 20.640625 19.082031 20.640625 C 18.71875 20.640625 18.421875 20.941406 18.421875 21.304688 C 18.421875 21.367188 18.429688 21.425781 18.445312 21.480469 L 17.085938 21.316406 C 17.339844 21.3125 17.542969 21.105469 17.542969 20.855469 C 17.542969 20.597656 17.335938 20.394531 17.082031 20.394531 C 16.828125 20.394531 16.625 20.597656 16.625 20.855469 C 16.625 21.070312 16.773438 21.25 16.972656 21.300781 L 15.066406 21.066406 L 15.050781 21.199219 L 18.5 21.621094 C 18.53125 21.679688 18.574219 21.734375 18.617188 21.777344 L 15.882812 21.398438 L 15.875 21.464844 L 18.71875 21.859375 C 18.824219 21.929688 18.949219 21.96875 19.082031 21.96875 C 19.089844 21.96875 19.101562 21.96875 19.109375 21.96875 C 19.109375 21.988281 19.109375 22.007812 19.109375 22.027344 L 19.109375 22.496094 C 19.085938 22.492188 19.0625 22.492188 19.035156 22.492188 C 18.878906 22.492188 18.734375 22.546875 18.621094 22.640625 L 15.472656 21.484375 L 15.449219 21.546875 L 18.566406 22.691406 C 18.523438 22.734375 18.484375 22.785156 18.457031 22.839844 L 14.980469 21.480469 L 14.933594 21.605469 L 18.40625 22.960938 C 18.386719 23.023438 18.375 23.085938 18.375 23.15625 C 18.375 23.222656 18.386719 23.289062 18.40625 23.351562 C 18.398438 23.351562 18.390625 23.351562 18.382812 23.351562 C 17.714844 23.351562 17.171875 23.898438 17.171875 24.566406 C 17.171875 25.238281 17.714844 25.785156 18.382812 25.785156 C 18.386719 25.785156 18.390625 25.785156 18.394531 25.785156 C 18.492188 26.0625 18.757812 26.265625 19.070312 26.265625 C 19.109375 26.265625 19.148438 26.261719 19.1875 26.253906 C 19.332031 26.230469 19.464844 26.160156 19.566406 26.0625 C 19.800781 26.261719 20.097656 26.371094 20.402344 26.371094 L 33.976562 26.371094 C 34.308594 26.371094 34.625 26.246094 34.867188 26.015625 C 35.125 25.769531 35.273438 25.429688 35.273438 25.070312 L 35.273438 22.027344 C 35.273438 21.472656 35.132812 20.925781 34.867188 20.4375 L 34.175781 19.175781 L 35.144531 19.175781 C 35.476562 19.175781 35.476562 17.964844 35.144531 17.964844 L 33.515625 17.964844 L 32.160156 15.484375 C 31.929688 15.054688 31.484375 14.789062 31 14.777344 L 27.191406 14.710938 L 27.152344 14.710938 C 27.167969 14.664062 27.179688 14.617188 27.179688 14.5625 C 27.179688 14.308594 26.972656 14.101562 26.71875 14.101562 C 26.464844 14.101562 26.257812 14.308594 26.257812 14.5625 C 26.257812 14.621094 26.269531 14.675781 26.289062 14.726562 L 25.074219 14.75 C 25.0625 14.257812 24.660156 13.859375 24.167969 13.859375 C 23.671875 13.859375 23.265625 14.269531 23.265625 14.769531 C 23.265625 14.773438 23.265625 14.78125 23.265625 14.785156 C 22.824219 14.832031 22.433594 15.089844 22.21875 15.484375 L 21.605469 16.609375 C 21.464844 16.429688 21.25 16.3125 21.003906 16.3125 C 20.585938 16.3125 20.246094 16.65625 20.246094 17.074219 Z M 17.082031 20.558594 C 17.246094 20.558594 17.375 20.691406 17.375 20.855469 C 17.375 21.015625 17.246094 21.148438 17.082031 21.148438 C 16.921875 21.148438 16.789062 21.015625 16.789062 20.855469 C 16.789062 20.691406 16.921875 20.558594 17.082031 20.558594 Z M 21.515625 16.773438 L 21.023438 17.667969 C 21.019531 17.667969 21.011719 17.671875 21.003906 17.671875 C 20.679688 17.671875 20.414062 17.402344 20.414062 17.074219 C 20.414062 16.746094 20.679688 16.480469 21.003906 16.480469 C 21.222656 16.480469 21.410156 16.597656 21.515625 16.773438 Z M 21.054688 20.027344 C 20.78125 20.027344 20.558594 19.804688 20.558594 19.53125 C 20.558594 19.253906 20.78125 19.03125 21.054688 19.03125 C 21.324219 19.03125 21.546875 19.253906 21.546875 19.53125 C 21.546875 19.804688 21.324219 20.027344 21.054688 20.027344 Z M 20.199219 21.304688 C 20.222656 20.882812 20.582031 20.5625 21 20.585938 C 21.101562 20.589844 21.195312 20.617188 21.28125 20.65625 L 23.054688 21.5 C 23.246094 21.585938 23.328125 21.816406 23.238281 22.003906 C 23.167969 22.148438 23.023438 22.230469 22.871094 22.222656 L 20.914062 22.109375 C 20.496094 22.082031 20.175781 21.722656 20.199219 21.304688 Z M 24.328125 21.785156 C 24.328125 21.621094 24.460938 21.492188 24.621094 21.492188 C 24.785156 21.492188 24.914062 21.621094 24.914062 21.785156 C 24.914062 21.949219 24.785156 22.078125 24.621094 22.078125 C 24.460938 22.078125 24.328125 21.949219 24.328125 21.785156 Z M 19.070312 26.097656 C 18.765625 26.097656 18.519531 25.851562 18.519531 25.546875 C 18.519531 25.246094 18.765625 24.996094 19.070312 24.996094 C 19.371094 24.996094 19.617188 25.246094 19.617188 25.546875 C 19.617188 25.851562 19.371094 26.097656 19.070312 26.097656 Z M 18.382812 23.515625 C 18.417969 23.515625 18.453125 23.519531 18.488281 23.523438 C 18.605469 23.699219 18.808594 23.816406 19.035156 23.816406 C 19.0625 23.816406 19.085938 23.816406 19.109375 23.8125 L 19.109375 24.832031 C 19.09375 24.832031 19.082031 24.832031 19.070312 24.832031 C 18.675781 24.832031 18.355469 25.152344 18.355469 25.546875 C 18.355469 25.570312 18.355469 25.59375 18.359375 25.617188 C 17.792969 25.605469 17.335938 25.140625 17.335938 24.566406 C 17.335938 23.988281 17.804688 23.515625 18.382812 23.515625 Z M 18.542969 23.15625 C 18.542969 22.882812 18.765625 22.660156 19.035156 22.660156 C 19.308594 22.660156 19.53125 22.882812 19.53125 23.15625 C 19.53125 23.429688 19.308594 23.652344 19.035156 23.652344 C 18.765625 23.652344 18.542969 23.429688 18.542969 23.15625 Z M 18.585938 21.304688 C 18.585938 21.03125 18.808594 20.808594 19.082031 20.808594 C 19.351562 20.808594 19.574219 21.03125 19.574219 21.304688 C 19.574219 21.578125 19.351562 21.800781 19.082031 21.800781 C 18.808594 21.800781 18.585938 21.578125 18.585938 21.304688 Z M 19.949219 20.03125 C 19.949219 20.195312 19.816406 20.324219 19.652344 20.324219 C 19.492188 20.324219 19.359375 20.195312 19.359375 20.03125 C 19.359375 19.867188 19.492188 19.738281 19.652344 19.738281 C 19.816406 19.738281 19.949219 19.867188 19.949219 20.03125 Z M 21.488281 24.507812 C 21.488281 24.808594 21.242188 25.058594 20.9375 25.058594 C 20.636719 25.058594 20.390625 24.808594 20.390625 24.507812 C 20.390625 24.203125 20.636719 23.957031 20.9375 23.957031 C 21.242188 23.957031 21.488281 24.203125 21.488281 24.507812 Z M 29.539062 25.40625 C 29.539062 25.476562 29.480469 25.535156 29.40625 25.535156 L 24.972656 25.535156 C 24.898438 25.535156 24.839844 25.476562 24.839844 25.40625 L 24.839844 24.546875 C 24.839844 24.472656 24.898438 24.414062 24.972656 24.414062 L 29.40625 24.414062 C 29.480469 24.414062 29.539062 24.472656 29.539062 24.546875 Z M 25.9375 20.554688 C 25.9375 20.390625 26.066406 20.257812 26.230469 20.257812 C 26.390625 20.257812 26.523438 20.390625 26.523438 20.554688 C 26.523438 20.714844 26.390625 20.847656 26.230469 20.847656 C 26.066406 20.847656 25.9375 20.714844 25.9375 20.554688 Z M 34.109375 21.023438 C 34.289062 21.402344 34.125 21.855469 33.746094 22.035156 C 33.65625 22.078125 33.558594 22.101562 33.464844 22.109375 L 31.507812 22.222656 C 31.296875 22.234375 31.121094 22.074219 31.105469 21.863281 C 31.097656 21.703125 31.1875 21.5625 31.324219 21.5 L 33.097656 20.65625 C 33.476562 20.476562 33.929688 20.640625 34.109375 21.023438 Z M 26.425781 14.5625 C 26.425781 14.402344 26.558594 14.269531 26.71875 14.269531 C 26.878906 14.269531 27.011719 14.402344 27.011719 14.5625 C 27.011719 14.621094 26.996094 14.671875 26.96875 14.714844 L 26.472656 14.722656 C 26.441406 14.675781 26.425781 14.621094 26.425781 14.5625 Z M 23.429688 14.777344 C 23.429688 14.773438 23.429688 14.773438 23.429688 14.769531 C 23.429688 14.359375 23.761719 14.027344 24.167969 14.027344 C 24.570312 14.027344 24.898438 14.351562 24.90625 14.75 Z M 22.761719 15.78125 C 22.890625 15.550781 23.128906 15.40625 23.390625 15.402344 L 27.191406 15.335938 L 30.992188 15.402344 C 31.253906 15.40625 31.492188 15.550781 31.617188 15.78125 L 33.566406 19.355469 C 33.65625 19.515625 33.539062 19.710938 33.359375 19.710938 L 21.6875 19.710938 C 21.703125 19.652344 21.714844 19.59375 21.714844 19.53125 C 21.714844 19.171875 21.429688 18.882812 21.078125 18.867188 Z M 22.761719 15.78125 " fill-opacity="1" fill-rule="nonzero"/></g><path fill="#000000" d="M 17.398438 23.160156 C 17.398438 22.972656 17.246094 22.824219 17.0625 22.824219 C 16.875 22.824219 16.726562 22.972656 16.726562 23.160156 C 16.726562 23.347656 16.875 23.5 17.0625 23.5 C 17.246094 23.5 17.398438 23.347656 17.398438 23.160156 Z M 17.0625 23.332031 C 16.96875 23.332031 16.890625 23.253906 16.890625 23.160156 C 16.890625 23.066406 16.96875 22.988281 17.0625 22.988281 C 17.15625 22.988281 17.234375 23.066406 17.234375 23.160156 C 17.234375 23.253906 17.15625 23.332031 17.0625 23.332031 Z M 17.0625 23.332031 " fill-opacity="1" fill-rule="nonzero"/><path fill="#000000" d="M 14.734375 23.554688 C 14.734375 23.917969 15.03125 24.214844 15.390625 24.214844 C 15.753906 24.214844 16.046875 23.917969 16.046875 23.554688 C 16.046875 23.191406 15.753906 22.894531 15.390625 22.894531 C 15.03125 22.894531 14.734375 23.191406 14.734375 23.554688 Z M 14.902344 23.554688 C 14.902344 23.285156 15.121094 23.0625 15.390625 23.0625 C 15.660156 23.0625 15.882812 23.285156 15.882812 23.554688 C 15.882812 23.828125 15.660156 24.046875 15.390625 24.046875 C 15.121094 24.046875 14.902344 23.828125 14.902344 23.554688 Z M 14.902344 23.554688 " fill-opacity="1" fill-rule="nonzero"/><path fill="#000000" d="M 21.859375 14.945312 C 22.210938 14.945312 22.496094 14.660156 22.496094 14.308594 C 22.496094 13.957031 22.210938 13.667969 21.859375 13.667969 C 21.511719 13.667969 21.226562 13.957031 21.226562 14.308594 C 21.226562 14.660156 21.511719 14.945312 21.859375 14.945312 Z M 21.859375 13.835938 C 22.117188 13.835938 22.328125 14.046875 22.328125 14.308594 C 22.328125 14.566406 22.117188 14.777344 21.859375 14.777344 C 21.601562 14.777344 21.390625 14.566406 21.390625 14.308594 C 21.390625 14.046875 21.601562 13.835938 21.859375 13.835938 Z M 21.859375 13.835938 " fill-opacity="1" fill-rule="nonzero"/><g clip-path="url(#f14763e913)"><path fill="#000000" d="M 20.402344 26.746094 C 20.046875 26.746094 19.703125 26.632812 19.417969 26.421875 L 19.417969 28.042969 C 19.417969 28.144531 19.5 28.226562 19.601562 28.226562 L 21.265625 28.226562 C 21.367188 28.226562 21.449219 28.144531 21.449219 28.042969 L 21.449219 26.746094 Z M 20.402344 26.746094 " fill-opacity="1" fill-rule="nonzero"/></g><g clip-path="url(#8205db4f60)"><path fill="#000000" d="M 33.976562 26.746094 L 32.929688 26.746094 L 32.929688 28.042969 C 32.929688 28.144531 33.011719 28.226562 33.113281 28.226562 L 34.777344 28.226562 C 34.878906 28.226562 34.960938 28.144531 34.960938 28.042969 L 34.960938 26.421875 C 34.675781 26.632812 34.332031 26.746094 33.976562 26.746094 Z M 33.976562 26.746094 " fill-opacity="1" fill-rule="nonzero"/></g><path fill="#000000" d="M 26.210938 15.617188 L 28.167969 15.617188 L 28.167969 16.113281 L 26.210938 16.113281 Z M 26.210938 15.617188 " fill-opacity="1" fill-rule="nonzero"/><path fill="#000000" d="M 12.214844 21.171875 C 12.101562 21.140625 11.980469 21.203125 11.941406 21.316406 L 11.308594 23.164062 C 11.265625 23.289062 11.335938 23.421875 11.460938 23.457031 L 12.628906 23.785156 C 12.753906 23.820312 12.878906 23.742188 12.910156 23.617188 L 13.324219 21.703125 C 13.347656 21.589844 13.277344 21.472656 13.164062 21.4375 Z M 13.167969 21.671875 L 12.753906 23.582031 C 12.746094 23.605469 12.730469 23.617188 12.722656 23.625 C 12.710938 23.628906 12.695312 23.636719 12.671875 23.632812 L 11.503906 23.300781 C 11.480469 23.296875 11.46875 23.277344 11.460938 23.269531 C 11.457031 23.261719 11.449219 23.242188 11.457031 23.21875 L 12.09375 21.367188 C 12.105469 21.335938 12.140625 21.316406 12.171875 21.328125 L 13.121094 21.59375 C 13.152344 21.601562 13.175781 21.636719 13.167969 21.671875 Z M 13.167969 21.671875 " fill-opacity="1" fill-rule="nonzero"/><path fill="#000000" d="M 11.78125 20.65625 L 12.300781 20.800781 L 12.242188 21.011719 L 13.226562 21.289062 L 13.265625 21.140625 L 13.847656 21.304688 L 13.878906 21.1875 L 14.769531 21.4375 L 14.828125 21.234375 L 13.9375 20.984375 L 13.96875 20.867188 L 13.386719 20.703125 L 13.429688 20.554688 L 12.445312 20.28125 L 12.386719 20.492188 L 11.863281 20.34375 C 11.859375 20.449219 11.835938 20.558594 11.78125 20.65625 Z M 11.78125 20.65625 " fill-opacity="1" fill-rule="nonzero"/><path fill="#000000" d="M 12.527344 23.371094 L 12.582031 23.136719 L 12.6875 23.160156 L 12.632812 23.394531 Z M 12.527344 23.371094 " fill-opacity="1" fill-rule="nonzero"/><path fill="#000000" d="M 12.636719 22.894531 L 12.90625 21.671875 L 13.011719 21.695312 L 12.738281 22.917969 Z M 12.636719 22.894531 " fill-opacity="1" fill-rule="nonzero"/><g clip-path="url(#6c2464f726)"><path fill="#000000" d="M 5.214844 27.066406 C 4.960938 27.449219 5.066406 27.964844 5.449219 28.21875 C 5.589844 28.3125 5.75 28.359375 5.90625 28.359375 C 6.175781 28.359375 6.4375 28.226562 6.597656 27.984375 C 7.527344 26.574219 7.820312 25.28125 7.828125 24.214844 L 5.863281 22.613281 C 6.242188 23.570312 6.472656 25.15625 5.214844 27.066406 Z M 5.214844 27.066406 " fill-opacity="1" fill-rule="nonzero"/></g><g clip-path="url(#e3880f426a)"><path fill="#000000" d="M 9.09375 26.535156 C 9.082031 26.671875 9.066406 26.808594 9.050781 26.9375 L 9.324219 27.800781 C 9.4375 28.15625 9.761719 28.382812 10.117188 28.382812 C 10.199219 28.382812 10.28125 28.371094 10.367188 28.34375 C 10.800781 28.207031 11.042969 27.738281 10.90625 27.296875 L 9.742188 23.609375 C 9.722656 23.539062 9.6875 23.472656 9.648438 23.410156 C 9.304688 24.46875 9.195312 25.5625 9.09375 26.535156 Z M 9.09375 26.535156 " fill-opacity="1" fill-rule="nonzero"/></g><path fill="#000000" d="M 9.664062 17.117188 C 10.472656 17.277344 11.257812 16.746094 11.414062 15.933594 C 11.574219 15.121094 11.046875 14.335938 10.238281 14.175781 C 9.425781 14.015625 8.644531 14.546875 8.484375 15.359375 C 8.328125 16.171875 8.855469 16.960938 9.664062 17.117188 Z M 9.664062 17.117188 " fill-opacity="1" fill-rule="nonzero"/><path fill="#000000" d="M 8.132812 17.683594 C 8.035156 17.40625 7.730469 17.261719 7.453125 17.363281 C 7.179688 17.460938 7.035156 17.765625 7.132812 18.042969 L 8.015625 20.523438 C 8.09375 20.738281 8.292969 20.878906 8.515625 20.878906 C 8.535156 20.878906 8.550781 20.875 8.570312 20.875 L 10.742188 20.65625 L 10.832031 20.734375 C 11.050781 20.929688 11.386719 20.90625 11.578125 20.683594 C 11.773438 20.460938 11.75 20.125 11.53125 19.933594 L 11.265625 19.699219 C 11.15625 19.601562 11.011719 19.554688 10.863281 19.570312 L 8.875 19.773438 Z M 8.132812 17.683594 " fill-opacity="1" fill-rule="nonzero"/><g clip-path="url(#c084fbf536)"><path fill="#000000" d="M 4.207031 28.59375 C 4.714844 28.851562 5.398438 28.90625 6.191406 28.90625 C 6.449219 28.90625 6.722656 28.898438 7.003906 28.894531 C 7.300781 28.886719 7.609375 28.882812 7.925781 28.882812 C 8.589844 28.882812 8.753906 28.078125 8.882812 26.914062 C 8.898438 26.789062 8.910156 26.664062 8.925781 26.535156 L 8.925781 26.542969 C 8.929688 26.53125 8.929688 26.523438 8.929688 26.515625 C 9.027344 25.558594 9.148438 24.367188 9.523438 23.257812 C 9.519531 23.253906 9.519531 23.253906 9.515625 23.25 C 9.53125 23.195312 9.550781 23.144531 9.566406 23.09375 C 9.808594 22.410156 10.144531 21.75 10.632812 21.183594 L 10.675781 21.230469 L 10.949219 20.980469 C 10.867188 20.949219 10.792969 20.90625 10.730469 20.851562 L 10.691406 20.816406 L 10.648438 20.820312 L 10.460938 20.992188 L 10.519531 21.058594 C 10.023438 21.632812 9.675781 22.292969 9.429688 22.980469 C 9.414062 23.03125 9.394531 23.082031 9.378906 23.132812 L 7.144531 21.3125 L 7.148438 21.3125 C 7.265625 20.863281 7.453125 20.410156 7.664062 19.984375 L 6.988281 18.09375 C 6.929688 17.921875 6.9375 17.734375 7.015625 17.570312 C 7.09375 17.40625 7.230469 17.277344 7.402344 17.21875 C 7.476562 17.191406 7.554688 17.175781 7.632812 17.175781 C 7.921875 17.175781 8.179688 17.359375 8.277344 17.632812 L 8.546875 18.390625 C 8.894531 17.828125 8.894531 17.046875 8.421875 16.742188 C 7.929688 16.425781 7.054688 16.457031 6.425781 17.273438 C 5.570312 18.402344 5.199219 19.199219 4.890625 20.660156 C 4.847656 20.980469 4.875 21.238281 4.953125 21.445312 C 4.992188 21.617188 5.089844 21.78125 5.238281 21.902344 L 5.542969 22.152344 L 8.238281 24.351562 L 8.800781 26.140625 C 8.789062 26.234375 8.78125 26.328125 8.769531 26.421875 C 8.765625 26.453125 8.761719 26.484375 8.761719 26.519531 C 8.625 27.800781 8.511719 28.714844 7.925781 28.714844 C 7.609375 28.714844 7.296875 28.722656 7 28.726562 C 5.882812 28.75 4.917969 28.769531 4.28125 28.445312 C 3.4375 28.015625 1.609375 28.207031 1.53125 28.214844 L 1.550781 28.382812 C 1.566406 28.378906 3.40625 28.183594 4.207031 28.59375 Z M 4.207031 28.59375 " fill-opacity="1" fill-rule="nonzero"/></g><path fill="#000000" d="M 22.742188 18.773438 C 23.054688 18.773438 23.304688 18.519531 23.304688 18.207031 C 23.304688 17.894531 23.054688 17.640625 22.742188 17.640625 C 22.433594 17.640625 22.179688 17.894531 22.179688 18.207031 C 22.179688 18.519531 22.433594 18.773438 22.742188 18.773438 Z M 22.742188 17.808594 C 22.960938 17.808594 23.140625 17.988281 23.140625 18.207031 C 23.140625 18.425781 22.960938 18.605469 22.742188 18.605469 C 22.523438 18.605469 22.34375 18.425781 22.34375 18.207031 C 22.34375 17.988281 22.523438 17.808594 22.742188 17.808594 Z M 22.742188 17.808594 " fill-opacity="1" fill-rule="nonzero"/><path fill="#000000" d="M 17.746094 19.839844 C 18 19.839844 18.207031 19.632812 18.207031 19.378906 C 18.207031 19.125 18 18.917969 17.746094 18.917969 C 17.496094 18.917969 17.289062 19.125 17.289062 19.378906 C 17.289062 19.632812 17.496094 19.839844 17.746094 19.839844 Z M 18.042969 19.378906 C 18.042969 19.542969 17.910156 19.671875 17.746094 19.671875 C 17.585938 19.671875 17.453125 19.542969 17.453125 19.378906 C 17.453125 19.214844 17.585938 19.085938 17.746094 19.085938 C 17.910156 19.085938 18.042969 19.214844 18.042969 19.378906 Z M 18.042969 19.378906 " fill-opacity="1" fill-rule="nonzero"/><path fill="#000000" d="M 17.128906 26.695312 C 17.128906 26.949219 17.332031 27.15625 17.585938 27.15625 C 17.839844 27.15625 18.046875 26.949219 18.046875 26.695312 C 18.046875 26.441406 17.839844 26.234375 17.585938 26.234375 C 17.332031 26.234375 17.128906 26.441406 17.128906 26.695312 Z M 17.585938 26.992188 C 17.425781 26.992188 17.292969 26.859375 17.292969 26.695312 C 17.292969 26.535156 17.425781 26.402344 17.585938 26.402344 C 17.75 26.402344 17.878906 26.535156 17.878906 26.695312 C 17.878906 26.859375 17.75 26.992188 17.585938 26.992188 Z M 17.585938 26.992188 " fill-opacity="1" fill-rule="nonzero"/><path fill="#000000" d="M 13.738281 25.699219 C 13.738281 25.953125 13.945312 26.160156 14.195312 26.160156 C 14.449219 26.160156 14.65625 25.953125 14.65625 25.699219 C 14.65625 25.445312 14.449219 25.238281 14.195312 25.238281 C 13.945312 25.238281 13.738281 25.445312 13.738281 25.699219 Z M 13.902344 25.699219 C 13.902344 25.535156 14.035156 25.402344 14.195312 25.402344 C 14.359375 25.402344 14.492188 25.535156 14.492188 25.699219 C 14.492188 25.859375 14.359375 25.992188 14.195312 25.992188 C 14.035156 25.992188 13.902344 25.859375 13.902344 25.699219 Z M 13.902344 25.699219 " fill-opacity="1" fill-rule="nonzero"/><path fill="#000000" d="M 15.042969 11.746094 C 15.226562 11.746094 15.371094 11.597656 15.371094 11.417969 C 15.371094 11.234375 15.226562 11.089844 15.042969 11.089844 C 14.863281 11.089844 14.714844 11.234375 14.714844 11.417969 C 14.714844 11.597656 14.863281 11.746094 15.042969 11.746094 Z M 15.042969 11.253906 C 15.132812 11.253906 15.207031 11.328125 15.207031 11.417969 C 15.207031 11.507812 15.132812 11.582031 15.042969 11.582031 C 14.957031 11.582031 14.882812 11.507812 14.882812 11.417969 C 14.882812 11.328125 14.957031 11.253906 15.042969 11.253906 Z M 15.042969 11.253906 " fill-opacity="1" fill-rule="nonzero"/><path fill="#000000" d="M 18.359375 11.746094 C 18.542969 11.746094 18.6875 11.597656 18.6875 11.417969 C 18.6875 11.234375 18.542969 11.089844 18.359375 11.089844 C 18.179688 11.089844 18.035156 11.234375 18.035156 11.417969 C 18.035156 11.597656 18.179688 11.746094 18.359375 11.746094 Z M 18.359375 11.253906 C 18.449219 11.253906 18.523438 11.328125 18.523438 11.417969 C 18.523438 11.507812 18.449219 11.582031 18.359375 11.582031 C 18.273438 11.582031 18.199219 11.507812 18.199219 11.417969 C 18.199219 11.328125 18.273438 11.253906 18.359375 11.253906 Z M 18.359375 11.253906 " fill-opacity="1" fill-rule="nonzero"/><path fill="#000000" d="M 26.132812 13.011719 C 26.316406 13.011719 26.460938 12.863281 26.460938 12.683594 C 26.460938 12.5 26.316406 12.355469 26.132812 12.355469 C 25.953125 12.355469 25.808594 12.5 25.808594 12.683594 C 25.808594 12.863281 25.953125 13.011719 26.132812 13.011719 Z M 26.132812 12.519531 C 26.222656 12.519531 26.296875 12.59375 26.296875 12.683594 C 26.296875 12.773438 26.222656 12.84375 26.132812 12.84375 C 26.046875 12.84375 25.972656 12.773438 25.972656 12.683594 C 25.972656 12.59375 26.046875 12.519531 26.132812 12.519531 Z M 26.132812 12.519531 " fill-opacity="1" fill-rule="nonzero"/><path fill="#000000" d="M 13.84375 16.839844 C 14.023438 16.839844 14.171875 16.691406 14.171875 16.507812 C 14.171875 16.328125 14.023438 16.179688 13.84375 16.179688 C 13.660156 16.179688 13.515625 16.328125 13.515625 16.507812 C 13.515625 16.691406 13.660156 16.839844 13.84375 16.839844 Z M 13.84375 16.347656 C 13.933594 16.347656 14.003906 16.421875 14.003906 16.507812 C 14.003906 16.597656 13.933594 16.671875 13.84375 16.671875 C 13.753906 16.671875 13.679688 16.597656 13.679688 16.507812 C 13.679688 16.421875 13.753906 16.347656 13.84375 16.347656 Z M 13.84375 16.347656 " fill-opacity="1" fill-rule="nonzero"/><path fill="#000000" d="M 18.542969 15.511719 C 18.542969 15.765625 18.75 15.972656 19.003906 15.972656 C 19.257812 15.972656 19.464844 15.765625 19.464844 15.511719 C 19.464844 15.257812 19.257812 15.050781 19.003906 15.050781 C 18.75 15.050781 18.542969 15.257812 18.542969 15.511719 Z M 19.003906 15.214844 C 19.164062 15.214844 19.296875 15.347656 19.296875 15.511719 C 19.296875 15.671875 19.164062 15.804688 19.003906 15.804688 C 18.84375 15.804688 18.710938 15.671875 18.710938 15.511719 C 18.710938 15.347656 18.84375 15.214844 19.003906 15.214844 Z M 19.003906 15.214844 " fill-opacity="1" fill-rule="nonzero"/><path fill="#000000" d="M 21.875 11.152344 C 22.128906 11.152344 22.335938 10.945312 22.335938 10.6875 C 22.335938 10.433594 22.128906 10.226562 21.875 10.226562 C 21.621094 10.226562 21.414062 10.433594 21.414062 10.6875 C 21.414062 10.945312 21.621094 11.152344 21.875 11.152344 Z M 21.875 10.394531 C 22.035156 10.394531 22.167969 10.527344 22.167969 10.6875 C 22.167969 10.851562 22.035156 10.984375 21.875 10.984375 C 21.714844 10.984375 21.582031 10.851562 21.582031 10.6875 C 21.582031 10.527344 21.714844 10.394531 21.875 10.394531 Z M 21.875 10.394531 " fill-opacity="1" fill-rule="nonzero"/><path fill="#000000" d="M 25.621094 14.203125 C 25.875 14.203125 26.082031 13.996094 26.082031 13.742188 C 26.082031 13.488281 25.875 13.28125 25.621094 13.28125 C 25.371094 13.28125 25.164062 13.488281 25.164062 13.742188 C 25.164062 13.996094 25.371094 14.203125 25.621094 14.203125 Z M 25.621094 13.449219 C 25.785156 13.449219 25.917969 13.578125 25.917969 13.742188 C 25.917969 13.90625 25.785156 14.035156 25.621094 14.035156 C 25.460938 14.035156 25.328125 13.90625 25.328125 13.742188 C 25.328125 13.578125 25.460938 13.449219 25.621094 13.449219 Z M 25.621094 13.449219 " fill-opacity="1" fill-rule="nonzero"/><path fill="#000000" d="M 20.363281 15.871094 C 20.617188 15.871094 20.820312 15.664062 20.820312 15.40625 C 20.820312 15.152344 20.617188 14.945312 20.363281 14.945312 C 20.109375 14.945312 19.902344 15.152344 19.902344 15.40625 C 19.902344 15.664062 20.109375 15.871094 20.363281 15.871094 Z M 20.363281 15.113281 C 20.523438 15.113281 20.65625 15.246094 20.65625 15.40625 C 20.65625 15.570312 20.523438 15.703125 20.363281 15.703125 C 20.199219 15.703125 20.070312 15.570312 20.070312 15.40625 C 20.070312 15.246094 20.199219 15.113281 20.363281 15.113281 Z M 20.363281 15.113281 " fill-opacity="1" fill-rule="nonzero"/><path fill="#000000" d="M 16.855469 17.082031 C 16.855469 17.335938 17.0625 17.542969 17.316406 17.542969 C 17.570312 17.542969 17.777344 17.335938 17.777344 17.082031 C 17.777344 16.828125 17.570312 16.621094 17.316406 16.621094 C 17.0625 16.621094 16.855469 16.828125 16.855469 17.082031 Z M 17.316406 17.375 C 17.15625 17.375 17.023438 17.242188 17.023438 17.082031 C 17.023438 16.917969 17.15625 16.785156 17.316406 16.785156 C 17.476562 16.785156 17.609375 16.917969 17.609375 17.082031 C 17.609375 17.242188 17.476562 17.375 17.316406 17.375 Z M 17.316406 17.375 " fill-opacity="1" fill-rule="nonzero"/><path fill="#000000" d="M 20.472656 13.609375 C 20.726562 13.609375 20.933594 13.402344 20.933594 13.148438 C 20.933594 12.894531 20.726562 12.6875 20.472656 12.6875 C 20.21875 12.6875 20.011719 12.894531 20.011719 13.148438 C 20.011719 13.402344 20.21875 13.609375 20.472656 13.609375 Z M 20.472656 12.851562 C 20.632812 12.851562 20.765625 12.984375 20.765625 13.148438 C 20.765625 13.308594 20.632812 13.441406 20.472656 13.441406 C 20.3125 13.441406 20.179688 13.308594 20.179688 13.148438 C 20.179688 12.984375 20.3125 12.851562 20.472656 12.851562 Z M 20.472656 12.851562 " fill-opacity="1" fill-rule="nonzero"/><path fill="#000000" d="M 16.445312 14.011719 C 16.699219 14.011719 16.90625 13.804688 16.90625 13.550781 C 16.90625 13.296875 16.699219 13.089844 16.445312 13.089844 C 16.195312 13.089844 15.988281 13.296875 15.988281 13.550781 C 15.988281 13.804688 16.195312 14.011719 16.445312 14.011719 Z M 16.445312 13.257812 C 16.609375 13.257812 16.742188 13.390625 16.742188 13.550781 C 16.742188 13.714844 16.609375 13.847656 16.445312 13.847656 C 16.285156 13.847656 16.152344 13.714844 16.152344 13.550781 C 16.152344 13.390625 16.285156 13.257812 16.445312 13.257812 Z M 16.445312 13.257812 " fill-opacity="1" fill-rule="nonzero"/><path fill="#000000" d="M 29.152344 12.582031 C 29.40625 12.582031 29.609375 12.375 29.609375 12.121094 C 29.609375 11.867188 29.40625 11.660156 29.152344 11.660156 C 28.898438 11.660156 28.691406 11.867188 28.691406 12.121094 C 28.691406 12.375 28.898438 12.582031 29.152344 12.582031 Z M 29.152344 11.824219 C 29.3125 11.824219 29.445312 11.957031 29.445312 12.121094 C 29.445312 12.28125 29.3125 12.414062 29.152344 12.414062 C 28.988281 12.414062 28.859375 12.28125 28.859375 12.121094 C 28.859375 11.957031 28.988281 11.824219 29.152344 11.824219 Z M 29.152344 11.824219 " fill-opacity="1" fill-rule="nonzero"/><path fill="#000000" d="M 23.488281 13.316406 C 23.742188 13.316406 23.949219 13.109375 23.949219 12.855469 C 23.949219 12.601562 23.742188 12.394531 23.488281 12.394531 C 23.238281 12.394531 23.03125 12.601562 23.03125 12.855469 C 23.03125 13.109375 23.238281 13.316406 23.488281 13.316406 Z M 23.785156 12.855469 C 23.785156 13.019531 23.652344 13.152344 23.488281 13.152344 C 23.328125 13.152344 23.195312 13.019531 23.195312 12.855469 C 23.195312 12.695312 23.328125 12.5625 23.488281 12.5625 C 23.652344 12.5625 23.785156 12.695312 23.785156 12.855469 Z M 23.785156 12.855469 " fill-opacity="1" fill-rule="nonzero"/><path fill="#000000" d="M 25.292969 19.3125 C 25.546875 19.3125 25.753906 19.105469 25.753906 18.851562 C 25.753906 18.59375 25.546875 18.386719 25.292969 18.386719 C 25.039062 18.386719 24.835938 18.59375 24.835938 18.851562 C 24.835938 19.105469 25.039062 19.3125 25.292969 19.3125 Z M 25.292969 18.554688 C 25.457031 18.554688 25.585938 18.6875 25.585938 18.851562 C 25.585938 19.011719 25.457031 19.144531 25.292969 19.144531 C 25.132812 19.144531 25 19.011719 25 18.851562 C 25 18.6875 25.132812 18.554688 25.292969 18.554688 Z M 25.292969 18.554688 " fill-opacity="1" fill-rule="nonzero"/><path fill="#000000" d="M 25.675781 17.585938 C 25.925781 17.585938 26.132812 17.378906 26.132812 17.125 C 26.132812 16.871094 25.925781 16.664062 25.675781 16.664062 C 25.421875 16.664062 25.214844 16.871094 25.214844 17.125 C 25.214844 17.378906 25.421875 17.585938 25.675781 17.585938 Z M 25.675781 16.832031 C 25.835938 16.832031 25.96875 16.960938 25.96875 17.125 C 25.96875 17.289062 25.835938 17.417969 25.675781 17.417969 C 25.511719 17.417969 25.378906 17.289062 25.378906 17.125 C 25.378906 16.960938 25.511719 16.832031 25.675781 16.832031 Z M 25.675781 16.832031 " fill-opacity="1" fill-rule="nonzero"/><path fill="#000000" d="M 23.765625 17.132812 C 24.019531 17.132812 24.226562 16.925781 24.226562 16.671875 C 24.226562 16.414062 24.019531 16.207031 23.765625 16.207031 C 23.515625 16.207031 23.308594 16.414062 23.308594 16.671875 C 23.308594 16.925781 23.515625 17.132812 23.765625 17.132812 Z M 23.765625 16.375 C 23.929688 16.375 24.0625 16.507812 24.0625 16.671875 C 24.0625 16.832031 23.929688 16.964844 23.765625 16.964844 C 23.605469 16.964844 23.472656 16.832031 23.472656 16.671875 C 23.472656 16.507812 23.605469 16.375 23.765625 16.375 Z M 23.765625 16.375 " fill-opacity="1" fill-rule="nonzero"/><path fill="#000000" d="M 30.5 19.367188 C 30.753906 19.367188 30.957031 19.160156 30.957031 18.90625 C 30.957031 18.652344 30.753906 18.445312 30.5 18.445312 C 30.246094 18.445312 30.039062 18.652344 30.039062 18.90625 C 30.039062 19.160156 30.246094 19.367188 30.5 19.367188 Z M 30.5 18.609375 C 30.660156 18.609375 30.792969 18.742188 30.792969 18.90625 C 30.792969 19.066406 30.660156 19.199219 30.5 19.199219 C 30.335938 19.199219 30.207031 19.066406 30.207031 18.90625 C 30.207031 18.742188 30.335938 18.609375 30.5 18.609375 Z M 30.5 18.609375 " fill-opacity="1" fill-rule="nonzero"/></svg>