<svg xmlns="http://www.w3.org/2000/svg" xmlns:xlink="http://www.w3.org/1999/xlink" width="50" zoomAndPan="magnify" viewBox="0 0 37.5 37.499999" height="50" preserveAspectRatio="xMidYMid meet" version="1.0"><defs><clipPath id="6e1d11f8ad"><path d="M 1.265625 9.796875 L 36.050781 9.796875 L 36.050781 27.5625 L 1.265625 27.5625 Z M 1.265625 9.796875 " clip-rule="nonzero"/></clipPath></defs><g clip-path="url(#6e1d11f8ad)"><path fill="#000000" d="M 19.933594 11.285156 L 18.234375 12.457031 C 18.207031 12.476562 18.191406 12.503906 18.191406 12.535156 L 18.1875 12.816406 L 18.375 12.820312 L 18.375 12.585938 L 20.078125 11.410156 C 20.101562 11.394531 20.117188 11.363281 20.117188 11.335938 L 20.128906 10.421875 C 20.128906 10.371094 20.085938 10.328125 20.035156 10.328125 L 19.773438 10.324219 L 19.773438 10.511719 L 19.941406 10.511719 Z M 9.847656 16.472656 L 11.269531 15.457031 L 11.042969 15.136719 L 9.621094 16.148438 Z M 19.734375 9.84375 L 15.925781 9.796875 L 15.910156 10.960938 L 19.722656 11.007812 Z M 21.191406 15.328125 C 21.226562 15.203125 21.238281 15.074219 21.179688 14.972656 C 21.117188 14.867188 20.96875 14.78125 20.964844 14.65625 C 20.960938 14.453125 21.191406 14.394531 21.160156 14.191406 C 21.039062 14.253906 20.921875 14.25 20.855469 14.410156 C 20.730469 14.710938 20.847656 14.789062 21.03125 15.058594 C 21.066406 15.109375 21.027344 15.175781 21.015625 15.230469 C 20.996094 15.300781 21.167969 15.382812 21.191406 15.328125 Z M 29.460938 18.175781 C 31.296875 17.613281 31.179688 16.234375 31.171875 16.15625 L 31.171875 16.152344 C 31.171875 16.152344 31.171875 16.152344 31.167969 16.152344 C 31.101562 16.105469 29.949219 15.355469 28.601562 16.734375 L 29.046875 17.457031 Z M 30.589844 17.363281 C 30.644531 17.304688 30.6875 17.238281 30.730469 17.171875 C 30.777344 17.109375 30.808594 17.039062 30.847656 16.972656 C 30.886719 16.910156 30.90625 16.839844 30.9375 16.78125 C 30.96875 16.71875 30.984375 16.65625 31.003906 16.601562 C 31.023438 16.542969 31.046875 16.492188 31.054688 16.445312 C 31.066406 16.394531 31.074219 16.355469 31.085938 16.320312 C 31.101562 16.25 31.113281 16.210938 31.113281 16.210938 L 31.117188 16.210938 C 31.117188 16.210938 31.117188 16.253906 31.109375 16.324219 C 31.105469 16.359375 31.101562 16.402344 31.097656 16.453125 C 31.09375 16.503906 31.078125 16.558594 31.0625 16.617188 C 31.046875 16.675781 31.035156 16.742188 31.003906 16.808594 C 30.992188 16.839844 30.980469 16.875 30.964844 16.910156 C 30.953125 16.945312 30.9375 16.980469 30.917969 17.011719 C 30.875 17.078125 30.84375 17.152344 30.789062 17.214844 C 30.742188 17.277344 30.695312 17.347656 30.636719 17.402344 C 30.605469 17.433594 30.582031 17.464844 30.550781 17.492188 C 30.519531 17.519531 30.492188 17.546875 30.460938 17.574219 C 30.402344 17.628906 30.335938 17.671875 30.277344 17.71875 C 30.210938 17.757812 30.152344 17.800781 30.089844 17.832031 C 30.027344 17.867188 29.96875 17.898438 29.914062 17.921875 C 29.859375 17.949219 29.804688 17.964844 29.761719 17.984375 C 29.714844 18 29.671875 18.015625 29.640625 18.023438 C 29.570312 18.042969 29.53125 18.050781 29.53125 18.050781 L 29.53125 18.042969 C 29.53125 18.042969 29.570312 18.035156 29.636719 18.011719 C 29.667969 18 29.707031 17.984375 29.753906 17.964844 C 29.796875 17.945312 29.847656 17.925781 29.902344 17.898438 C 29.957031 17.871094 30.011719 17.839844 30.070312 17.800781 C 30.128906 17.769531 30.1875 17.722656 30.25 17.683594 C 30.308594 17.632812 30.371094 17.589844 30.425781 17.535156 C 30.453125 17.507812 30.484375 17.480469 30.511719 17.453125 C 30.539062 17.421875 30.5625 17.390625 30.589844 17.363281 Z M 29.292969 17.25 C 29.347656 17.203125 29.417969 17.152344 29.492188 17.105469 C 29.574219 17.0625 29.660156 17.019531 29.746094 16.972656 C 29.917969 16.882812 30.085938 16.792969 30.21875 16.726562 C 30.347656 16.660156 30.433594 16.617188 30.433594 16.617188 L 30.441406 16.628906 C 30.441406 16.628906 30.363281 16.6875 30.246094 16.773438 C 30.128906 16.859375 29.96875 16.96875 29.808594 17.078125 C 29.730469 17.132812 29.652344 17.195312 29.574219 17.242188 C 29.496094 17.289062 29.421875 17.328125 29.355469 17.355469 C 29.21875 17.414062 29.121094 17.4375 29.121094 17.4375 L 29.113281 17.421875 C 29.113281 17.421875 29.175781 17.34375 29.292969 17.25 Z M 20.789062 14.488281 C 20.796875 14.460938 20.808594 14.425781 20.820312 14.394531 C 20.875 14.261719 20.964844 14.230469 21.050781 14.199219 C 21.078125 14.1875 21.105469 14.175781 21.136719 14.160156 L 22.628906 12.121094 L 21.191406 14.171875 C 21.195312 14.175781 21.195312 14.179688 21.199219 14.183594 C 21.214844 14.308594 21.152344 14.386719 21.097656 14.453125 C 21.082031 14.472656 21.066406 14.488281 21.054688 14.507812 C 21.335938 14.445312 21.785156 14.222656 21.964844 13.890625 C 22.308594 13.261719 22.515625 12.664062 22.820312 12 C 22.886719 11.859375 22.777344 11.78125 22.65625 11.882812 C 22.023438 12.425781 21.394531 12.960938 20.835938 13.566406 C 20.558594 13.859375 20.554688 14.355469 20.789062 14.488281 Z M 29.113281 17.648438 L 28.898438 17.289062 L 28.253906 17.679688 L 28.46875 18.042969 Z M 9.519531 16.019531 L 10.921875 15.019531 C 10.921875 15.019531 10.828125 14.683594 10.34375 14.292969 C 10.164062 14.148438 9.925781 14.109375 9.714844 14.148438 C 9.886719 14.214844 9.96875 14.320312 9.96875 14.320312 C 9.785156 14.152344 9.503906 14.210938 9.429688 14.234375 C 9.253906 14.308594 9.082031 14.414062 8.933594 14.523438 C 9.164062 14.53125 9.308594 14.75 9.308594 14.75 C 9.015625 14.507812 8.671875 14.746094 8.589844 14.808594 C 8.511719 14.878906 8.46875 14.925781 8.46875 14.925781 C 8.96875 14.765625 9.519531 16.019531 9.519531 16.019531 Z M 17.804688 20.34375 L 17.78125 20.320312 L 17.753906 20.34375 L 15.867188 21.8125 L 14.699219 22.722656 L 14.601562 22.800781 L 20.957031 22.800781 L 20.859375 22.722656 Z M 14.847656 22.714844 L 15.917969 21.882812 L 17.78125 20.429688 L 20.710938 22.714844 Z M 21.136719 25.285156 L 22.546875 25.285156 L 22.546875 23.210938 L 21.136719 23.210938 Z M 17.675781 20.957031 L 17.675781 21.117188 C 17.535156 21.152344 17.425781 21.265625 17.390625 21.40625 L 17.230469 21.40625 L 17.230469 21.613281 L 17.390625 21.613281 C 17.425781 21.757812 17.535156 21.867188 17.675781 21.90625 L 17.675781 22.066406 L 17.882812 22.066406 L 17.882812 21.90625 C 18.023438 21.867188 18.132812 21.757812 18.167969 21.613281 L 18.328125 21.613281 L 18.328125 21.40625 L 18.167969 21.40625 C 18.132812 21.265625 18.023438 21.152344 17.882812 21.117188 L 17.882812 20.957031 Z M 18.105469 21.449219 L 18.113281 21.480469 L 18.253906 21.480469 L 18.253906 21.542969 L 18.113281 21.542969 L 18.105469 21.570312 C 18.082031 21.707031 17.976562 21.816406 17.839844 21.84375 L 17.808594 21.847656 L 17.808594 21.992188 L 17.75 21.992188 L 17.75 21.847656 L 17.71875 21.84375 C 17.585938 21.816406 17.476562 21.707031 17.453125 21.570312 L 17.445312 21.542969 L 17.304688 21.542969 L 17.304688 21.480469 L 17.445312 21.480469 L 17.453125 21.449219 C 17.476562 21.3125 17.585938 21.203125 17.71875 21.179688 L 17.75 21.175781 L 17.75 21.03125 L 17.808594 21.03125 L 17.808594 21.175781 L 17.839844 21.179688 C 17.976562 21.203125 18.082031 21.3125 18.105469 21.449219 Z M 32.316406 23.589844 C 32.042969 23.703125 32.046875 23.890625 31.9375 23.933594 C 31.9375 23.933594 30.105469 24.625 29.464844 24.863281 C 29.386719 24.507812 29.292969 24.15625 29.1875 23.804688 L 30.265625 22.859375 L 29.480469 22.242188 L 28.546875 22.179688 C 28.535156 22.152344 28.519531 22.125 28.507812 22.09375 L 29.511719 22.164062 L 30.328125 22.808594 L 36.050781 17.800781 L 35.582031 17.253906 L 35.5 17.207031 L 35.5 17.3125 L 35.496094 17.316406 L 35.402344 17.265625 L 35.402344 17.371094 L 35.398438 17.375 L 35.304688 17.324219 L 35.304688 17.429688 L 35.300781 17.433594 L 35.207031 17.378906 L 35.207031 17.488281 L 35.203125 17.492188 L 35.109375 17.4375 L 35.109375 17.542969 L 35.105469 17.546875 L 35.011719 17.496094 L 35.011719 17.601562 L 35.003906 17.605469 L 34.914062 17.554688 L 34.914062 17.660156 L 34.910156 17.664062 L 34.816406 17.609375 L 34.816406 17.71875 L 34.8125 17.722656 L 34.71875 17.667969 L 34.71875 17.773438 L 34.714844 17.777344 L 34.621094 17.726562 L 34.621094 17.832031 L 34.613281 17.835938 L 34.523438 17.785156 L 34.523438 17.890625 L 34.515625 17.894531 L 34.425781 17.839844 L 34.425781 17.949219 L 34.417969 17.953125 L 34.328125 17.898438 L 34.328125 18.003906 L 34.320312 18.011719 L 34.230469 17.957031 L 34.230469 18.0625 L 34.222656 18.066406 L 34.132812 18.015625 L 34.132812 18.121094 L 34.125 18.125 L 34.035156 18.074219 L 34.035156 18.179688 L 34.027344 18.183594 L 33.9375 18.128906 L 33.9375 18.234375 L 33.929688 18.242188 L 33.839844 18.1875 L 33.839844 18.292969 L 33.832031 18.296875 L 33.742188 18.246094 L 33.742188 18.351562 L 33.734375 18.355469 L 33.644531 18.304688 L 33.644531 18.410156 L 33.636719 18.414062 L 33.546875 18.363281 L 33.546875 18.464844 L 33.539062 18.472656 L 33.449219 18.417969 L 33.449219 18.523438 L 33.441406 18.527344 L 33.351562 18.476562 L 33.351562 18.582031 L 33.34375 18.585938 L 33.253906 18.535156 L 33.253906 18.640625 L 33.246094 18.644531 L 33.15625 18.59375 L 33.15625 18.695312 L 33.148438 18.703125 L 33.058594 18.648438 L 33.058594 18.753906 L 33.050781 18.757812 L 32.960938 18.707031 L 32.960938 18.8125 L 32.953125 18.816406 L 32.863281 18.765625 L 32.863281 18.871094 L 32.855469 18.875 L 32.765625 18.824219 L 32.765625 18.925781 L 32.757812 18.933594 L 32.667969 18.882812 L 32.667969 18.984375 L 32.660156 18.992188 L 32.570312 18.9375 L 32.570312 19.042969 L 32.5625 19.046875 L 32.472656 18.996094 L 32.472656 19.101562 L 32.464844 19.105469 L 32.375 19.054688 L 32.375 19.160156 L 32.367188 19.164062 L 32.277344 19.113281 L 32.277344 19.214844 L 32.269531 19.222656 L 32.179688 19.171875 L 32.179688 19.273438 L 32.171875 19.277344 L 32.082031 19.226562 L 32.082031 19.332031 L 32.074219 19.335938 L 31.984375 19.285156 L 31.984375 19.390625 L 31.976562 19.394531 L 31.886719 19.34375 L 31.886719 19.445312 L 31.878906 19.453125 L 31.789062 19.402344 L 31.789062 19.503906 L 31.78125 19.511719 L 31.691406 19.460938 L 31.691406 19.5625 L 31.683594 19.566406 L 31.59375 19.515625 L 31.59375 19.621094 L 31.585938 19.625 L 31.496094 19.574219 L 31.496094 19.675781 L 31.488281 19.683594 L 31.398438 19.632812 L 31.398438 19.734375 L 31.386719 19.742188 L 31.300781 19.691406 L 31.300781 19.792969 L 31.292969 19.800781 L 31.203125 19.75 L 31.203125 19.851562 L 31.195312 19.855469 L 31.105469 19.804688 L 31.105469 19.90625 L 31.097656 19.914062 L 31.007812 19.863281 L 31.007812 19.964844 L 30.996094 19.972656 L 30.910156 19.921875 L 30.910156 20.023438 L 30.898438 20.03125 L 30.8125 19.980469 L 30.8125 20.082031 L 30.800781 20.085938 L 30.714844 20.039062 L 30.714844 20.140625 L 30.703125 20.144531 L 30.617188 20.09375 L 30.617188 20.195312 L 30.605469 20.203125 L 30.519531 20.152344 L 30.519531 20.253906 L 30.507812 20.261719 L 30.421875 20.210938 L 30.421875 20.3125 L 30.410156 20.320312 L 30.324219 20.269531 L 30.324219 20.371094 L 30.3125 20.375 L 30.226562 20.328125 L 30.226562 20.425781 L 30.214844 20.433594 L 30.128906 20.382812 L 30.128906 20.484375 L 30.117188 20.492188 L 30.03125 20.441406 L 30.03125 20.542969 L 30.019531 20.550781 L 29.933594 20.5 L 29.933594 20.601562 L 29.921875 20.605469 L 29.835938 20.558594 L 29.835938 20.65625 L 29.824219 20.664062 L 29.738281 20.617188 L 29.738281 20.714844 L 29.726562 20.722656 L 29.640625 20.671875 L 29.640625 20.773438 L 29.628906 20.78125 L 29.542969 20.730469 L 29.542969 20.832031 L 29.53125 20.839844 L 29.445312 20.789062 L 29.445312 20.886719 L 29.433594 20.894531 L 29.347656 20.847656 L 29.347656 20.945312 L 29.335938 20.953125 L 29.25 20.90625 L 29.25 21.003906 L 29.238281 21.011719 L 29.152344 20.960938 L 29.152344 21.0625 L 29.140625 21.070312 L 29.054688 21.019531 L 29.054688 21.121094 L 29.042969 21.128906 L 28.957031 21.078125 L 28.957031 21.175781 L 28.945312 21.183594 L 28.859375 21.136719 L 28.859375 21.234375 L 28.847656 21.242188 L 28.761719 21.195312 L 28.761719 21.292969 L 28.75 21.300781 L 28.664062 21.25 L 28.664062 21.351562 L 28.652344 21.359375 L 28.566406 21.308594 L 28.566406 21.40625 L 28.554688 21.414062 L 28.46875 21.367188 L 28.46875 21.464844 L 28.457031 21.472656 L 28.371094 21.425781 L 28.371094 21.523438 L 28.359375 21.53125 L 28.273438 21.484375 L 28.273438 21.582031 L 28.261719 21.589844 L 28.238281 21.574219 C 27.753906 20.695312 27.164062 19.882812 26.472656 19.144531 L 28.382812 17.980469 L 28.269531 17.785156 L 26.3125 18.976562 C 26.289062 18.953125 26.265625 18.925781 26.242188 18.902344 C 26.003906 18.664062 25.761719 18.4375 25.511719 18.222656 L 26.976562 16.441406 L 26.980469 16.441406 C 26.980469 16.441406 26.980469 16.4375 26.980469 16.4375 C 27.019531 16.390625 27.097656 16.398438 27.160156 16.449219 C 27.160156 16.449219 27.160156 16.449219 27.164062 16.449219 C 27.175781 16.429688 27.175781 16.402344 27.164062 16.390625 L 26.921875 16.1875 C 26.910156 16.175781 26.882812 16.183594 26.863281 16.199219 C 26.867188 16.203125 26.867188 16.203125 26.867188 16.203125 C 26.929688 16.253906 26.949219 16.332031 26.910156 16.378906 C 26.910156 16.378906 26.910156 16.378906 26.910156 16.382812 L 26.867188 16.433594 C 26.875 16.441406 26.882812 16.449219 26.882812 16.449219 C 26.878906 16.449219 26.871094 16.445312 26.863281 16.4375 L 26.851562 16.453125 C 26.859375 16.460938 26.867188 16.46875 26.863281 16.46875 C 26.863281 16.46875 26.855469 16.464844 26.847656 16.457031 L 26.832031 16.472656 C 26.84375 16.480469 26.847656 16.488281 26.847656 16.488281 C 26.847656 16.488281 26.839844 16.484375 26.832031 16.476562 L 26.816406 16.492188 C 26.824219 16.5 26.832031 16.507812 26.832031 16.507812 C 26.832031 16.507812 26.824219 16.503906 26.8125 16.496094 L 26.800781 16.511719 C 26.808594 16.519531 26.816406 16.527344 26.816406 16.527344 C 26.816406 16.527344 26.808594 16.523438 26.796875 16.515625 L 26.785156 16.53125 C 26.792969 16.539062 26.800781 16.546875 26.800781 16.546875 C 26.796875 16.550781 26.789062 16.542969 26.78125 16.535156 L 26.765625 16.550781 C 26.777344 16.5625 26.785156 16.566406 26.78125 16.566406 C 26.78125 16.570312 26.773438 16.5625 26.765625 16.554688 L 25.441406 18.160156 C 24.957031 17.753906 24.441406 17.382812 23.902344 17.058594 C 23.914062 16.996094 23.882812 16.914062 23.875 16.851562 C 23.886719 16.824219 23.902344 16.796875 23.917969 16.785156 C 24.226562 16.507812 24.417969 16.191406 24.59375 15.890625 C 24.667969 15.761719 24.796875 15.820312 24.917969 15.953125 C 25.0625 16.113281 25.214844 16.214844 25.433594 16.246094 C 25.480469 16.257812 25.488281 16.265625 25.507812 16.21875 C 25.53125 16.226562 25.578125 16.214844 25.59375 16.195312 C 25.738281 16.242188 25.976562 15.925781 25.980469 15.835938 C 25.984375 15.816406 25.964844 15.820312 25.976562 15.804688 C 25.996094 15.785156 26.003906 15.761719 26 15.730469 C 26.035156 15.753906 26.042969 15.683594 26.023438 15.648438 C 25.914062 15.472656 25.773438 15.316406 25.644531 15.148438 C 25.621094 15.097656 25.582031 14.984375 25.527344 14.964844 C 25.449219 14.933594 25.382812 14.894531 25.324219 14.851562 C 25.332031 14.84375 25.300781 14.800781 25.246094 14.746094 C 25.25 14.734375 25.253906 14.722656 25.242188 14.710938 L 25.210938 14.683594 C 25.203125 14.675781 25.195312 14.683594 25.183594 14.6875 C 25.125 14.632812 25.078125 14.601562 25.070312 14.609375 C 25.070312 14.609375 25.066406 14.609375 25.066406 14.609375 C 25.023438 14.558594 24.972656 14.503906 24.921875 14.449219 C 24.867188 14.292969 24.792969 14.289062 24.675781 14.246094 L 24.542969 14.148438 L 24.40625 14.046875 C 24.347656 14.101562 24.289062 14.160156 24.234375 14.214844 L 24.222656 14.203125 C 24.265625 14.15625 24.308594 14.105469 24.351562 14.054688 L 24.066406 13.761719 C 24.027344 13.722656 23.980469 13.691406 23.929688 13.667969 L 23.703125 13.5625 L 23.660156 13.609375 L 23.628906 13.585938 C 23.617188 13.597656 23.601562 13.609375 23.589844 13.621094 L 23.464844 13.535156 L 23.4375 13.5625 L 23.21875 13.339844 L 23.179688 13.324219 L 23.195312 13.363281 L 23.417969 13.585938 L 23.398438 13.605469 L 23.464844 13.75 C 23.457031 13.757812 23.453125 13.761719 23.449219 13.769531 L 23.472656 13.800781 L 23.429688 13.847656 L 23.527344 14.074219 C 23.546875 14.125 23.582031 14.175781 23.621094 14.214844 L 23.90625 14.511719 C 23.957031 14.464844 24.007812 14.417969 24.054688 14.371094 L 24.066406 14.382812 C 24.011719 14.4375 23.957031 14.496094 23.902344 14.554688 L 24.011719 14.703125 L 24.09375 14.835938 L 24.101562 14.828125 C 24.136719 14.898438 24.164062 14.9375 24.160156 15.023438 C 24.207031 15.078125 24.242188 15.117188 24.261719 15.152344 C 24.265625 15.164062 24.269531 15.175781 24.269531 15.1875 L 24.15625 15.050781 C 24.140625 15.027344 24.132812 15.027344 24.117188 15.050781 C 24.0625 15.160156 23.988281 15.222656 23.890625 15.257812 C 23.875 15.261719 23.878906 15.28125 23.886719 15.292969 L 23.984375 15.410156 C 23.957031 15.394531 23.917969 15.375 23.914062 15.414062 C 23.910156 15.453125 24.015625 15.539062 23.96875 15.589844 C 23.792969 15.789062 23.742188 16.082031 23.558594 16.269531 C 23.496094 16.320312 23.4375 16.335938 23.378906 16.335938 C 23.332031 16.332031 23.296875 16.320312 23.265625 16.292969 L 23.230469 16.328125 C 23.117188 16.242188 22.996094 16.171875 22.871094 16.152344 C 22.839844 16.148438 22.808594 16.179688 22.78125 16.199219 L 22.484375 16.214844 C 22.4375 16.21875 22.398438 16.242188 22.359375 16.277344 C 21.949219 16.105469 21.535156 15.960938 21.109375 15.835938 C 21.128906 15.796875 21.144531 15.757812 21.160156 15.71875 C 21.171875 15.707031 21.167969 15.683594 21.15625 15.664062 L 21.277344 15.386719 C 21.292969 15.363281 21.273438 15.332031 21.238281 15.300781 C 21.234375 15.316406 21.230469 15.328125 21.230469 15.34375 C 21.226562 15.34375 21.226562 15.347656 21.226562 15.347656 C 21.210938 15.378906 21.171875 15.402344 21.097656 15.375 C 21.058594 15.359375 21.027344 15.335938 21.003906 15.308594 C 20.984375 15.285156 20.972656 15.253906 20.984375 15.222656 C 20.984375 15.21875 20.992188 15.195312 20.992188 15.183594 C 20.976562 15.183594 20.964844 15.1875 20.953125 15.199219 C 20.949219 15.203125 20.949219 15.203125 20.945312 15.210938 C 20.945312 15.210938 20.792969 15.5 20.792969 15.5 C 20.78125 15.503906 20.769531 15.511719 20.765625 15.519531 C 20.761719 15.519531 20.761719 15.523438 20.761719 15.523438 C 20.761719 15.523438 20.757812 15.527344 20.757812 15.527344 C 20.757812 15.527344 20.757812 15.53125 20.757812 15.53125 C 20.71875 15.589844 20.679688 15.652344 20.640625 15.710938 C 19.957031 15.542969 19.261719 15.433594 18.550781 15.390625 L 18.578125 13.132812 L 18.777344 12.871094 L 17.722656 12.859375 L 17.917969 13.125 L 17.890625 15.367188 C 17.863281 15.367188 17.832031 15.367188 17.804688 15.367188 C 17.269531 15.367188 16.738281 15.402344 16.214844 15.472656 L 16.199219 15.441406 C 16.199219 15.441406 15.925781 15.183594 15.796875 14.917969 C 15.753906 14.824219 15.796875 14.5625 15.796875 14.5625 L 15.6875 14.316406 L 15.488281 14.402344 L 14.730469 12.648438 L 14.75 12.523438 L 14.578125 12.074219 L 14.421875 12.140625 L 14.414062 12.144531 L 14.410156 12.148438 L 14.253906 12.214844 L 14.460938 12.652344 L 14.566406 12.71875 L 15.328125 14.472656 L 15.128906 14.5625 L 15.230469 14.8125 C 15.230469 14.8125 15.453125 14.957031 15.492188 15.054688 C 15.558594 15.226562 15.582031 15.4375 15.59375 15.574219 C 15.105469 15.667969 14.621094 15.789062 14.148438 15.945312 C 13.800781 15.351562 13.34375 14.578125 13.285156 14.472656 C 13.183594 14.304688 13.449219 14.03125 13.21875 13.636719 C 13.109375 13.453125 12.863281 13.257812 12.667969 13.257812 L 12.894531 13.644531 C 12.980469 13.785156 12.949219 13.925781 12.777344 14.03125 C 12.601562 14.136719 12.46875 14.09375 12.382812 13.953125 L 12.214844 13.667969 C 12.125 13.84375 12.117188 14.050781 12.222656 14.234375 C 12.453125 14.628906 12.820312 14.523438 12.917969 14.695312 C 12.976562 14.792969 13.398438 15.507812 13.738281 16.085938 C 13.542969 16.15625 13.351562 16.234375 13.164062 16.316406 C 12.625 16.546875 12.109375 16.8125 11.613281 17.117188 C 11.433594 16.859375 11.273438 16.625 11.234375 16.558594 C 10.964844 16.121094 11.226562 15.785156 11.390625 15.632812 L 11.386719 15.628906 L 9.992188 16.625 L 9.996094 16.628906 C 10.191406 16.523438 10.59375 16.386719 10.910156 16.789062 C 10.933594 16.816406 11.0625 17.078125 11.210938 17.378906 C 10.839844 17.628906 10.480469 17.898438 10.136719 18.191406 L 9.40625 17.171875 C 9.234375 16.929688 8.898438 16.875 8.660156 17.050781 L 8.078125 17.476562 L 8.003906 17.367188 L 7.820312 17.5 L 7.824219 17.613281 L 7.824219 17.617188 L 7.84375 17.648438 L 7.464844 17.925781 C 7.414062 17.902344 7.359375 17.886719 7.304688 17.886719 L 7.164062 17.691406 L 6.703125 18.03125 L 6.839844 18.222656 C 6.824219 18.277344 6.820312 18.335938 6.828125 18.390625 L 6.609375 18.550781 C 6.371094 18.726562 6.316406 19.0625 6.488281 19.304688 L 6.625 19.496094 L 6.613281 19.507812 C 6.585938 19.527344 6.582031 19.5625 6.601562 19.589844 C 6.621094 19.617188 6.65625 19.625 6.683594 19.605469 L 6.988281 19.382812 C 7.015625 19.363281 7.023438 19.324219 7.003906 19.296875 C 6.984375 19.269531 6.949219 19.261719 6.921875 19.28125 L 6.78125 19.089844 C 6.726562 19.011719 6.746094 18.902344 6.820312 18.847656 L 7.039062 18.6875 C 7.175781 18.75 7.347656 18.738281 7.488281 18.636719 C 7.625 18.535156 7.691406 18.375 7.675781 18.222656 L 8.058594 17.945312 L 8.082031 17.980469 L 8.195312 18.023438 L 8.191406 18.015625 L 8.371094 17.886719 L 8.292969 17.773438 L 8.875 17.347656 C 8.949219 17.292969 9.058594 17.308594 9.113281 17.386719 L 9.859375 18.433594 C 9.691406 18.585938 9.53125 18.738281 9.371094 18.902344 C 8.566406 19.714844 7.886719 20.628906 7.347656 21.628906 L 3.949219 19.238281 L 3.441406 19.9375 L 3.496094 19.980469 L 6.871094 22.601562 C 6.851562 22.644531 6.832031 22.691406 6.8125 22.734375 C 6.601562 23.238281 6.425781 23.757812 6.285156 24.28125 L 6.277344 24.277344 C 6.242188 24.257812 6.214844 24.238281 6.179688 24.25 C 6.164062 24.253906 6.144531 24.261719 6.132812 24.273438 L 5.730469 24.03125 C 5.589844 23.949219 5.433594 23.921875 5.285156 23.9375 L 5.351562 23.636719 L 5.964844 23.773438 C 6.023438 23.789062 6.082031 23.75 6.09375 23.691406 C 6.109375 23.632812 6.070312 23.574219 6.011719 23.5625 L 5.292969 23.398438 C 5.234375 23.386719 5.175781 23.425781 5.164062 23.484375 L 5.046875 24.023438 L 4.976562 24.050781 C 4.949219 24.066406 4.925781 24.085938 4.902344 24.109375 L 4.820312 24.132812 L 4.78125 23.945312 L 4.597656 24.003906 L 4.558594 23.8125 L 4.378906 23.871094 L 4.339844 23.691406 L 4.339844 23.683594 L 4.15625 23.738281 L 4.117188 23.550781 L 3.933594 23.605469 L 3.894531 23.417969 L 3.714844 23.476562 L 3.675781 23.285156 L 3.492188 23.34375 L 3.453125 23.15625 L 3.269531 23.210938 L 3.230469 23.023438 L 3.050781 23.082031 L 3.011719 22.890625 L 2.828125 22.949219 L 2.789062 22.757812 L 2.609375 22.816406 L 2.570312 22.628906 L 2.386719 22.683594 L 2.347656 22.496094 L 2.132812 22.5625 C 1.878906 22.417969 1.558594 22.5 1.414062 22.746094 C 1.269531 22.996094 1.355469 23.324219 1.609375 23.476562 L 1.652344 23.679688 L 1.835938 23.621094 L 1.875 23.808594 L 2.058594 23.753906 L 2.097656 23.941406 L 2.28125 23.886719 L 2.320312 24.074219 L 2.503906 24.019531 L 2.542969 24.207031 L 2.726562 24.152344 L 2.765625 24.339844 L 2.949219 24.285156 L 2.988281 24.472656 L 3.171875 24.414062 L 3.210938 24.605469 L 3.390625 24.546875 L 3.433594 24.738281 L 3.613281 24.679688 L 3.652344 24.867188 L 3.652344 24.871094 L 3.65625 24.867188 L 3.660156 24.867188 L 3.832031 24.8125 L 3.875 25 L 4.054688 24.945312 L 4.097656 25.132812 L 4.277344 25.074219 L 4.28125 25.097656 C 4.25 25.160156 4.269531 25.238281 4.328125 25.273438 L 5.757812 26.125 C 5.789062 26.144531 5.824219 26.148438 5.855469 26.140625 C 5.890625 26.128906 5.917969 26.109375 5.9375 26.078125 L 5.941406 26.070312 L 5.949219 26.078125 C 5.910156 26.449219 5.886719 26.828125 5.878906 27.207031 C 4.738281 27.3125 3.761719 27.429688 2.980469 27.5625 L 32.582031 27.5625 C 31.8125 27.433594 30.851562 27.316406 29.730469 27.210938 C 29.722656 26.585938 29.664062 25.964844 29.558594 25.355469 C 30.113281 25.148438 32.105469 24.398438 32.105469 24.398438 C 32.21875 24.355469 32.335938 24.503906 32.617188 24.40625 C 32.84375 24.332031 32.953125 24.070312 32.871094 23.847656 C 32.789062 23.621094 32.535156 23.496094 32.316406 23.589844 Z M 13.082031 14.550781 C 12.980469 14.613281 12.878906 14.628906 12.828125 14.59375 C 12.886719 14.613281 12.980469 14.59375 13.074219 14.539062 C 13.167969 14.480469 13.226562 14.40625 13.238281 14.347656 C 13.246094 14.40625 13.183594 14.492188 13.082031 14.550781 Z M 4.46875 24.566406 C 4.398438 24.6875 4.238281 24.726562 4.113281 24.652344 L 2.109375 23.460938 L 1.746094 23.242188 C 1.621094 23.167969 1.578125 23.007812 1.648438 22.886719 C 1.71875 22.765625 1.878906 22.726562 2.003906 22.800781 L 4.007812 23.992188 L 4.371094 24.210938 C 4.496094 24.285156 4.539062 24.445312 4.46875 24.566406 Z M 5.714844 25.5625 C 5.707031 25.578125 5.6875 25.582031 5.675781 25.574219 L 5.0625 25.207031 C 5.046875 25.199219 5.042969 25.179688 5.050781 25.167969 C 5.058594 25.152344 5.074219 25.148438 5.089844 25.15625 L 5.703125 25.523438 C 5.71875 25.53125 5.722656 25.550781 5.714844 25.5625 Z M 5.820312 25.382812 C 5.8125 25.394531 5.792969 25.398438 5.78125 25.390625 L 5.167969 25.023438 C 5.152344 25.015625 5.148438 25 5.15625 24.984375 C 5.164062 24.972656 5.179688 24.96875 5.195312 24.976562 L 5.808594 25.34375 C 5.824219 25.351562 5.828125 25.367188 5.820312 25.382812 Z M 5.925781 25.199219 C 5.917969 25.214844 5.898438 25.21875 5.886719 25.210938 L 5.273438 24.84375 C 5.257812 24.835938 5.253906 24.820312 5.261719 24.804688 C 5.269531 24.792969 5.285156 24.785156 5.300781 24.796875 L 5.914062 25.160156 C 5.929688 25.167969 5.933594 25.1875 5.925781 25.199219 Z M 10.128906 25.898438 L 9.796875 25.898438 L 9.796875 25.027344 L 10.128906 25.027344 Z M 10.128906 24.929688 L 9.796875 24.929688 L 9.796875 24.058594 L 10.128906 24.058594 Z M 10.554688 25.898438 L 10.222656 25.898438 L 10.222656 25.027344 L 10.554688 25.027344 Z M 10.554688 24.929688 L 10.222656 24.929688 L 10.222656 24.058594 L 10.554688 24.058594 Z M 11.769531 25.898438 L 11.4375 25.898438 L 11.4375 25.027344 L 11.769531 25.027344 Z M 11.769531 24.929688 L 11.4375 24.929688 L 11.4375 24.058594 L 11.769531 24.058594 Z M 12.195312 25.898438 L 11.863281 25.898438 L 11.863281 25.027344 L 12.195312 25.027344 Z M 12.195312 24.929688 L 11.863281 24.929688 L 11.863281 24.058594 L 12.195312 24.058594 Z M 15.257812 25.964844 L 14.925781 25.964844 L 14.925781 25.09375 L 15.257812 25.09375 Z M 15.257812 24.996094 L 14.925781 24.996094 L 14.925781 24.125 L 15.257812 24.125 Z M 15.683594 25.964844 L 15.351562 25.964844 L 15.351562 25.09375 L 15.683594 25.09375 Z M 15.683594 24.996094 L 15.351562 24.996094 L 15.351562 24.125 L 15.683594 24.125 Z M 18.652344 26.28125 L 16.910156 26.28125 L 16.910156 24.433594 L 18.652344 24.433594 Z M 16.914062 24.3125 C 16.953125 23.957031 17.328125 23.679688 17.78125 23.679688 C 18.234375 23.679688 18.609375 23.957031 18.648438 24.3125 Z M 20.210938 25.964844 L 19.878906 25.964844 L 19.878906 25.09375 L 20.210938 25.09375 Z M 20.210938 24.996094 L 19.878906 24.996094 L 19.878906 24.125 L 20.210938 24.125 Z M 20.636719 25.964844 L 20.308594 25.964844 L 20.308594 25.09375 L 20.636719 25.09375 Z M 20.636719 24.996094 L 20.308594 24.996094 L 20.308594 24.125 L 20.636719 24.125 Z M 23.335938 23.210938 L 22.847656 23.210938 L 22.847656 26.441406 L 22.546875 26.441406 L 22.546875 25.371094 L 22.453125 25.371094 L 22.453125 26.441406 L 22.367188 26.441406 L 22.367188 25.371094 L 22.226562 25.371094 L 22.226562 26.441406 L 22.140625 26.441406 L 22.140625 25.371094 L 22.003906 25.371094 L 22.003906 26.441406 L 21.914062 26.441406 L 21.914062 25.371094 L 21.777344 25.371094 L 21.777344 26.441406 L 21.6875 26.441406 L 21.6875 25.371094 L 21.550781 25.371094 L 21.550781 26.441406 L 21.460938 26.441406 L 21.460938 25.371094 L 21.324219 25.371094 L 21.324219 26.441406 L 21.234375 26.441406 L 21.234375 25.371094 L 21.136719 25.371094 L 21.136719 26.441406 L 20.835938 26.441406 L 20.835938 23.210938 L 19.652344 23.210938 L 19.652344 26.441406 L 19.351562 26.441406 L 19.351562 23.210938 L 16.210938 23.210938 L 16.210938 26.441406 L 15.910156 26.441406 L 15.910156 23.210938 L 14.726562 23.210938 L 14.726562 26.441406 L 14.425781 26.441406 L 14.425781 25.371094 L 14.328125 25.371094 L 14.328125 26.441406 L 14.238281 26.441406 L 14.238281 25.371094 L 14.101562 25.371094 L 14.101562 26.441406 L 14.011719 26.441406 L 14.011719 25.371094 L 13.875 25.371094 L 13.875 26.441406 L 13.785156 26.441406 L 13.785156 25.371094 L 13.648438 25.371094 L 13.648438 26.441406 L 13.558594 26.441406 L 13.558594 25.371094 L 13.421875 25.371094 L 13.421875 26.441406 L 13.335938 26.441406 L 13.335938 25.371094 L 13.195312 25.371094 L 13.195312 26.441406 L 13.109375 26.441406 L 13.109375 25.371094 L 13.015625 25.371094 L 13.015625 26.441406 L 12.714844 26.441406 L 12.714844 23.210938 L 12.222656 23.210938 L 12.222656 22.757812 L 14.085938 22.757812 L 15.671875 21.519531 L 17.78125 19.878906 L 19.886719 21.519531 L 21.472656 22.757812 L 23.335938 22.757812 Z M 23.699219 25.898438 L 23.367188 25.898438 L 23.367188 25.027344 L 23.699219 25.027344 Z M 23.699219 24.929688 L 23.367188 24.929688 L 23.367188 24.058594 L 23.699219 24.058594 Z M 24.125 25.898438 L 23.792969 25.898438 L 23.792969 25.027344 L 24.125 25.027344 Z M 24.125 24.929688 L 23.792969 24.929688 L 23.792969 24.058594 L 24.125 24.058594 Z M 25.339844 25.898438 L 25.007812 25.898438 L 25.007812 25.027344 L 25.339844 25.027344 Z M 25.339844 24.929688 L 25.007812 24.929688 L 25.007812 24.058594 L 25.339844 24.058594 Z M 25.765625 25.898438 L 25.433594 25.898438 L 25.433594 25.027344 L 25.765625 25.027344 Z M 25.765625 24.929688 L 25.433594 24.929688 L 25.433594 24.058594 L 25.765625 24.058594 Z M 26.929688 27 L 26.929688 23.796875 L 27.671875 23.796875 C 27.480469 23.3125 26.027344 20.503906 25.921875 19.707031 L 22.8125 19.707031 C 22.84375 20.199219 22.90625 20.726562 23 21.273438 C 23.050781 21.539062 23.101562 21.800781 23.164062 22.054688 C 23.082031 21.839844 23 21.617188 22.925781 21.390625 C 22.738281 20.808594 22.59375 20.242188 22.492188 19.707031 C 22.425781 19.347656 22.371094 19.003906 22.328125 18.667969 L 21.503906 18.667969 L 21.503906 18.144531 L 21.539062 18.144531 L 21.539062 17.917969 L 20.714844 17.917969 L 20.714844 18.144531 L 20.75 18.144531 L 20.75 18.667969 L 13.230469 18.667969 C 13.1875 19.003906 13.132812 19.347656 13.066406 19.707031 C 12.964844 20.242188 12.824219 20.808594 12.632812 21.390625 C 12.558594 21.617188 12.480469 21.839844 12.394531 22.054688 C 12.457031 21.800781 12.511719 21.539062 12.558594 21.273438 C 12.652344 20.726562 12.714844 20.199219 12.746094 19.707031 L 9.636719 19.707031 C 9.53125 20.503906 8.078125 23.3125 7.886719 23.796875 L 8.628906 23.796875 L 8.628906 27 C 7.765625 27.050781 6.957031 27.109375 6.210938 27.175781 C 6.273438 24.136719 7.472656 21.292969 9.605469 19.136719 C 11.792969 16.921875 14.707031 15.699219 17.804688 15.699219 C 20.902344 15.699219 23.816406 16.921875 26.003906 19.136719 C 28.136719 21.292969 29.335938 24.140625 29.398438 27.179688 C 28.640625 27.113281 27.8125 27.054688 26.929688 27 Z M 32.003906 24.171875 C 31.960938 24.054688 31.96875 23.941406 32.019531 23.894531 C 31.984375 23.953125 31.980469 24.058594 32.019531 24.167969 C 32.0625 24.273438 32.128906 24.351562 32.195312 24.375 C 32.125 24.371094 32.046875 24.289062 32.003906 24.171875 Z M 32.734375 24.121094 L 32.71875 24.207031 L 32.636719 24.238281 L 32.582031 24.304688 L 32.496094 24.292969 L 32.414062 24.324219 L 32.34375 24.265625 L 32.257812 24.25 L 32.230469 24.167969 L 32.160156 24.113281 L 32.175781 24.027344 L 32.144531 23.941406 L 32.203125 23.875 L 32.214844 23.789062 L 32.296875 23.757812 L 32.355469 23.6875 L 32.441406 23.703125 L 32.523438 23.671875 L 32.589844 23.730469 L 32.675781 23.742188 L 32.707031 23.828125 L 32.773438 23.882812 L 32.757812 23.96875 L 32.789062 24.050781 Z M 4.289062 24.363281 L 1.925781 22.957031 C 1.882812 22.929688 1.828125 22.945312 1.804688 22.988281 C 1.78125 23.027344 1.792969 23.082031 1.835938 23.109375 L 4.199219 24.515625 C 4.242188 24.539062 4.292969 24.527344 4.320312 24.484375 C 4.34375 24.441406 4.328125 24.386719 4.289062 24.363281 Z M 13.015625 25.285156 L 14.425781 25.285156 L 14.425781 23.210938 L 13.015625 23.210938 Z M 6.320312 17.773438 C 6.339844 17.761719 6.355469 17.746094 6.367188 17.730469 L 6.535156 17.570312 C 6.550781 17.570312 6.566406 17.566406 6.582031 17.5625 L 6.703125 17.738281 L 6.632812 17.789062 C 6.621094 17.800781 6.617188 17.820312 6.628906 17.832031 C 6.636719 17.847656 6.65625 17.851562 6.671875 17.839844 L 6.988281 17.609375 C 7.003906 17.597656 7.007812 17.578125 6.996094 17.566406 C 6.984375 17.550781 6.964844 17.546875 6.953125 17.558594 L 6.882812 17.609375 L 6.757812 17.433594 C 6.765625 17.421875 6.773438 17.40625 6.777344 17.394531 L 6.980469 17.28125 C 7 17.273438 7.015625 17.265625 7.035156 17.253906 C 7.128906 17.183594 7.15625 17.058594 7.097656 16.976562 C 7.039062 16.894531 6.914062 16.882812 6.820312 16.953125 C 6.816406 16.957031 6.8125 16.957031 6.808594 16.960938 L 6.808594 16.964844 C 6.789062 16.980469 6.773438 16.996094 6.761719 17.015625 L 6.628906 17.164062 C 6.578125 17.164062 6.519531 17.179688 6.46875 17.21875 C 6.417969 17.253906 6.382812 17.304688 6.367188 17.355469 L 6.183594 17.4375 C 6.164062 17.441406 6.140625 17.453125 6.121094 17.464844 C 6.117188 17.46875 6.113281 17.472656 6.105469 17.472656 C 6.011719 17.542969 5.984375 17.664062 6.042969 17.746094 C 6.101562 17.832031 6.226562 17.84375 6.320312 17.773438 Z M 2.4375 20.570312 C 2.4375 20.570312 2.441406 20.367188 2.628906 20.089844 C 2.789062 19.84375 3.175781 19.738281 3.378906 19.890625 C 3.382812 19.894531 3.390625 19.898438 3.394531 19.902344 L 3.90625 19.203125 C 3.808594 19.117188 3.527344 18.847656 3.730469 18.566406 C 4.0625 18.109375 4.867188 18.4375 4.867188 18.4375 L 4.886719 18.269531 C 4.886719 18.269531 3.242188 17.617188 2.769531 18.203125 C 2.367188 18.703125 2.175781 19.019531 2.175781 19.019531 L 2.097656 19.128906 C 2.148438 19.285156 2.121094 19.472656 2.007812 19.628906 C 1.894531 19.78125 1.726562 19.867188 1.5625 19.863281 L 1.289062 20.238281 L 2.195312 20.910156 Z M 7.070312 17.582031 L 6.609375 17.917969 C 6.585938 17.933594 6.578125 17.96875 6.597656 17.996094 C 6.617188 18.019531 6.648438 18.027344 6.675781 18.007812 L 7.136719 17.671875 C 7.160156 17.652344 7.164062 17.617188 7.148438 17.59375 C 7.128906 17.570312 7.09375 17.5625 7.070312 17.582031 Z M 7.070312 17.582031 " fill-opacity="1" fill-rule="evenodd"/></g></svg>