<svg xmlns="http://www.w3.org/2000/svg" xmlns:xlink="http://www.w3.org/1999/xlink" width="50" zoomAndPan="magnify" viewBox="0 0 37.5 37.499999" height="50" preserveAspectRatio="xMidYMid meet" version="1.0"><defs><clipPath id="833e1ec0d2"><path d="M 16 9.121094 L 17 9.121094 L 17 10 L 16 10 Z M 16 9.121094 " clip-rule="nonzero"/></clipPath><clipPath id="2a5bf99149"><path d="M 14 14 L 33.4375 14 L 33.4375 26 L 14 26 Z M 14 14 " clip-rule="nonzero"/></clipPath><clipPath id="2431714309"><path d="M 18 25 L 21 25 L 21 27.625 L 18 27.625 Z M 18 25 " clip-rule="nonzero"/></clipPath><clipPath id="d2c9235dea"><path d="M 31 25 L 33 25 L 33 27.625 L 31 27.625 Z M 31 25 " clip-rule="nonzero"/></clipPath><clipPath id="e1055597ce"><path d="M 5 22 L 9 22 L 9 27.625 L 5 27.625 Z M 5 22 " clip-rule="nonzero"/></clipPath><clipPath id="802d886422"><path d="M 9 22 L 11 22 L 11 27.625 L 9 27.625 Z M 9 22 " clip-rule="nonzero"/></clipPath><clipPath id="04cd6d1c73"><path d="M 2.351562 16 L 11 16 L 11 27.625 L 2.351562 27.625 Z M 2.351562 16 " clip-rule="nonzero"/></clipPath></defs><g clip-path="url(#833e1ec0d2)"><path fill="#0790f2" d="M 16.613281 9.707031 C 16.777344 9.707031 16.910156 9.578125 16.910156 9.414062 C 16.910156 9.253906 16.777344 9.121094 16.613281 9.121094 C 16.449219 9.121094 16.3125 9.253906 16.3125 9.414062 C 16.3125 9.578125 16.449219 9.707031 16.613281 9.707031 Z M 16.613281 9.269531 C 16.695312 9.269531 16.761719 9.335938 16.761719 9.414062 C 16.761719 9.496094 16.695312 9.558594 16.613281 9.558594 C 16.53125 9.558594 16.464844 9.496094 16.464844 9.414062 C 16.464844 9.335938 16.53125 9.269531 16.613281 9.269531 Z M 16.613281 9.269531 " fill-opacity="1" fill-rule="nonzero"/></g><path fill="#0790f2" d="M 23.347656 12.507812 C 23.710938 12.507812 24.003906 12.21875 24.003906 11.863281 C 24.003906 11.507812 23.710938 11.21875 23.347656 11.21875 C 22.984375 11.21875 22.691406 11.507812 22.691406 11.863281 C 22.691406 12.21875 22.984375 12.507812 23.347656 12.507812 Z M 23.347656 11.367188 C 23.625 11.367188 23.851562 11.589844 23.851562 11.863281 C 23.851562 12.136719 23.625 12.355469 23.347656 12.355469 C 23.070312 12.355469 22.84375 12.136719 22.84375 11.863281 C 22.84375 11.589844 23.070312 11.367188 23.347656 11.367188 Z M 23.347656 11.367188 " fill-opacity="1" fill-rule="nonzero"/><g clip-path="url(#2a5bf99149)"><path fill="#0790f2" d="M 19.488281 17.058594 C 19.488281 17.414062 19.765625 17.707031 20.117188 17.738281 L 20.050781 17.855469 L 18.5625 17.855469 C 18.261719 17.855469 18.261719 18.933594 18.5625 18.933594 L 19.449219 18.933594 L 19.203125 19.375 C 19.132812 19.320312 19.042969 19.289062 18.949219 19.289062 C 18.714844 19.289062 18.527344 19.472656 18.527344 19.699219 C 18.527344 19.878906 18.644531 20.03125 18.804688 20.085938 C 18.765625 20.160156 18.730469 20.234375 18.695312 20.308594 C 18.613281 20.269531 18.523438 20.246094 18.421875 20.246094 C 18.089844 20.246094 17.820312 20.511719 17.820312 20.835938 C 17.820312 20.890625 17.828125 20.945312 17.84375 20.996094 L 16.601562 20.847656 C 16.832031 20.84375 17.019531 20.660156 17.019531 20.433594 C 17.019531 20.207031 16.832031 20.023438 16.597656 20.023438 C 16.367188 20.023438 16.179688 20.207031 16.179688 20.433594 C 16.179688 20.628906 16.316406 20.789062 16.496094 20.832031 L 14.757812 20.625 L 14.742188 20.742188 L 17.894531 21.121094 C 17.921875 21.171875 17.960938 21.21875 18 21.257812 L 15.503906 20.917969 L 15.496094 20.976562 L 18.09375 21.332031 C 18.1875 21.394531 18.300781 21.429688 18.421875 21.429688 C 18.433594 21.429688 18.441406 21.429688 18.449219 21.429688 C 18.449219 21.445312 18.449219 21.464844 18.449219 21.484375 L 18.449219 21.898438 C 18.425781 21.898438 18.40625 21.898438 18.382812 21.898438 C 18.238281 21.898438 18.105469 21.945312 18.003906 22.03125 L 15.128906 20.996094 L 15.109375 21.050781 L 17.953125 22.074219 C 17.914062 22.113281 17.878906 22.160156 17.851562 22.207031 L 14.679688 20.996094 L 14.632812 21.105469 L 17.808594 22.316406 C 17.789062 22.371094 17.78125 22.429688 17.78125 22.488281 C 17.78125 22.550781 17.789062 22.609375 17.808594 22.664062 C 17.800781 22.664062 17.792969 22.664062 17.785156 22.664062 C 17.175781 22.664062 16.679688 23.152344 16.679688 23.75 C 16.679688 24.351562 17.175781 24.835938 17.785156 24.835938 C 17.789062 24.835938 17.792969 24.835938 17.796875 24.835938 C 17.886719 25.085938 18.128906 25.265625 18.414062 25.265625 C 18.449219 25.265625 18.484375 25.261719 18.519531 25.257812 C 18.65625 25.234375 18.773438 25.171875 18.867188 25.085938 C 19.082031 25.261719 19.351562 25.363281 19.632812 25.363281 L 32.027344 25.363281 C 32.328125 25.363281 32.621094 25.246094 32.839844 25.042969 C 33.078125 24.824219 33.210938 24.519531 33.210938 24.199219 L 33.210938 21.484375 C 33.210938 20.984375 33.082031 20.496094 32.839844 20.0625 L 32.210938 18.933594 L 33.09375 18.933594 C 33.398438 18.933594 33.398438 17.855469 33.09375 17.855469 L 31.609375 17.855469 L 30.371094 15.640625 C 30.15625 15.257812 29.753906 15.019531 29.308594 15.011719 L 25.828125 14.949219 L 25.796875 14.949219 C 25.8125 14.910156 25.820312 14.863281 25.820312 14.816406 C 25.820312 14.589844 25.628906 14.40625 25.398438 14.40625 C 25.167969 14.40625 24.980469 14.589844 24.980469 14.816406 C 24.980469 14.871094 24.988281 14.917969 25.007812 14.964844 L 23.894531 14.984375 C 23.886719 14.542969 23.519531 14.191406 23.070312 14.191406 C 22.613281 14.191406 22.246094 14.554688 22.246094 15 C 22.246094 15.007812 22.246094 15.011719 22.246094 15.015625 C 21.84375 15.058594 21.484375 15.289062 21.289062 15.640625 L 20.726562 16.644531 C 20.601562 16.484375 20.402344 16.378906 20.179688 16.378906 C 19.800781 16.378906 19.488281 16.683594 19.488281 17.058594 Z M 16.597656 20.171875 C 16.746094 20.171875 16.867188 20.289062 16.867188 20.433594 C 16.867188 20.578125 16.746094 20.699219 16.597656 20.699219 C 16.453125 20.699219 16.332031 20.578125 16.332031 20.433594 C 16.332031 20.289062 16.453125 20.171875 16.597656 20.171875 Z M 20.644531 16.789062 L 20.199219 17.589844 C 20.191406 17.589844 20.1875 17.589844 20.179688 17.589844 C 19.882812 17.589844 19.640625 17.351562 19.640625 17.058594 C 19.640625 16.765625 19.882812 16.527344 20.179688 16.527344 C 20.378906 16.527344 20.550781 16.632812 20.644531 16.789062 Z M 20.226562 19.695312 C 19.976562 19.695312 19.773438 19.496094 19.773438 19.25 C 19.773438 19.007812 19.976562 18.808594 20.226562 18.808594 C 20.472656 18.808594 20.675781 19.007812 20.675781 19.25 C 20.675781 19.496094 20.472656 19.695312 20.226562 19.695312 Z M 19.445312 20.835938 C 19.46875 20.460938 19.796875 20.171875 20.179688 20.195312 C 20.269531 20.199219 20.355469 20.222656 20.433594 20.257812 L 22.054688 21.007812 C 22.226562 21.089844 22.300781 21.292969 22.21875 21.460938 C 22.15625 21.589844 22.023438 21.664062 21.886719 21.65625 L 20.097656 21.554688 C 19.714844 21.53125 19.421875 21.210938 19.445312 20.835938 Z M 23.214844 21.265625 C 23.214844 21.121094 23.335938 21.003906 23.484375 21.003906 C 23.632812 21.003906 23.753906 21.121094 23.753906 21.265625 C 23.753906 21.410156 23.632812 21.527344 23.484375 21.527344 C 23.335938 21.527344 23.214844 21.410156 23.214844 21.265625 Z M 18.414062 25.117188 C 18.136719 25.117188 17.914062 24.898438 17.914062 24.625 C 17.914062 24.355469 18.136719 24.132812 18.414062 24.132812 C 18.6875 24.132812 18.914062 24.355469 18.914062 24.625 C 18.914062 24.898438 18.6875 25.117188 18.414062 25.117188 Z M 17.785156 22.8125 C 17.820312 22.8125 17.851562 22.8125 17.882812 22.816406 C 17.992188 22.976562 18.175781 23.082031 18.382812 23.082031 C 18.40625 23.082031 18.425781 23.078125 18.449219 23.078125 L 18.449219 23.988281 C 18.4375 23.984375 18.425781 23.984375 18.414062 23.984375 C 18.054688 23.984375 17.761719 24.273438 17.761719 24.625 C 17.761719 24.644531 17.761719 24.667969 17.765625 24.6875 C 17.246094 24.675781 16.832031 24.261719 16.832031 23.75 C 16.832031 23.234375 17.261719 22.8125 17.785156 22.8125 Z M 17.933594 22.488281 C 17.933594 22.242188 18.132812 22.046875 18.382812 22.046875 C 18.632812 22.046875 18.835938 22.242188 18.835938 22.488281 C 18.835938 22.734375 18.632812 22.933594 18.382812 22.933594 C 18.132812 22.933594 17.933594 22.734375 17.933594 22.488281 Z M 17.972656 20.835938 C 17.972656 20.59375 18.175781 20.394531 18.421875 20.394531 C 18.671875 20.394531 18.875 20.59375 18.875 20.835938 C 18.875 21.082031 18.671875 21.28125 18.421875 21.28125 C 18.175781 21.28125 17.972656 21.082031 17.972656 20.835938 Z M 19.214844 19.699219 C 19.214844 19.84375 19.09375 19.960938 18.949219 19.960938 C 18.800781 19.960938 18.679688 19.84375 18.679688 19.699219 C 18.679688 19.554688 18.800781 19.4375 18.949219 19.4375 C 19.09375 19.4375 19.214844 19.554688 19.214844 19.699219 Z M 20.621094 23.695312 C 20.621094 23.96875 20.394531 24.1875 20.121094 24.1875 C 19.84375 24.1875 19.621094 23.96875 19.621094 23.695312 C 19.621094 23.425781 19.84375 23.203125 20.121094 23.203125 C 20.394531 23.203125 20.621094 23.425781 20.621094 23.695312 Z M 27.976562 24.496094 C 27.976562 24.5625 27.921875 24.613281 27.855469 24.613281 L 23.804688 24.613281 C 23.738281 24.613281 23.683594 24.5625 23.683594 24.496094 L 23.683594 23.730469 C 23.683594 23.667969 23.738281 23.613281 23.804688 23.613281 L 27.855469 23.613281 C 27.921875 23.613281 27.976562 23.667969 27.976562 23.730469 Z M 24.683594 20.167969 C 24.683594 20.019531 24.804688 19.902344 24.953125 19.902344 C 25.101562 19.902344 25.21875 20.019531 25.21875 20.167969 C 25.21875 20.3125 25.101562 20.429688 24.953125 20.429688 C 24.804688 20.429688 24.683594 20.3125 24.683594 20.167969 Z M 32.148438 20.585938 C 32.3125 20.925781 32.164062 21.328125 31.816406 21.492188 C 31.734375 21.527344 31.648438 21.550781 31.5625 21.554688 L 29.773438 21.65625 C 29.582031 21.667969 29.417969 21.523438 29.40625 21.335938 C 29.398438 21.195312 29.480469 21.066406 29.605469 21.007812 L 31.226562 20.257812 C 31.570312 20.097656 31.984375 20.242188 32.148438 20.585938 Z M 25.132812 14.816406 C 25.132812 14.671875 25.25 14.554688 25.398438 14.554688 C 25.546875 14.554688 25.667969 14.671875 25.667969 14.816406 C 25.667969 14.867188 25.652344 14.914062 25.628906 14.953125 L 25.175781 14.960938 C 25.148438 14.917969 25.132812 14.871094 25.132812 14.816406 Z M 22.394531 15.007812 C 22.394531 15.007812 22.394531 15.003906 22.394531 15 C 22.394531 14.636719 22.699219 14.339844 23.070312 14.339844 C 23.4375 14.339844 23.734375 14.628906 23.746094 14.984375 Z M 21.785156 15.90625 C 21.902344 15.699219 22.121094 15.570312 22.359375 15.566406 L 25.828125 15.507812 L 29.300781 15.566406 C 29.539062 15.570312 29.757812 15.699219 29.871094 15.90625 L 31.65625 19.097656 C 31.734375 19.238281 31.628906 19.414062 31.464844 19.414062 L 20.804688 19.414062 C 20.820312 19.363281 20.828125 19.308594 20.828125 19.25 C 20.828125 18.933594 20.570312 18.671875 20.25 18.660156 Z M 21.785156 15.90625 " fill-opacity="1" fill-rule="nonzero"/></g><path fill="#0790f2" d="M 16.886719 22.492188 C 16.886719 22.328125 16.75 22.191406 16.582031 22.191406 C 16.410156 22.191406 16.273438 22.328125 16.273438 22.492188 C 16.273438 22.660156 16.410156 22.796875 16.582031 22.796875 C 16.75 22.796875 16.886719 22.660156 16.886719 22.492188 Z M 16.582031 22.648438 C 16.496094 22.648438 16.425781 22.578125 16.425781 22.492188 C 16.425781 22.410156 16.496094 22.339844 16.582031 22.339844 C 16.667969 22.339844 16.734375 22.410156 16.734375 22.492188 C 16.734375 22.578125 16.667969 22.648438 16.582031 22.648438 Z M 16.582031 22.648438 " fill-opacity="1" fill-rule="nonzero"/><path fill="#0790f2" d="M 14.453125 22.847656 C 14.453125 23.171875 14.722656 23.433594 15.054688 23.433594 C 15.386719 23.433594 15.652344 23.171875 15.652344 22.847656 C 15.652344 22.523438 15.386719 22.257812 15.054688 22.257812 C 14.722656 22.257812 14.453125 22.523438 14.453125 22.847656 Z M 14.605469 22.847656 C 14.605469 22.605469 14.808594 22.40625 15.054688 22.40625 C 15.300781 22.40625 15.503906 22.605469 15.503906 22.847656 C 15.503906 23.089844 15.300781 23.285156 15.054688 23.285156 C 14.808594 23.285156 14.605469 23.089844 14.605469 22.847656 Z M 14.605469 22.847656 " fill-opacity="1" fill-rule="nonzero"/><path fill="#0790f2" d="M 20.960938 15.15625 C 21.28125 15.15625 21.542969 14.902344 21.542969 14.589844 C 21.542969 14.273438 21.28125 14.019531 20.960938 14.019531 C 20.644531 14.019531 20.382812 14.273438 20.382812 14.589844 C 20.382812 14.902344 20.644531 15.15625 20.960938 15.15625 Z M 20.960938 14.167969 C 21.199219 14.167969 21.390625 14.355469 21.390625 14.589844 C 21.390625 14.820312 21.199219 15.007812 20.960938 15.007812 C 20.726562 15.007812 20.535156 14.820312 20.535156 14.589844 C 20.535156 14.355469 20.726562 14.167969 20.960938 14.167969 Z M 20.960938 14.167969 " fill-opacity="1" fill-rule="nonzero"/><g clip-path="url(#2431714309)"><path fill="#0790f2" d="M 19.632812 25.695312 C 19.304688 25.695312 18.992188 25.59375 18.734375 25.40625 L 18.734375 26.851562 C 18.734375 26.945312 18.808594 27.015625 18.898438 27.015625 L 20.421875 27.015625 C 20.511719 27.015625 20.585938 26.945312 20.585938 26.851562 L 20.585938 25.695312 Z M 19.632812 25.695312 " fill-opacity="1" fill-rule="nonzero"/></g><g clip-path="url(#d2c9235dea)"><path fill="#0790f2" d="M 32.027344 25.695312 L 31.070312 25.695312 L 31.070312 26.851562 C 31.070312 26.945312 31.144531 27.015625 31.238281 27.015625 L 32.757812 27.015625 C 32.851562 27.015625 32.925781 26.945312 32.925781 26.851562 L 32.925781 25.40625 C 32.667969 25.59375 32.355469 25.695312 32.027344 25.695312 Z M 32.027344 25.695312 " fill-opacity="1" fill-rule="nonzero"/></g><path fill="#0790f2" d="M 24.9375 15.757812 L 26.722656 15.757812 L 26.722656 16.199219 L 24.9375 16.199219 Z M 24.9375 15.757812 " fill-opacity="1" fill-rule="nonzero"/><path fill="#0790f2" d="M 12.15625 20.71875 C 12.050781 20.691406 11.941406 20.746094 11.90625 20.847656 L 11.324219 22.5 C 11.285156 22.609375 11.351562 22.726562 11.464844 22.757812 L 12.53125 23.050781 C 12.644531 23.082031 12.761719 23.015625 12.785156 22.902344 L 13.164062 21.195312 C 13.1875 21.089844 13.125 20.984375 13.019531 20.957031 Z M 13.023438 21.164062 L 12.644531 22.871094 C 12.640625 22.890625 12.625 22.902344 12.617188 22.90625 C 12.609375 22.914062 12.589844 22.921875 12.570312 22.914062 L 11.503906 22.621094 C 11.480469 22.613281 11.472656 22.601562 11.464844 22.589844 C 11.460938 22.582031 11.457031 22.566406 11.460938 22.546875 L 12.042969 20.894531 C 12.054688 20.863281 12.085938 20.847656 12.113281 20.855469 L 12.980469 21.09375 C 13.011719 21.101562 13.027344 21.132812 13.023438 21.164062 Z M 13.023438 21.164062 " fill-opacity="1" fill-rule="nonzero"/><path fill="#0790f2" d="M 11.757812 20.257812 L 12.230469 20.386719 L 12.175781 20.574219 L 13.074219 20.824219 L 13.113281 20.691406 L 13.644531 20.835938 L 13.675781 20.734375 L 14.488281 20.957031 L 14.539062 20.773438 L 13.726562 20.550781 L 13.757812 20.445312 L 13.226562 20.300781 L 13.261719 20.167969 L 12.363281 19.921875 L 12.308594 20.109375 L 11.832031 19.976562 C 11.828125 20.074219 11.804688 20.167969 11.757812 20.257812 Z M 11.757812 20.257812 " fill-opacity="1" fill-rule="nonzero"/><path fill="#0790f2" d="M 12.441406 22.679688 L 12.488281 22.472656 L 12.582031 22.492188 L 12.535156 22.703125 Z M 12.441406 22.679688 " fill-opacity="1" fill-rule="nonzero"/><path fill="#0790f2" d="M 12.535156 22.257812 L 12.785156 21.164062 L 12.878906 21.1875 L 12.632812 22.277344 Z M 12.535156 22.257812 " fill-opacity="1" fill-rule="nonzero"/><g clip-path="url(#e1055597ce)"><path fill="#0790f2" d="M 5.761719 25.980469 C 5.53125 26.324219 5.625 26.785156 5.972656 27.011719 C 6.101562 27.09375 6.246094 27.136719 6.390625 27.136719 C 6.636719 27.136719 6.878906 27.019531 7.023438 26.800781 C 7.875 25.542969 8.140625 24.386719 8.144531 23.433594 L 6.351562 22.003906 C 6.699219 22.859375 6.910156 24.273438 5.761719 25.980469 Z M 5.761719 25.980469 " fill-opacity="1" fill-rule="nonzero"/></g><g clip-path="url(#802d886422)"><path fill="#0790f2" d="M 9.304688 25.503906 C 9.289062 25.628906 9.277344 25.75 9.265625 25.867188 L 9.511719 26.636719 C 9.617188 26.953125 9.914062 27.15625 10.234375 27.15625 C 10.3125 27.15625 10.386719 27.144531 10.464844 27.121094 C 10.863281 27 11.085938 26.578125 10.957031 26.1875 L 9.894531 22.894531 C 9.875 22.832031 9.847656 22.773438 9.808594 22.714844 C 9.496094 23.664062 9.394531 24.640625 9.304688 25.503906 Z M 9.304688 25.503906 " fill-opacity="1" fill-rule="nonzero"/></g><path fill="#0790f2" d="M 9.824219 17.097656 C 10.5625 17.242188 11.277344 16.769531 11.421875 16.042969 C 11.566406 15.316406 11.085938 14.613281 10.347656 14.472656 C 9.609375 14.328125 8.890625 14.800781 8.746094 15.527344 C 8.601562 16.253906 9.085938 16.957031 9.824219 17.097656 Z M 9.824219 17.097656 " fill-opacity="1" fill-rule="nonzero"/><path fill="#0790f2" d="M 8.425781 17.605469 C 8.335938 17.355469 8.058594 17.226562 7.804688 17.316406 C 7.554688 17.40625 7.421875 17.675781 7.511719 17.925781 L 8.320312 20.140625 C 8.390625 20.332031 8.574219 20.457031 8.777344 20.457031 C 8.792969 20.457031 8.808594 20.453125 8.824219 20.453125 L 10.808594 20.257812 L 10.886719 20.328125 C 11.089844 20.5 11.394531 20.480469 11.574219 20.28125 C 11.75 20.085938 11.730469 19.785156 11.527344 19.609375 L 11.285156 19.40625 C 11.1875 19.316406 11.054688 19.277344 10.917969 19.289062 L 9.105469 19.46875 Z M 8.425781 17.605469 " fill-opacity="1" fill-rule="nonzero"/><g clip-path="url(#04cd6d1c73)"><path fill="#0790f2" d="M 4.839844 27.34375 C 5.304688 27.574219 5.925781 27.621094 6.652344 27.621094 C 6.886719 27.621094 7.136719 27.617188 7.394531 27.613281 C 7.664062 27.605469 7.949219 27.601562 8.234375 27.601562 C 8.84375 27.601562 8.992188 26.886719 9.113281 25.84375 C 9.125 25.734375 9.136719 25.621094 9.148438 25.507812 L 9.152344 25.511719 C 9.152344 25.503906 9.152344 25.496094 9.152344 25.488281 C 9.242188 24.632812 9.355469 23.570312 9.695312 22.582031 C 9.691406 22.578125 9.691406 22.574219 9.6875 22.574219 C 9.703125 22.527344 9.71875 22.480469 9.734375 22.433594 C 9.953125 21.824219 10.261719 21.234375 10.707031 20.726562 L 10.746094 20.769531 L 10.996094 20.546875 C 10.921875 20.519531 10.855469 20.480469 10.796875 20.429688 L 10.761719 20.398438 L 10.722656 20.402344 L 10.550781 20.558594 L 10.605469 20.617188 C 10.152344 21.128906 9.835938 21.71875 9.609375 22.332031 C 9.59375 22.378906 9.578125 22.425781 9.5625 22.46875 L 7.523438 20.84375 C 7.632812 20.441406 7.804688 20.039062 7.996094 19.65625 L 7.382812 17.972656 C 7.324219 17.816406 7.332031 17.652344 7.402344 17.503906 C 7.476562 17.355469 7.601562 17.242188 7.757812 17.1875 C 7.824219 17.164062 7.898438 17.152344 7.96875 17.152344 C 8.230469 17.152344 8.46875 17.316406 8.554688 17.558594 L 8.804688 18.234375 C 9.121094 17.730469 9.121094 17.035156 8.6875 16.761719 C 8.238281 16.480469 7.4375 16.507812 6.867188 17.238281 C 6.085938 18.246094 5.746094 18.957031 5.464844 20.261719 C 5.425781 20.550781 5.453125 20.777344 5.519531 20.964844 C 5.558594 21.117188 5.644531 21.261719 5.78125 21.371094 L 6.058594 21.59375 L 8.519531 23.554688 L 9.035156 25.152344 C 9.027344 25.238281 9.015625 25.320312 9.007812 25.402344 C 9.003906 25.433594 9 25.464844 8.996094 25.492188 C 8.875 26.636719 8.773438 27.453125 8.234375 27.453125 C 7.945312 27.453125 7.664062 27.457031 7.390625 27.464844 C 6.371094 27.484375 5.492188 27.503906 4.90625 27.210938 C 4.136719 26.828125 2.464844 27 2.394531 27.007812 L 2.414062 27.15625 C 2.429688 27.152344 4.109375 26.980469 4.839844 27.34375 Z M 4.839844 27.34375 " fill-opacity="1" fill-rule="nonzero"/></g><path fill="#0790f2" d="M 21.769531 18.574219 C 22.050781 18.574219 22.28125 18.347656 22.28125 18.070312 C 22.28125 17.792969 22.050781 17.566406 21.769531 17.566406 C 21.484375 17.566406 21.253906 17.792969 21.253906 18.070312 C 21.253906 18.347656 21.484375 18.574219 21.769531 18.574219 Z M 21.769531 17.714844 C 21.96875 17.714844 22.132812 17.875 22.132812 18.070312 C 22.132812 18.265625 21.96875 18.425781 21.769531 18.425781 C 21.566406 18.425781 21.40625 18.265625 21.40625 18.070312 C 21.40625 17.875 21.566406 17.714844 21.769531 17.714844 Z M 21.769531 17.714844 " fill-opacity="1" fill-rule="nonzero"/><path fill="#0790f2" d="M 17.207031 19.527344 C 17.4375 19.527344 17.625 19.34375 17.625 19.117188 C 17.625 18.890625 17.4375 18.707031 17.207031 18.707031 C 16.976562 18.707031 16.785156 18.890625 16.785156 19.117188 C 16.785156 19.34375 16.976562 19.527344 17.207031 19.527344 Z M 17.472656 19.117188 C 17.472656 19.261719 17.355469 19.378906 17.207031 19.378906 C 17.058594 19.378906 16.9375 19.261719 16.9375 19.117188 C 16.9375 18.972656 17.058594 18.855469 17.207031 18.855469 C 17.355469 18.855469 17.472656 18.972656 17.472656 19.117188 Z M 17.472656 19.117188 " fill-opacity="1" fill-rule="nonzero"/><path fill="#0790f2" d="M 16.640625 25.652344 C 16.640625 25.878906 16.828125 26.0625 17.058594 26.0625 C 17.289062 26.0625 17.480469 25.878906 17.480469 25.652344 C 17.480469 25.421875 17.289062 25.238281 17.058594 25.238281 C 16.828125 25.238281 16.640625 25.421875 16.640625 25.652344 Z M 17.058594 25.914062 C 16.910156 25.914062 16.792969 25.796875 16.792969 25.652344 C 16.792969 25.503906 16.910156 25.386719 17.058594 25.386719 C 17.207031 25.386719 17.328125 25.503906 17.328125 25.652344 C 17.328125 25.796875 17.207031 25.914062 17.058594 25.914062 Z M 17.058594 25.914062 " fill-opacity="1" fill-rule="nonzero"/><path fill="#0790f2" d="M 13.542969 24.757812 C 13.542969 24.988281 13.730469 25.171875 13.964844 25.171875 C 14.195312 25.171875 14.382812 24.988281 14.382812 24.757812 C 14.382812 24.53125 14.195312 24.347656 13.964844 24.347656 C 13.730469 24.347656 13.542969 24.53125 13.542969 24.757812 Z M 13.695312 24.757812 C 13.695312 24.613281 13.816406 24.496094 13.964844 24.496094 C 14.109375 24.496094 14.230469 24.613281 14.230469 24.757812 C 14.230469 24.90625 14.109375 25.023438 13.964844 25.023438 C 13.816406 25.023438 13.695312 24.90625 13.695312 24.757812 Z M 13.695312 24.757812 " fill-opacity="1" fill-rule="nonzero"/><path fill="#0790f2" d="M 14.738281 12.304688 C 14.902344 12.304688 15.035156 12.171875 15.035156 12.007812 C 15.035156 11.847656 14.902344 11.714844 14.738281 11.714844 C 14.574219 11.714844 14.4375 11.847656 14.4375 12.007812 C 14.4375 12.171875 14.574219 12.304688 14.738281 12.304688 Z M 14.738281 11.863281 C 14.820312 11.863281 14.886719 11.929688 14.886719 12.007812 C 14.886719 12.089844 14.820312 12.152344 14.738281 12.152344 C 14.65625 12.152344 14.589844 12.089844 14.589844 12.007812 C 14.589844 11.929688 14.65625 11.863281 14.738281 11.863281 Z M 14.738281 11.863281 " fill-opacity="1" fill-rule="nonzero"/><path fill="#0790f2" d="M 17.765625 12.304688 C 17.929688 12.304688 18.066406 12.171875 18.066406 12.007812 C 18.066406 11.847656 17.929688 11.714844 17.765625 11.714844 C 17.601562 11.714844 17.46875 11.847656 17.46875 12.007812 C 17.46875 12.171875 17.601562 12.304688 17.765625 12.304688 Z M 17.765625 11.863281 C 17.847656 11.863281 17.914062 11.929688 17.914062 12.007812 C 17.914062 12.089844 17.847656 12.152344 17.765625 12.152344 C 17.683594 12.152344 17.617188 12.089844 17.617188 12.007812 C 17.617188 11.929688 17.683594 11.863281 17.765625 11.863281 Z M 17.765625 11.863281 " fill-opacity="1" fill-rule="nonzero"/><path fill="#0790f2" d="M 24.867188 13.433594 C 25.03125 13.433594 25.164062 13.300781 25.164062 13.136719 C 25.164062 12.976562 25.03125 12.84375 24.867188 12.84375 C 24.699219 12.84375 24.566406 12.976562 24.566406 13.136719 C 24.566406 13.300781 24.699219 13.433594 24.867188 13.433594 Z M 24.867188 12.992188 C 24.945312 12.992188 25.011719 13.058594 25.011719 13.136719 C 25.011719 13.21875 24.945312 13.285156 24.867188 13.285156 C 24.785156 13.285156 24.71875 13.21875 24.71875 13.136719 C 24.71875 13.058594 24.785156 12.992188 24.867188 12.992188 Z M 24.867188 12.992188 " fill-opacity="1" fill-rule="nonzero"/><path fill="#0790f2" d="M 13.640625 16.847656 C 13.804688 16.847656 13.9375 16.71875 13.9375 16.554688 C 13.9375 16.394531 13.804688 16.261719 13.640625 16.261719 C 13.476562 16.261719 13.339844 16.394531 13.339844 16.554688 C 13.339844 16.71875 13.476562 16.847656 13.640625 16.847656 Z M 13.640625 16.410156 C 13.722656 16.410156 13.789062 16.476562 13.789062 16.554688 C 13.789062 16.636719 13.722656 16.699219 13.640625 16.699219 C 13.558594 16.699219 13.492188 16.636719 13.492188 16.554688 C 13.492188 16.476562 13.558594 16.410156 13.640625 16.410156 Z M 13.640625 16.410156 " fill-opacity="1" fill-rule="nonzero"/><path fill="#0790f2" d="M 17.933594 15.664062 C 17.933594 15.890625 18.121094 16.074219 18.351562 16.074219 C 18.585938 16.074219 18.773438 15.890625 18.773438 15.664062 C 18.773438 15.4375 18.585938 15.25 18.351562 15.25 C 18.121094 15.25 17.933594 15.4375 17.933594 15.664062 Z M 18.351562 15.402344 C 18.5 15.402344 18.621094 15.519531 18.621094 15.664062 C 18.621094 15.808594 18.5 15.925781 18.351562 15.925781 C 18.207031 15.925781 18.085938 15.808594 18.085938 15.664062 C 18.085938 15.519531 18.207031 15.402344 18.351562 15.402344 Z M 18.351562 15.402344 " fill-opacity="1" fill-rule="nonzero"/><path fill="#0790f2" d="M 20.976562 11.769531 C 21.207031 11.769531 21.394531 11.585938 21.394531 11.359375 C 21.394531 11.132812 21.207031 10.945312 20.976562 10.945312 C 20.746094 10.945312 20.554688 11.132812 20.554688 11.359375 C 20.554688 11.585938 20.746094 11.769531 20.976562 11.769531 Z M 20.976562 11.09375 C 21.125 11.09375 21.242188 11.214844 21.242188 11.359375 C 21.242188 11.503906 21.125 11.621094 20.976562 11.621094 C 20.828125 11.621094 20.707031 11.503906 20.707031 11.359375 C 20.707031 11.214844 20.828125 11.09375 20.976562 11.09375 Z M 20.976562 11.09375 " fill-opacity="1" fill-rule="nonzero"/><path fill="#0790f2" d="M 24.398438 14.496094 C 24.628906 14.496094 24.816406 14.3125 24.816406 14.085938 C 24.816406 13.855469 24.628906 13.671875 24.398438 13.671875 C 24.167969 13.671875 23.980469 13.855469 23.980469 14.085938 C 23.980469 14.3125 24.167969 14.496094 24.398438 14.496094 Z M 24.398438 13.820312 C 24.546875 13.820312 24.667969 13.9375 24.667969 14.085938 C 24.667969 14.230469 24.546875 14.347656 24.398438 14.347656 C 24.25 14.347656 24.128906 14.230469 24.128906 14.085938 C 24.128906 13.9375 24.25 13.820312 24.398438 13.820312 Z M 24.398438 13.820312 " fill-opacity="1" fill-rule="nonzero"/><path fill="#0790f2" d="M 19.59375 15.984375 C 19.824219 15.984375 20.015625 15.800781 20.015625 15.570312 C 20.015625 15.34375 19.824219 15.160156 19.59375 15.160156 C 19.363281 15.160156 19.175781 15.34375 19.175781 15.570312 C 19.175781 15.800781 19.363281 15.984375 19.59375 15.984375 Z M 19.59375 15.308594 C 19.742188 15.308594 19.863281 15.425781 19.863281 15.570312 C 19.863281 15.71875 19.742188 15.835938 19.59375 15.835938 C 19.445312 15.835938 19.328125 15.71875 19.328125 15.570312 C 19.328125 15.425781 19.445312 15.308594 19.59375 15.308594 Z M 19.59375 15.308594 " fill-opacity="1" fill-rule="nonzero"/><path fill="#0790f2" d="M 16.394531 17.066406 C 16.394531 17.292969 16.582031 17.476562 16.8125 17.476562 C 17.042969 17.476562 17.230469 17.292969 17.230469 17.066406 C 17.230469 16.839844 17.042969 16.652344 16.8125 16.652344 C 16.582031 16.652344 16.394531 16.839844 16.394531 17.066406 Z M 16.8125 17.328125 C 16.664062 17.328125 16.542969 17.210938 16.542969 17.066406 C 16.542969 16.921875 16.664062 16.800781 16.8125 16.800781 C 16.960938 16.800781 17.082031 16.921875 17.082031 17.066406 C 17.082031 17.210938 16.960938 17.328125 16.8125 17.328125 Z M 16.8125 17.328125 " fill-opacity="1" fill-rule="nonzero"/><path fill="#0790f2" d="M 19.695312 13.964844 C 19.925781 13.964844 20.113281 13.78125 20.113281 13.554688 C 20.113281 13.328125 19.925781 13.140625 19.695312 13.140625 C 19.464844 13.140625 19.273438 13.328125 19.273438 13.554688 C 19.273438 13.78125 19.464844 13.964844 19.695312 13.964844 Z M 19.695312 13.289062 C 19.84375 13.289062 19.960938 13.410156 19.960938 13.554688 C 19.960938 13.699219 19.84375 13.816406 19.695312 13.816406 C 19.546875 13.816406 19.425781 13.699219 19.425781 13.554688 C 19.425781 13.410156 19.546875 13.289062 19.695312 13.289062 Z M 19.695312 13.289062 " fill-opacity="1" fill-rule="nonzero"/><path fill="#0790f2" d="M 16.019531 14.324219 C 16.25 14.324219 16.4375 14.140625 16.4375 13.914062 C 16.4375 13.6875 16.25 13.503906 16.019531 13.503906 C 15.785156 13.503906 15.597656 13.6875 15.597656 13.914062 C 15.597656 14.140625 15.785156 14.324219 16.019531 14.324219 Z M 16.019531 13.652344 C 16.167969 13.652344 16.285156 13.769531 16.285156 13.914062 C 16.285156 14.058594 16.167969 14.175781 16.019531 14.175781 C 15.871094 14.175781 15.75 14.058594 15.75 13.914062 C 15.75 13.769531 15.871094 13.652344 16.019531 13.652344 Z M 16.019531 13.652344 " fill-opacity="1" fill-rule="nonzero"/><path fill="#0790f2" d="M 27.621094 13.046875 C 27.851562 13.046875 28.039062 12.863281 28.039062 12.636719 C 28.039062 12.410156 27.851562 12.222656 27.621094 12.222656 C 27.390625 12.222656 27.203125 12.410156 27.203125 12.636719 C 27.203125 12.863281 27.390625 13.046875 27.621094 13.046875 Z M 27.621094 12.375 C 27.769531 12.375 27.890625 12.492188 27.890625 12.636719 C 27.890625 12.78125 27.769531 12.898438 27.621094 12.898438 C 27.472656 12.898438 27.351562 12.78125 27.351562 12.636719 C 27.351562 12.492188 27.472656 12.375 27.621094 12.375 Z M 27.621094 12.375 " fill-opacity="1" fill-rule="nonzero"/><path fill="#0790f2" d="M 22.449219 13.707031 C 22.679688 13.707031 22.871094 13.519531 22.871094 13.292969 C 22.871094 13.066406 22.679688 12.882812 22.449219 12.882812 C 22.21875 12.882812 22.03125 13.066406 22.03125 13.292969 C 22.03125 13.519531 22.21875 13.707031 22.449219 13.707031 Z M 22.71875 13.292969 C 22.71875 13.4375 22.597656 13.554688 22.449219 13.554688 C 22.300781 13.554688 22.183594 13.4375 22.183594 13.292969 C 22.183594 13.148438 22.300781 13.03125 22.449219 13.03125 C 22.597656 13.03125 22.71875 13.148438 22.71875 13.292969 Z M 22.71875 13.292969 " fill-opacity="1" fill-rule="nonzero"/><path fill="#0790f2" d="M 24.097656 19.058594 C 24.328125 19.058594 24.515625 18.871094 24.515625 18.644531 C 24.515625 18.417969 24.328125 18.234375 24.097656 18.234375 C 23.867188 18.234375 23.679688 18.417969 23.679688 18.644531 C 23.679688 18.871094 23.867188 19.058594 24.097656 19.058594 Z M 24.097656 18.382812 C 24.246094 18.382812 24.367188 18.5 24.367188 18.644531 C 24.367188 18.789062 24.246094 18.90625 24.097656 18.90625 C 23.949219 18.90625 23.832031 18.789062 23.832031 18.644531 C 23.832031 18.5 23.949219 18.382812 24.097656 18.382812 Z M 24.097656 18.382812 " fill-opacity="1" fill-rule="nonzero"/><path fill="#0790f2" d="M 24.445312 17.515625 C 24.675781 17.515625 24.863281 17.332031 24.863281 17.105469 C 24.863281 16.878906 24.675781 16.691406 24.445312 16.691406 C 24.214844 16.691406 24.027344 16.878906 24.027344 17.105469 C 24.027344 17.332031 24.214844 17.515625 24.445312 17.515625 Z M 24.445312 16.84375 C 24.59375 16.84375 24.714844 16.960938 24.714844 17.105469 C 24.714844 17.25 24.59375 17.367188 24.445312 17.367188 C 24.296875 17.367188 24.175781 17.25 24.175781 17.105469 C 24.175781 16.960938 24.296875 16.84375 24.445312 16.84375 Z M 24.445312 16.84375 " fill-opacity="1" fill-rule="nonzero"/><path fill="#0790f2" d="M 22.703125 17.109375 C 22.933594 17.109375 23.125 16.925781 23.125 16.699219 C 23.125 16.472656 22.933594 16.285156 22.703125 16.285156 C 22.472656 16.285156 22.285156 16.472656 22.285156 16.699219 C 22.285156 16.925781 22.472656 17.109375 22.703125 17.109375 Z M 22.703125 16.4375 C 22.851562 16.4375 22.972656 16.554688 22.972656 16.699219 C 22.972656 16.84375 22.851562 16.960938 22.703125 16.960938 C 22.554688 16.960938 22.4375 16.84375 22.4375 16.699219 C 22.4375 16.554688 22.554688 16.4375 22.703125 16.4375 Z M 22.703125 16.4375 " fill-opacity="1" fill-rule="nonzero"/><path fill="#0790f2" d="M 28.851562 19.105469 C 29.082031 19.105469 29.269531 18.921875 29.269531 18.695312 C 29.269531 18.46875 29.082031 18.28125 28.851562 18.28125 C 28.621094 18.28125 28.433594 18.46875 28.433594 18.695312 C 28.433594 18.921875 28.621094 19.105469 28.851562 19.105469 Z M 28.851562 18.433594 C 29 18.433594 29.121094 18.550781 29.121094 18.695312 C 29.121094 18.839844 29 18.957031 28.851562 18.957031 C 28.703125 18.957031 28.585938 18.839844 28.585938 18.695312 C 28.585938 18.550781 28.703125 18.433594 28.851562 18.433594 Z M 28.851562 18.433594 " fill-opacity="1" fill-rule="nonzero"/></svg>