<svg xmlns="http://www.w3.org/2000/svg" xmlns:xlink="http://www.w3.org/1999/xlink" width="50" zoomAndPan="magnify" viewBox="0 0 37.5 37.499999" height="50" preserveAspectRatio="xMidYMid meet" version="1.0"><defs><clipPath id="93fded179c"><path d="M 15 7.40625 L 16 7.40625 L 16 9 L 15 9 Z M 15 7.40625 " clip-rule="nonzero"/></clipPath><clipPath id="2aa2287435"><path d="M 13 13 L 35.222656 13 L 35.222656 27 L 13 27 Z M 13 13 " clip-rule="nonzero"/></clipPath><clipPath id="2dfdec5ce2"><path d="M 2 22 L 6 22 L 6 29.609375 L 2 29.609375 Z M 2 22 " clip-rule="nonzero"/></clipPath><clipPath id="600853589d"><path d="M 7 23 L 10 23 L 10 29.609375 L 7 29.609375 Z M 7 23 " clip-rule="nonzero"/></clipPath><clipPath id="a230c91fd4"><path d="M 0 16 L 10 16 L 10 29.609375 L 0 29.609375 Z M 0 16 " clip-rule="nonzero"/></clipPath></defs><g clip-path="url(#93fded179c)"><path fill="#000000" d="M 15.59375 8.113281 C 15.785156 8.113281 15.941406 7.953125 15.941406 7.757812 C 15.941406 7.566406 15.785156 7.40625 15.59375 7.40625 C 15.398438 7.40625 15.242188 7.566406 15.242188 7.757812 C 15.242188 7.953125 15.398438 8.113281 15.59375 8.113281 Z M 15.59375 7.585938 C 15.6875 7.585938 15.765625 7.664062 15.765625 7.757812 C 15.765625 7.855469 15.6875 7.933594 15.59375 7.933594 C 15.496094 7.933594 15.421875 7.855469 15.421875 7.757812 C 15.421875 7.664062 15.496094 7.585938 15.59375 7.585938 Z M 15.59375 7.585938 " fill-opacity="1" fill-rule="nonzero"/></g><path fill="#000000" d="M 23.453125 11.46875 C 23.875 11.46875 24.21875 11.121094 24.21875 10.695312 C 24.21875 10.269531 23.875 9.921875 23.453125 9.921875 C 23.03125 9.921875 22.6875 10.269531 22.6875 10.695312 C 22.6875 11.121094 23.03125 11.46875 23.453125 11.46875 Z M 23.453125 10.101562 C 23.777344 10.101562 24.042969 10.367188 24.042969 10.695312 C 24.042969 11.023438 23.777344 11.289062 23.453125 11.289062 C 23.128906 11.289062 22.863281 11.023438 22.863281 10.695312 C 22.863281 10.367188 23.128906 10.101562 23.453125 10.101562 Z M 23.453125 10.101562 " fill-opacity="1" fill-rule="nonzero"/><g clip-path="url(#2aa2287435)"><path fill="#000000" d="M 18.949219 16.933594 C 18.949219 17.359375 19.273438 17.707031 19.683594 17.746094 L 19.605469 17.890625 L 17.871094 17.890625 C 17.515625 17.890625 17.515625 19.183594 17.871094 19.183594 L 18.902344 19.183594 L 18.617188 19.710938 C 18.535156 19.648438 18.429688 19.609375 18.316406 19.609375 C 18.046875 19.609375 17.828125 19.828125 17.828125 20.101562 C 17.828125 20.316406 17.964844 20.5 18.152344 20.566406 C 18.105469 20.65625 18.066406 20.742188 18.027344 20.835938 C 17.929688 20.785156 17.820312 20.757812 17.707031 20.757812 C 17.320312 20.757812 17.003906 21.074219 17.003906 21.46875 C 17.003906 21.53125 17.011719 21.597656 17.027344 21.65625 L 15.582031 21.476562 C 15.847656 21.476562 16.066406 21.253906 16.066406 20.984375 C 16.066406 20.710938 15.847656 20.488281 15.578125 20.488281 C 15.308594 20.488281 15.085938 20.710938 15.085938 20.984375 C 15.085938 21.214844 15.246094 21.410156 15.457031 21.460938 L 13.429688 21.210938 L 13.410156 21.355469 L 17.089844 21.808594 C 17.121094 21.867188 17.164062 21.925781 17.214844 21.972656 L 14.300781 21.566406 L 14.289062 21.636719 L 17.320312 22.0625 C 17.433594 22.132812 17.5625 22.175781 17.707031 22.175781 C 17.71875 22.175781 17.726562 22.175781 17.738281 22.175781 C 17.738281 22.199219 17.734375 22.21875 17.734375 22.242188 L 17.734375 22.742188 C 17.710938 22.738281 17.6875 22.738281 17.660156 22.738281 C 17.492188 22.738281 17.335938 22.796875 17.214844 22.898438 L 13.863281 21.660156 L 13.835938 21.726562 L 17.15625 22.953125 C 17.113281 23 17.074219 23.054688 17.042969 23.109375 L 13.335938 21.65625 L 13.285156 21.789062 L 16.988281 23.242188 C 16.96875 23.308594 16.957031 23.375 16.957031 23.449219 C 16.957031 23.523438 16.96875 23.59375 16.988281 23.660156 C 16.980469 23.660156 16.972656 23.660156 16.964844 23.660156 C 16.25 23.660156 15.671875 24.242188 15.671875 24.960938 C 15.671875 25.683594 16.25 26.265625 16.964844 26.265625 C 16.96875 26.265625 16.972656 26.265625 16.976562 26.265625 C 17.082031 26.566406 17.363281 26.78125 17.695312 26.78125 C 17.738281 26.78125 17.78125 26.777344 17.820312 26.769531 C 17.976562 26.742188 18.117188 26.671875 18.222656 26.5625 C 18.472656 26.777344 18.789062 26.894531 19.117188 26.894531 L 33.582031 26.894531 C 33.9375 26.894531 34.277344 26.757812 34.53125 26.515625 C 34.808594 26.25 34.964844 25.882812 34.964844 25.5 L 34.964844 22.242188 C 34.964844 21.644531 34.816406 21.058594 34.53125 20.535156 L 33.796875 19.183594 L 34.828125 19.183594 C 35.183594 19.183594 35.183594 17.890625 34.828125 17.890625 L 33.09375 17.890625 L 31.648438 15.230469 C 31.398438 14.773438 30.929688 14.484375 30.410156 14.472656 L 26.347656 14.402344 L 26.3125 14.402344 C 26.328125 14.351562 26.335938 14.300781 26.335938 14.246094 C 26.335938 13.972656 26.117188 13.75 25.847656 13.75 C 25.578125 13.75 25.359375 13.972656 25.359375 14.246094 C 25.359375 14.304688 25.371094 14.363281 25.390625 14.417969 L 24.09375 14.441406 C 24.082031 13.914062 23.652344 13.492188 23.128906 13.492188 C 22.597656 13.492188 22.164062 13.925781 22.164062 14.464844 C 22.164062 14.46875 22.167969 14.476562 22.167969 14.484375 C 21.699219 14.53125 21.28125 14.808594 21.050781 15.230469 L 20.394531 16.433594 C 20.246094 16.242188 20.015625 16.117188 19.757812 16.117188 C 19.3125 16.117188 18.949219 16.484375 18.949219 16.933594 Z M 15.578125 20.667969 C 15.75 20.667969 15.890625 20.808594 15.890625 20.984375 C 15.890625 21.15625 15.75 21.300781 15.578125 21.300781 C 15.40625 21.300781 15.265625 21.15625 15.265625 20.984375 C 15.265625 20.808594 15.40625 20.667969 15.578125 20.667969 Z M 20.300781 16.609375 L 19.777344 17.570312 C 19.773438 17.570312 19.765625 17.574219 19.757812 17.574219 C 19.410156 17.574219 19.125 17.285156 19.125 16.933594 C 19.125 16.582031 19.410156 16.296875 19.757812 16.296875 C 19.988281 16.296875 20.191406 16.421875 20.300781 16.609375 Z M 19.808594 20.097656 C 19.519531 20.097656 19.28125 19.859375 19.28125 19.5625 C 19.28125 19.269531 19.519531 19.03125 19.808594 19.03125 C 20.097656 19.03125 20.335938 19.269531 20.335938 19.5625 C 20.335938 19.859375 20.097656 20.097656 19.808594 20.097656 Z M 18.898438 21.464844 C 18.925781 21.015625 19.308594 20.671875 19.753906 20.695312 C 19.859375 20.703125 19.960938 20.730469 20.050781 20.773438 L 21.945312 21.671875 C 22.144531 21.769531 22.230469 22.011719 22.136719 22.214844 C 22.0625 22.371094 21.90625 22.457031 21.75 22.449219 L 19.660156 22.328125 C 19.214844 22.300781 18.875 21.914062 18.898438 21.464844 Z M 23.300781 21.980469 C 23.300781 21.808594 23.441406 21.664062 23.613281 21.664062 C 23.785156 21.664062 23.925781 21.808594 23.925781 21.980469 C 23.925781 22.15625 23.785156 22.296875 23.613281 22.296875 C 23.441406 22.296875 23.300781 22.15625 23.300781 21.980469 Z M 17.695312 26.601562 C 17.371094 26.601562 17.109375 26.339844 17.109375 26.011719 C 17.109375 25.6875 17.371094 25.421875 17.695312 25.421875 C 18.015625 25.421875 18.277344 25.6875 18.277344 26.011719 C 18.277344 26.339844 18.015625 26.601562 17.695312 26.601562 Z M 16.964844 23.835938 C 17 23.835938 17.039062 23.839844 17.074219 23.84375 C 17.203125 24.035156 17.417969 24.160156 17.660156 24.160156 C 17.6875 24.160156 17.710938 24.15625 17.734375 24.15625 L 17.734375 25.246094 C 17.722656 25.246094 17.707031 25.246094 17.695312 25.246094 C 17.273438 25.246094 16.933594 25.589844 16.933594 26.011719 C 16.933594 26.039062 16.933594 26.0625 16.9375 26.085938 C 16.335938 26.074219 15.847656 25.574219 15.847656 24.960938 C 15.847656 24.34375 16.347656 23.835938 16.964844 23.835938 Z M 17.132812 23.449219 C 17.132812 23.15625 17.371094 22.917969 17.660156 22.917969 C 17.949219 22.917969 18.1875 23.15625 18.1875 23.449219 C 18.1875 23.742188 17.949219 23.980469 17.660156 23.980469 C 17.371094 23.980469 17.132812 23.742188 17.132812 23.449219 Z M 17.179688 21.46875 C 17.179688 21.175781 17.417969 20.933594 17.707031 20.933594 C 17.996094 20.933594 18.234375 21.175781 18.234375 21.46875 C 18.234375 21.761719 17.996094 22 17.707031 22 C 17.417969 22 17.179688 21.761719 17.179688 21.46875 Z M 18.628906 20.101562 C 18.628906 20.277344 18.488281 20.417969 18.316406 20.417969 C 18.144531 20.417969 18.003906 20.277344 18.003906 20.101562 C 18.003906 19.929688 18.144531 19.785156 18.316406 19.785156 C 18.488281 19.785156 18.628906 19.929688 18.628906 20.101562 Z M 20.269531 24.898438 C 20.269531 25.222656 20.007812 25.488281 19.6875 25.488281 C 19.363281 25.488281 19.101562 25.222656 19.101562 24.898438 C 19.101562 24.570312 19.363281 24.308594 19.6875 24.308594 C 20.007812 24.308594 20.269531 24.570312 20.269531 24.898438 Z M 28.851562 25.859375 C 28.851562 25.9375 28.789062 26 28.714844 26 L 23.984375 26 C 23.910156 26 23.847656 25.9375 23.847656 25.859375 L 23.847656 24.941406 C 23.847656 24.863281 23.910156 24.800781 23.984375 24.800781 L 28.714844 24.800781 C 28.789062 24.800781 28.851562 24.863281 28.851562 24.941406 Z M 25.011719 20.660156 C 25.011719 20.488281 25.152344 20.347656 25.324219 20.347656 C 25.5 20.347656 25.636719 20.488281 25.636719 20.660156 C 25.636719 20.835938 25.5 20.976562 25.324219 20.976562 C 25.152344 20.976562 25.011719 20.835938 25.011719 20.660156 Z M 33.722656 21.164062 C 33.914062 21.570312 33.742188 22.058594 33.335938 22.25 C 33.242188 22.296875 33.136719 22.320312 33.039062 22.328125 L 30.949219 22.449219 C 30.726562 22.460938 30.539062 22.289062 30.523438 22.066406 C 30.515625 21.894531 30.609375 21.742188 30.753906 21.671875 L 32.648438 20.773438 C 33.050781 20.582031 33.53125 20.753906 33.722656 21.164062 Z M 25.535156 14.246094 C 25.535156 14.070312 25.675781 13.929688 25.847656 13.929688 C 26.019531 13.929688 26.160156 14.070312 26.160156 14.246094 C 26.160156 14.304688 26.144531 14.359375 26.113281 14.40625 L 25.585938 14.414062 C 25.554688 14.367188 25.535156 14.308594 25.535156 14.246094 Z M 22.34375 14.472656 C 22.34375 14.46875 22.34375 14.46875 22.34375 14.464844 C 22.34375 14.027344 22.695312 13.667969 23.128906 13.667969 C 23.558594 13.667969 23.90625 14.015625 23.917969 14.445312 Z M 21.632812 15.550781 C 21.765625 15.304688 22.019531 15.148438 22.300781 15.144531 L 26.347656 15.070312 L 30.398438 15.144531 C 30.679688 15.148438 30.933594 15.304688 31.066406 15.550781 L 33.148438 19.378906 C 33.238281 19.550781 33.117188 19.757812 32.925781 19.757812 L 20.484375 19.757812 C 20.503906 19.695312 20.511719 19.632812 20.511719 19.5625 C 20.511719 19.183594 20.210938 18.871094 19.835938 18.855469 Z M 21.632812 15.550781 " fill-opacity="1" fill-rule="nonzero"/></g><path fill="#000000" d="M 15.914062 23.453125 C 15.914062 23.253906 15.753906 23.09375 15.554688 23.09375 C 15.359375 23.09375 15.195312 23.253906 15.195312 23.453125 C 15.195312 23.65625 15.359375 23.816406 15.554688 23.816406 C 15.753906 23.816406 15.914062 23.65625 15.914062 23.453125 Z M 15.554688 23.636719 C 15.453125 23.636719 15.375 23.554688 15.375 23.453125 C 15.375 23.355469 15.453125 23.269531 15.554688 23.269531 C 15.65625 23.269531 15.738281 23.355469 15.738281 23.453125 C 15.738281 23.554688 15.65625 23.636719 15.554688 23.636719 Z M 15.554688 23.636719 " fill-opacity="1" fill-rule="nonzero"/><path fill="#000000" d="M 13.074219 23.878906 C 13.074219 24.265625 13.386719 24.585938 13.773438 24.585938 C 14.160156 24.585938 14.472656 24.265625 14.472656 23.878906 C 14.472656 23.488281 14.160156 23.171875 13.773438 23.171875 C 13.386719 23.171875 13.074219 23.488281 13.074219 23.878906 Z M 13.25 23.878906 C 13.25 23.585938 13.484375 23.351562 13.773438 23.351562 C 14.0625 23.351562 14.296875 23.585938 14.296875 23.878906 C 14.296875 24.167969 14.0625 24.40625 13.773438 24.40625 C 13.484375 24.40625 13.25 24.167969 13.25 23.878906 Z M 13.25 23.878906 " fill-opacity="1" fill-rule="nonzero"/><path fill="#000000" d="M 20.667969 14.652344 C 21.042969 14.652344 21.34375 14.347656 21.34375 13.96875 C 21.34375 13.59375 21.042969 13.285156 20.667969 13.285156 C 20.296875 13.285156 19.992188 13.59375 19.992188 13.96875 C 19.992188 14.347656 20.296875 14.652344 20.667969 14.652344 Z M 20.667969 13.464844 C 20.945312 13.464844 21.167969 13.691406 21.167969 13.96875 C 21.167969 14.246094 20.945312 14.472656 20.667969 14.472656 C 20.394531 14.472656 20.167969 14.246094 20.167969 13.96875 C 20.167969 13.691406 20.394531 13.464844 20.667969 13.464844 Z M 20.667969 13.464844 " fill-opacity="1" fill-rule="nonzero"/><path fill="#000000" d="M 19.117188 27.296875 C 18.734375 27.296875 18.371094 27.175781 18.066406 26.949219 L 18.066406 28.6875 C 18.066406 28.796875 18.15625 28.882812 18.261719 28.882812 L 20.039062 28.882812 C 20.144531 28.882812 20.230469 28.796875 20.230469 28.6875 L 20.230469 27.296875 Z M 19.117188 27.296875 " fill-opacity="1" fill-rule="nonzero"/><path fill="#000000" d="M 33.582031 27.296875 L 32.46875 27.296875 L 32.46875 28.6875 C 32.46875 28.796875 32.554688 28.882812 32.664062 28.882812 L 34.4375 28.882812 C 34.542969 28.882812 34.632812 28.796875 34.632812 28.6875 L 34.632812 26.949219 C 34.328125 27.175781 33.964844 27.296875 33.582031 27.296875 Z M 33.582031 27.296875 " fill-opacity="1" fill-rule="nonzero"/><path fill="#000000" d="M 25.308594 15.371094 L 27.390625 15.371094 L 27.390625 15.902344 L 25.308594 15.902344 Z M 25.308594 15.371094 " fill-opacity="1" fill-rule="nonzero"/><path fill="#000000" d="M 10.390625 21.324219 C 10.269531 21.289062 10.140625 21.359375 10.097656 21.480469 L 9.421875 23.460938 C 9.375 23.59375 9.449219 23.734375 9.582031 23.773438 L 10.828125 24.125 C 10.960938 24.164062 11.097656 24.078125 11.128906 23.941406 L 11.570312 21.894531 C 11.597656 21.769531 11.523438 21.644531 11.398438 21.609375 Z M 11.402344 21.859375 L 10.960938 23.90625 C 10.957031 23.933594 10.9375 23.945312 10.929688 23.953125 C 10.917969 23.957031 10.898438 23.964844 10.875 23.960938 L 9.628906 23.605469 C 9.605469 23.601562 9.59375 23.582031 9.585938 23.570312 C 9.582031 23.5625 9.574219 23.542969 9.582031 23.515625 L 10.257812 21.535156 C 10.273438 21.5 10.308594 21.480469 10.34375 21.492188 L 11.355469 21.777344 C 11.390625 21.785156 11.410156 21.824219 11.402344 21.859375 Z M 11.402344 21.859375 " fill-opacity="1" fill-rule="nonzero"/><path fill="#000000" d="M 9.929688 20.769531 L 10.480469 20.925781 L 10.417969 21.152344 L 11.464844 21.449219 L 11.507812 21.292969 L 12.128906 21.464844 L 12.164062 21.34375 L 13.113281 21.609375 L 13.171875 21.390625 L 12.226562 21.125 L 12.257812 21 L 11.640625 20.824219 L 11.683594 20.664062 L 10.636719 20.367188 L 10.570312 20.59375 L 10.011719 20.4375 C 10.011719 20.550781 9.984375 20.664062 9.929688 20.769531 Z M 9.929688 20.769531 " fill-opacity="1" fill-rule="nonzero"/><path fill="#000000" d="M 10.722656 23.679688 L 10.78125 23.429688 L 10.890625 23.453125 L 10.835938 23.703125 Z M 10.722656 23.679688 " fill-opacity="1" fill-rule="nonzero"/><path fill="#000000" d="M 10.835938 23.171875 L 11.125 21.859375 L 11.238281 21.886719 L 10.949219 23.195312 Z M 10.835938 23.171875 " fill-opacity="1" fill-rule="nonzero"/><g clip-path="url(#2dfdec5ce2)"><path fill="#000000" d="M 2.929688 27.636719 C 2.660156 28.050781 2.769531 28.601562 3.175781 28.875 C 3.328125 28.976562 3.496094 29.023438 3.664062 29.023438 C 3.953125 29.023438 4.234375 28.882812 4.402344 28.625 C 5.394531 27.113281 5.707031 25.726562 5.710938 24.582031 L 3.617188 22.867188 C 4.023438 23.894531 4.269531 25.59375 2.929688 27.636719 Z M 2.929688 27.636719 " fill-opacity="1" fill-rule="nonzero"/></g><g clip-path="url(#600853589d)"><path fill="#000000" d="M 7.0625 27.070312 C 7.046875 27.21875 7.035156 27.363281 7.019531 27.503906 L 7.308594 28.425781 C 7.425781 28.808594 7.777344 29.050781 8.152344 29.050781 C 8.238281 29.050781 8.328125 29.039062 8.417969 29.007812 C 8.882812 28.859375 9.140625 28.359375 8.992188 27.886719 L 7.753906 23.9375 C 7.730469 23.859375 7.695312 23.789062 7.652344 23.722656 C 7.289062 24.859375 7.167969 26.027344 7.0625 27.070312 Z M 7.0625 27.070312 " fill-opacity="1" fill-rule="nonzero"/></g><path fill="#000000" d="M 7.667969 16.980469 C 8.53125 17.152344 9.367188 16.585938 9.535156 15.714844 C 9.707031 14.84375 9.144531 13.996094 8.28125 13.828125 C 7.417969 13.65625 6.582031 14.226562 6.414062 15.097656 C 6.246094 15.96875 6.808594 16.8125 7.667969 16.980469 Z M 7.667969 16.980469 " fill-opacity="1" fill-rule="nonzero"/><path fill="#000000" d="M 6.039062 17.585938 C 5.933594 17.289062 5.609375 17.136719 5.316406 17.242188 C 5.019531 17.347656 4.867188 17.675781 4.972656 17.972656 L 5.914062 20.628906 C 5.996094 20.859375 6.210938 21.007812 6.445312 21.007812 C 6.464844 21.007812 6.484375 21.007812 6.503906 21.003906 L 8.816406 20.769531 L 8.914062 20.855469 C 9.148438 21.0625 9.503906 21.039062 9.710938 20.800781 C 9.917969 20.5625 9.894531 20.203125 9.65625 19.996094 L 9.378906 19.746094 C 9.261719 19.644531 9.105469 19.59375 8.949219 19.609375 L 6.832031 19.824219 Z M 6.039062 17.585938 " fill-opacity="1" fill-rule="nonzero"/><g clip-path="url(#a230c91fd4)"><path fill="#000000" d="M 1.851562 29.277344 C 2.394531 29.554688 3.121094 29.609375 3.96875 29.609375 C 4.242188 29.609375 4.535156 29.605469 4.832031 29.597656 C 5.152344 29.589844 5.480469 29.585938 5.816406 29.585938 C 6.527344 29.585938 6.699219 28.726562 6.839844 27.476562 C 6.855469 27.34375 6.867188 27.210938 6.882812 27.070312 L 6.882812 27.078125 C 6.886719 27.066406 6.886719 27.058594 6.886719 27.050781 C 6.992188 26.023438 7.121094 24.75 7.519531 23.558594 C 7.519531 23.554688 7.515625 23.554688 7.511719 23.550781 C 7.527344 23.492188 7.546875 23.4375 7.566406 23.382812 C 7.824219 22.648438 8.183594 21.945312 8.703125 21.335938 L 8.75 21.386719 L 9.039062 21.117188 C 8.953125 21.085938 8.875 21.039062 8.804688 20.980469 L 8.761719 20.941406 L 8.71875 20.945312 L 8.519531 21.132812 L 8.582031 21.203125 C 8.050781 21.820312 7.683594 22.527344 7.421875 23.261719 C 7.402344 23.316406 7.382812 23.371094 7.363281 23.425781 L 4.988281 21.476562 C 5.113281 20.992188 5.3125 20.507812 5.535156 20.050781 L 4.820312 18.027344 C 4.753906 17.84375 4.761719 17.644531 4.847656 17.464844 C 4.929688 17.289062 5.078125 17.152344 5.257812 17.085938 C 5.339844 17.058594 5.421875 17.042969 5.503906 17.042969 C 5.8125 17.042969 6.085938 17.238281 6.191406 17.53125 L 6.480469 18.34375 C 6.851562 17.742188 6.847656 16.902344 6.34375 16.578125 C 5.820312 16.238281 4.886719 16.269531 4.21875 17.148438 C 3.304688 18.355469 2.910156 19.210938 2.582031 20.773438 C 2.535156 21.121094 2.566406 21.394531 2.648438 21.617188 C 2.691406 21.804688 2.792969 21.976562 2.949219 22.105469 L 3.277344 22.371094 L 6.148438 24.730469 L 6.75 26.644531 C 6.738281 26.75 6.726562 26.847656 6.71875 26.945312 C 6.714844 26.984375 6.710938 27.019531 6.707031 27.054688 C 6.5625 28.425781 6.445312 29.40625 5.816406 29.40625 C 5.480469 29.40625 5.148438 29.414062 4.828125 29.417969 C 3.640625 29.445312 2.613281 29.464844 1.933594 29.117188 C 1.03125 28.65625 -0.914062 28.863281 -1 28.871094 L -0.980469 29.050781 C -0.960938 29.046875 1 28.839844 1.851562 29.277344 Z M 1.851562 29.277344 " fill-opacity="1" fill-rule="nonzero"/></g><path fill="#000000" d="M 21.609375 18.753906 C 21.941406 18.753906 22.210938 18.480469 22.210938 18.148438 C 22.210938 17.8125 21.941406 17.539062 21.609375 17.539062 C 21.277344 17.539062 21.007812 17.8125 21.007812 18.148438 C 21.007812 18.480469 21.277344 18.753906 21.609375 18.753906 Z M 21.609375 17.71875 C 21.84375 17.71875 22.03125 17.910156 22.03125 18.148438 C 22.03125 18.382812 21.84375 18.574219 21.609375 18.574219 C 21.375 18.574219 21.1875 18.382812 21.1875 18.148438 C 21.1875 17.910156 21.375 17.71875 21.609375 17.71875 Z M 21.609375 17.71875 " fill-opacity="1" fill-rule="nonzero"/><path fill="#000000" d="M 16.285156 19.898438 C 16.554688 19.898438 16.773438 19.675781 16.773438 19.402344 C 16.773438 19.128906 16.554688 18.910156 16.285156 18.910156 C 16.015625 18.910156 15.796875 19.128906 15.796875 19.402344 C 15.796875 19.675781 16.015625 19.898438 16.285156 19.898438 Z M 16.597656 19.402344 C 16.597656 19.578125 16.457031 19.71875 16.285156 19.71875 C 16.113281 19.71875 15.972656 19.578125 15.972656 19.402344 C 15.972656 19.230469 16.113281 19.085938 16.285156 19.085938 C 16.457031 19.085938 16.597656 19.230469 16.597656 19.402344 Z M 16.597656 19.402344 " fill-opacity="1" fill-rule="nonzero"/><path fill="#000000" d="M 15.625 27.242188 C 15.625 27.515625 15.84375 27.738281 16.113281 27.738281 C 16.382812 27.738281 16.605469 27.515625 16.605469 27.242188 C 16.605469 26.96875 16.382812 26.75 16.113281 26.75 C 15.84375 26.75 15.625 26.96875 15.625 27.242188 Z M 16.113281 27.558594 C 15.941406 27.558594 15.800781 27.417969 15.800781 27.242188 C 15.800781 27.070312 15.941406 26.925781 16.113281 26.925781 C 16.285156 26.925781 16.425781 27.070312 16.425781 27.242188 C 16.425781 27.417969 16.285156 27.558594 16.113281 27.558594 Z M 16.113281 27.558594 " fill-opacity="1" fill-rule="nonzero"/><path fill="#000000" d="M 12.011719 26.171875 C 12.011719 26.445312 12.230469 26.667969 12.5 26.667969 C 12.769531 26.667969 12.992188 26.445312 12.992188 26.171875 C 12.992188 25.902344 12.769531 25.679688 12.5 25.679688 C 12.230469 25.679688 12.011719 25.902344 12.011719 26.171875 Z M 12.1875 26.171875 C 12.1875 26 12.328125 25.859375 12.5 25.859375 C 12.675781 25.859375 12.8125 26 12.8125 26.171875 C 12.8125 26.347656 12.675781 26.488281 12.5 26.488281 C 12.328125 26.488281 12.1875 26.347656 12.1875 26.171875 Z M 12.1875 26.171875 " fill-opacity="1" fill-rule="nonzero"/><path fill="#000000" d="M 13.40625 11.226562 C 13.597656 11.226562 13.753906 11.066406 13.753906 10.875 C 13.753906 10.679688 13.597656 10.519531 13.40625 10.519531 C 13.210938 10.519531 13.054688 10.679688 13.054688 10.875 C 13.054688 11.066406 13.210938 11.226562 13.40625 11.226562 Z M 13.40625 10.699219 C 13.5 10.699219 13.578125 10.777344 13.578125 10.875 C 13.578125 10.96875 13.5 11.046875 13.40625 11.046875 C 13.308594 11.046875 13.230469 10.96875 13.230469 10.875 C 13.230469 10.777344 13.308594 10.699219 13.40625 10.699219 Z M 13.40625 10.699219 " fill-opacity="1" fill-rule="nonzero"/><path fill="#000000" d="M 16.941406 11.226562 C 17.132812 11.226562 17.289062 11.066406 17.289062 10.875 C 17.289062 10.679688 17.132812 10.519531 16.941406 10.519531 C 16.746094 10.519531 16.589844 10.679688 16.589844 10.875 C 16.589844 11.066406 16.746094 11.226562 16.941406 11.226562 Z M 16.941406 10.699219 C 17.035156 10.699219 17.113281 10.777344 17.113281 10.875 C 17.113281 10.96875 17.035156 11.046875 16.941406 11.046875 C 16.84375 11.046875 16.765625 10.96875 16.765625 10.875 C 16.765625 10.777344 16.84375 10.699219 16.941406 10.699219 Z M 16.941406 10.699219 " fill-opacity="1" fill-rule="nonzero"/><path fill="#000000" d="M 25.222656 12.582031 C 25.417969 12.582031 25.574219 12.421875 25.574219 12.230469 C 25.574219 12.035156 25.417969 11.875 25.222656 11.875 C 25.03125 11.875 24.875 12.035156 24.875 12.230469 C 24.875 12.421875 25.03125 12.582031 25.222656 12.582031 Z M 25.222656 12.054688 C 25.320312 12.054688 25.398438 12.132812 25.398438 12.230469 C 25.398438 12.324219 25.320312 12.402344 25.222656 12.402344 C 25.128906 12.402344 25.050781 12.324219 25.050781 12.230469 C 25.050781 12.132812 25.128906 12.054688 25.222656 12.054688 Z M 25.222656 12.054688 " fill-opacity="1" fill-rule="nonzero"/><path fill="#000000" d="M 12.125 16.683594 C 12.316406 16.683594 12.472656 16.523438 12.472656 16.328125 C 12.472656 16.132812 12.316406 15.976562 12.125 15.976562 C 11.929688 15.976562 11.773438 16.132812 11.773438 16.328125 C 11.773438 16.523438 11.929688 16.683594 12.125 16.683594 Z M 12.125 16.15625 C 12.21875 16.15625 12.296875 16.234375 12.296875 16.328125 C 12.296875 16.425781 12.21875 16.503906 12.125 16.503906 C 12.027344 16.503906 11.953125 16.425781 11.953125 16.328125 C 11.953125 16.234375 12.027344 16.15625 12.125 16.15625 Z M 12.125 16.15625 " fill-opacity="1" fill-rule="nonzero"/><path fill="#000000" d="M 17.136719 15.257812 C 17.136719 15.53125 17.355469 15.753906 17.625 15.753906 C 17.894531 15.753906 18.113281 15.53125 18.113281 15.257812 C 18.113281 14.984375 17.894531 14.765625 17.625 14.765625 C 17.355469 14.765625 17.136719 14.984375 17.136719 15.257812 Z M 17.625 14.941406 C 17.796875 14.941406 17.9375 15.085938 17.9375 15.257812 C 17.9375 15.433594 17.796875 15.574219 17.625 15.574219 C 17.453125 15.574219 17.3125 15.433594 17.3125 15.257812 C 17.3125 15.085938 17.453125 14.941406 17.625 14.941406 Z M 17.625 14.941406 " fill-opacity="1" fill-rule="nonzero"/><path fill="#000000" d="M 20.683594 10.585938 C 20.953125 10.585938 21.175781 10.367188 21.175781 10.09375 C 21.175781 9.820312 20.953125 9.597656 20.683594 9.597656 C 20.414062 9.597656 20.195312 9.820312 20.195312 10.09375 C 20.195312 10.367188 20.414062 10.585938 20.683594 10.585938 Z M 20.683594 9.777344 C 20.855469 9.777344 20.996094 9.917969 20.996094 10.09375 C 20.996094 10.265625 20.855469 10.410156 20.683594 10.410156 C 20.511719 10.410156 20.371094 10.265625 20.371094 10.09375 C 20.371094 9.917969 20.511719 9.777344 20.683594 9.777344 Z M 20.683594 9.777344 " fill-opacity="1" fill-rule="nonzero"/><path fill="#000000" d="M 24.679688 13.859375 C 24.949219 13.859375 25.167969 13.636719 25.167969 13.363281 C 25.167969 13.089844 24.949219 12.871094 24.679688 12.871094 C 24.410156 12.871094 24.191406 13.089844 24.191406 13.363281 C 24.191406 13.636719 24.410156 13.859375 24.679688 13.859375 Z M 24.679688 13.046875 C 24.851562 13.046875 24.992188 13.191406 24.992188 13.363281 C 24.992188 13.539062 24.851562 13.679688 24.679688 13.679688 C 24.507812 13.679688 24.367188 13.539062 24.367188 13.363281 C 24.367188 13.191406 24.507812 13.046875 24.679688 13.046875 Z M 24.679688 13.046875 " fill-opacity="1" fill-rule="nonzero"/><path fill="#000000" d="M 19.074219 15.644531 C 19.34375 15.644531 19.5625 15.421875 19.5625 15.148438 C 19.5625 14.875 19.34375 14.652344 19.074219 14.652344 C 18.804688 14.652344 18.582031 14.875 18.582031 15.148438 C 18.582031 15.421875 18.804688 15.644531 19.074219 15.644531 Z M 19.074219 14.832031 C 19.246094 14.832031 19.386719 14.972656 19.386719 15.148438 C 19.386719 15.324219 19.246094 15.464844 19.074219 15.464844 C 18.902344 15.464844 18.761719 15.324219 18.761719 15.148438 C 18.761719 14.972656 18.902344 14.832031 19.074219 14.832031 Z M 19.074219 14.832031 " fill-opacity="1" fill-rule="nonzero"/><path fill="#000000" d="M 15.335938 16.941406 C 15.335938 17.214844 15.554688 17.433594 15.824219 17.433594 C 16.097656 17.433594 16.316406 17.214844 16.316406 16.941406 C 16.316406 16.667969 16.097656 16.445312 15.824219 16.445312 C 15.554688 16.445312 15.335938 16.667969 15.335938 16.941406 Z M 15.824219 17.257812 C 15.652344 17.257812 15.511719 17.117188 15.511719 16.941406 C 15.511719 16.765625 15.652344 16.625 15.824219 16.625 C 16 16.625 16.140625 16.765625 16.140625 16.941406 C 16.140625 17.117188 16 17.257812 15.824219 17.257812 Z M 15.824219 17.257812 " fill-opacity="1" fill-rule="nonzero"/><path fill="#000000" d="M 19.191406 13.222656 C 19.460938 13.222656 19.679688 13 19.679688 12.726562 C 19.679688 12.453125 19.460938 12.234375 19.191406 12.234375 C 18.917969 12.234375 18.699219 12.453125 18.699219 12.726562 C 18.699219 13 18.917969 13.222656 19.191406 13.222656 Z M 19.191406 12.410156 C 19.363281 12.410156 19.503906 12.554688 19.503906 12.726562 C 19.503906 12.902344 19.363281 13.042969 19.191406 13.042969 C 19.015625 13.042969 18.878906 12.902344 18.878906 12.726562 C 18.878906 12.554688 19.015625 12.410156 19.191406 12.410156 Z M 19.191406 12.410156 " fill-opacity="1" fill-rule="nonzero"/><path fill="#000000" d="M 14.898438 13.652344 C 15.167969 13.652344 15.390625 13.433594 15.390625 13.160156 C 15.390625 12.886719 15.167969 12.664062 14.898438 12.664062 C 14.628906 12.664062 14.410156 12.886719 14.410156 13.160156 C 14.410156 13.433594 14.628906 13.652344 14.898438 13.652344 Z M 14.898438 12.84375 C 15.070312 12.84375 15.210938 12.984375 15.210938 13.160156 C 15.210938 13.332031 15.070312 13.476562 14.898438 13.476562 C 14.726562 13.476562 14.585938 13.332031 14.585938 13.160156 C 14.585938 12.984375 14.726562 12.84375 14.898438 12.84375 Z M 14.898438 12.84375 " fill-opacity="1" fill-rule="nonzero"/><path fill="#000000" d="M 28.441406 12.121094 C 28.710938 12.121094 28.929688 11.898438 28.929688 11.625 C 28.929688 11.355469 28.710938 11.132812 28.441406 11.132812 C 28.171875 11.132812 27.949219 11.355469 27.949219 11.625 C 27.949219 11.898438 28.171875 12.121094 28.441406 12.121094 Z M 28.441406 11.308594 C 28.613281 11.308594 28.753906 11.453125 28.753906 11.625 C 28.753906 11.800781 28.613281 11.941406 28.441406 11.941406 C 28.269531 11.941406 28.128906 11.800781 28.128906 11.625 C 28.128906 11.453125 28.269531 11.308594 28.441406 11.308594 Z M 28.441406 11.308594 " fill-opacity="1" fill-rule="nonzero"/><path fill="#000000" d="M 22.40625 12.910156 C 22.675781 12.910156 22.894531 12.6875 22.894531 12.414062 C 22.894531 12.140625 22.675781 11.917969 22.40625 11.917969 C 22.136719 11.917969 21.917969 12.140625 21.917969 12.414062 C 21.917969 12.6875 22.136719 12.910156 22.40625 12.910156 Z M 22.71875 12.414062 C 22.71875 12.589844 22.578125 12.730469 22.40625 12.730469 C 22.234375 12.730469 22.09375 12.589844 22.09375 12.414062 C 22.09375 12.238281 22.234375 12.097656 22.40625 12.097656 C 22.578125 12.097656 22.71875 12.238281 22.71875 12.414062 Z M 22.71875 12.414062 " fill-opacity="1" fill-rule="nonzero"/><path fill="#000000" d="M 24.328125 19.332031 C 24.597656 19.332031 24.820312 19.109375 24.820312 18.835938 C 24.820312 18.5625 24.597656 18.339844 24.328125 18.339844 C 24.058594 18.339844 23.839844 18.5625 23.839844 18.835938 C 23.839844 19.109375 24.058594 19.332031 24.328125 19.332031 Z M 24.328125 18.519531 C 24.5 18.519531 24.640625 18.660156 24.640625 18.835938 C 24.640625 19.011719 24.5 19.152344 24.328125 19.152344 C 24.15625 19.152344 24.015625 19.011719 24.015625 18.835938 C 24.015625 18.660156 24.15625 18.519531 24.328125 18.519531 Z M 24.328125 18.519531 " fill-opacity="1" fill-rule="nonzero"/><path fill="#000000" d="M 24.734375 17.484375 C 25.003906 17.484375 25.222656 17.261719 25.222656 16.988281 C 25.222656 16.714844 25.003906 16.492188 24.734375 16.492188 C 24.464844 16.492188 24.246094 16.714844 24.246094 16.988281 C 24.246094 17.261719 24.464844 17.484375 24.734375 17.484375 Z M 24.734375 16.671875 C 24.90625 16.671875 25.046875 16.8125 25.046875 16.988281 C 25.046875 17.164062 24.90625 17.304688 24.734375 17.304688 C 24.5625 17.304688 24.421875 17.164062 24.421875 16.988281 C 24.421875 16.8125 24.5625 16.671875 24.734375 16.671875 Z M 24.734375 16.671875 " fill-opacity="1" fill-rule="nonzero"/><path fill="#000000" d="M 22.703125 16.996094 C 22.972656 16.996094 23.191406 16.773438 23.191406 16.5 C 23.191406 16.226562 22.972656 16.007812 22.703125 16.007812 C 22.429688 16.007812 22.210938 16.226562 22.210938 16.5 C 22.210938 16.773438 22.429688 16.996094 22.703125 16.996094 Z M 22.703125 16.183594 C 22.875 16.183594 23.015625 16.328125 23.015625 16.5 C 23.015625 16.675781 22.875 16.816406 22.703125 16.816406 C 22.527344 16.816406 22.390625 16.675781 22.390625 16.5 C 22.390625 16.328125 22.527344 16.183594 22.703125 16.183594 Z M 22.703125 16.183594 " fill-opacity="1" fill-rule="nonzero"/><path fill="#000000" d="M 29.875 19.390625 C 30.148438 19.390625 30.367188 19.167969 30.367188 18.894531 C 30.367188 18.625 30.148438 18.402344 29.875 18.402344 C 29.605469 18.402344 29.386719 18.625 29.386719 18.894531 C 29.386719 19.167969 29.605469 19.390625 29.875 19.390625 Z M 29.875 18.582031 C 30.050781 18.582031 30.191406 18.722656 30.191406 18.894531 C 30.191406 19.070312 30.050781 19.210938 29.875 19.210938 C 29.703125 19.210938 29.5625 19.070312 29.5625 18.894531 C 29.5625 18.722656 29.703125 18.582031 29.875 18.582031 Z M 29.875 18.582031 " fill-opacity="1" fill-rule="nonzero"/></svg>