<svg xmlns="http://www.w3.org/2000/svg" xmlns:xlink="http://www.w3.org/1999/xlink" width="50" zoomAndPan="magnify" viewBox="0 0 37.5 37.499999" height="50" preserveAspectRatio="xMidYMid meet" version="1.0"><defs><clipPath id="3a71db5fea"><path d="M 16 9.769531 L 35.59375 9.769531 L 35.59375 24 L 16 24 Z M 16 9.769531 " clip-rule="nonzero"/></clipPath><clipPath id="410beeaeff"><path d="M 1.546875 19 L 14 19 L 14 27.535156 L 1.546875 27.535156 Z M 1.546875 19 " clip-rule="nonzero"/></clipPath></defs><path fill="#000000" d="M 15.269531 17.429688 L 15.261719 17.542969 L 16.023438 17.597656 C 16.03125 17.5625 16.039062 17.523438 16.046875 17.488281 Z M 15.269531 17.429688 " fill-opacity="1" fill-rule="nonzero"/><path fill="#000000" d="M 15.238281 17.632812 L 15.191406 17.734375 L 15.960938 18.105469 C 15.964844 18.066406 15.96875 18.027344 15.972656 17.988281 Z M 15.238281 17.632812 " fill-opacity="1" fill-rule="nonzero"/><path fill="#000000" d="M 17.929688 23.96875 C 17.511719 23.96875 17.113281 23.835938 16.78125 23.585938 L 16.78125 25.5 C 16.78125 25.617188 16.875 25.714844 16.992188 25.714844 L 18.941406 25.714844 C 19.058594 25.714844 19.15625 25.617188 19.15625 25.5 L 19.15625 23.96875 Z M 17.929688 23.96875 " fill-opacity="1" fill-rule="nonzero"/><path fill="#000000" d="M 33.804688 23.96875 L 32.582031 23.96875 L 32.582031 25.5 C 32.582031 25.617188 32.679688 25.714844 32.796875 25.714844 L 34.742188 25.714844 C 34.863281 25.714844 34.957031 25.617188 34.957031 25.5 L 34.957031 23.585938 C 34.625 23.835938 34.222656 23.96875 33.804688 23.96875 Z M 33.804688 23.96875 " fill-opacity="1" fill-rule="nonzero"/><g clip-path="url(#3a71db5fea)"><path fill="#000000" d="M 16.414062 21.992188 C 16.414062 22.414062 16.585938 22.816406 16.886719 23.105469 C 17.171875 23.378906 17.542969 23.527344 17.929688 23.527344 L 33.804688 23.527344 C 34.195312 23.527344 34.566406 23.378906 34.847656 23.105469 C 35.148438 22.816406 35.320312 22.414062 35.320312 21.992188 L 35.320312 18.402344 C 35.320312 17.746094 35.15625 17.101562 34.847656 16.523438 L 34.039062 15.035156 L 35.175781 15.035156 C 35.5625 15.035156 35.5625 13.609375 35.175781 13.609375 L 33.269531 13.609375 L 31.683594 10.683594 C 31.410156 10.179688 30.894531 9.859375 30.328125 9.851562 L 25.867188 9.769531 L 21.410156 9.851562 C 20.84375 9.859375 20.324219 10.179688 20.054688 10.683594 L 18.46875 13.609375 L 16.5625 13.609375 C 16.175781 13.609375 16.175781 15.035156 16.5625 15.035156 L 17.695312 15.035156 L 16.890625 16.523438 C 16.578125 17.101562 16.414062 17.746094 16.414062 18.402344 Z M 28.617188 22.386719 C 28.617188 22.472656 28.546875 22.542969 28.460938 22.542969 L 23.273438 22.542969 C 23.191406 22.542969 23.121094 22.472656 23.121094 22.386719 L 23.121094 21.375 C 23.121094 21.289062 23.191406 21.21875 23.273438 21.21875 L 28.460938 21.21875 C 28.546875 21.21875 28.617188 21.289062 28.617188 21.375 Z M 33.960938 17.214844 C 34.171875 17.664062 33.980469 18.199219 33.535156 18.414062 C 33.429688 18.464844 33.320312 18.492188 33.210938 18.496094 L 30.917969 18.632812 C 30.675781 18.644531 30.464844 18.457031 30.449219 18.210938 C 30.4375 18.019531 30.546875 17.851562 30.703125 17.777344 L 32.777344 16.785156 C 33.222656 16.574219 33.75 16.765625 33.960938 17.214844 Z M 18.410156 15.25 L 20.691406 11.035156 C 20.835938 10.761719 21.117188 10.59375 21.421875 10.585938 L 25.867188 10.507812 L 30.3125 10.585938 C 30.621094 10.59375 30.898438 10.761719 31.046875 11.035156 L 33.328125 15.25 C 33.429688 15.4375 33.296875 15.667969 33.085938 15.667969 L 18.652344 15.667969 C 18.441406 15.667969 18.308594 15.4375 18.410156 15.25 Z M 17.691406 17.546875 C 17.722656 17.050781 18.140625 16.671875 18.628906 16.703125 C 18.746094 16.707031 18.859375 16.738281 18.957031 16.785156 L 21.035156 17.777344 C 21.253906 17.882812 21.347656 18.152344 21.246094 18.375 C 21.164062 18.546875 20.992188 18.640625 20.820312 18.632812 L 18.527344 18.496094 C 18.039062 18.46875 17.664062 18.042969 17.691406 17.546875 Z M 17.691406 17.546875 " fill-opacity="1" fill-rule="nonzero"/></g><path fill="#000000" d="M 24.726562 10.839844 L 27.011719 10.839844 L 27.011719 11.421875 L 24.726562 11.421875 Z M 24.726562 10.839844 " fill-opacity="1" fill-rule="nonzero"/><path fill="#000000" d="M 4.933594 23.757812 C 4.398438 23.796875 3.996094 24.269531 4.035156 24.808594 C 4.074219 25.328125 4.5 25.722656 5.003906 25.722656 C 5.027344 25.722656 5.050781 25.71875 5.074219 25.71875 L 9.867188 25.363281 C 10.289062 25.332031 10.640625 25.03125 10.738281 24.613281 C 10.839844 24.199219 10.660156 23.765625 10.296875 23.542969 L 7.277344 21.695312 L 7.441406 21.585938 L 8.46875 22.210938 L 9.859375 21.789062 L 9.980469 23.136719 L 10.390625 23.386719 C 10.820312 23.652344 11.03125 24.160156 10.914062 24.65625 C 10.832031 25.003906 10.601562 25.28125 10.300781 25.429688 C 10.476562 25.703125 10.777344 25.878906 11.113281 25.878906 C 11.144531 25.878906 11.175781 25.878906 11.207031 25.875 C 11.738281 25.824219 12.132812 25.347656 12.082031 24.804688 L 11.679688 20.410156 C 11.664062 20.210938 11.585938 20.03125 11.46875 19.878906 L 10.152344 20.640625 C 10.03125 20.707031 9.894531 20.746094 9.757812 20.746094 C 9.5625 20.746094 9.378906 20.675781 9.234375 20.546875 L 8.707031 20.085938 L 7.449219 20.46875 C 7.464844 20.402344 7.484375 20.332031 7.5 20.265625 C 7.589844 19.929688 7.691406 19.597656 7.792969 19.28125 L 6.605469 18.234375 C 6.273438 17.941406 6.234375 17.429688 6.523438 17.09375 C 6.675781 16.914062 6.898438 16.8125 7.128906 16.8125 C 7.320312 16.8125 7.507812 16.882812 7.652344 17.011719 L 8.351562 17.628906 C 8.472656 16.984375 8.273438 16.308594 7.761719 16.09375 C 7.128906 15.832031 6.125 16.054688 5.578125 17.136719 C 4.828125 18.628906 4.570312 19.632812 4.519531 21.390625 C 4.5625 22.257812 4.949219 22.65625 5.414062 22.851562 L 5.496094 22.902344 L 6.683594 23.628906 Z M 4.933594 23.757812 " fill-opacity="1" fill-rule="nonzero"/><path fill="#000000" d="M 12.769531 17.492188 L 13.117188 17.558594 C 13.289062 17.59375 13.441406 17.683594 13.558594 17.8125 C 13.6875 17.832031 13.820312 17.789062 13.917969 17.695312 L 13.945312 17.671875 L 14.460938 17.757812 L 14.476562 17.675781 L 14.675781 17.710938 L 14.6875 17.617188 L 15.011719 17.667969 L 15.050781 17.429688 L 14.730469 17.375 L 14.742188 17.28125 L 14.542969 17.246094 L 14.558594 17.167969 L 13.84375 17.046875 L 14.230469 16.515625 C 14.316406 16.394531 14.375 16.261719 14.398438 16.121094 L 14.554688 15.160156 L 14.589844 15.167969 C 14.628906 15.171875 14.667969 15.148438 14.671875 15.109375 C 14.679688 15.066406 14.652344 15.03125 14.613281 15.023438 L 13.183594 14.785156 C 13.144531 14.777344 13.109375 14.804688 13.101562 14.84375 C 13.097656 14.882812 13.125 14.921875 13.160156 14.929688 L 13.199219 14.933594 L 13.199219 14.9375 L 13.847656 15.042969 L 13.832031 15.152344 L 13.179688 15.042969 L 13.042969 15.894531 C 13.019531 16.035156 13.03125 16.179688 13.074219 16.324219 L 13.273438 16.953125 L 12.242188 16.777344 L 12.144531 17.367188 L 12.679688 17.457031 L 12.675781 17.480469 C 12.707031 17.480469 12.738281 17.484375 12.769531 17.492188 Z M 13.949219 15.058594 L 14.121094 15.085938 L 14.105469 15.195312 L 13.933594 15.167969 Z M 13.949219 15.058594 " fill-opacity="1" fill-rule="nonzero"/><g clip-path="url(#410beeaeff)"><path fill="#000000" d="M 12.964844 19.164062 C 12.914062 19.164062 12.863281 19.160156 12.8125 19.148438 L 12.789062 19.144531 L 12.707031 19.652344 L 12.78125 19.664062 C 12.621094 20.964844 12.613281 23.507812 13.273438 25.144531 C 13.40625 25.472656 13.402344 25.730469 13.261719 25.933594 C 12.773438 26.648438 10.691406 26.648438 8.601562 26.585938 C 7.074219 26.539062 6.933594 26.773438 6.886719 26.851562 C 6.875 26.871094 6.867188 26.890625 6.863281 26.914062 C 6.804688 26.914062 6.75 26.917969 6.691406 26.921875 C 4.382812 27.011719 3.652344 26.433594 3.0625 25.972656 C 2.660156 25.652344 2.3125 25.378906 1.578125 25.464844 L 1.597656 25.621094 C 2.265625 25.542969 2.558594 25.773438 2.96875 26.09375 C 3.542969 26.550781 4.332031 27.171875 6.695312 27.078125 C 6.765625 27.074219 6.828125 27.074219 6.894531 27.070312 C 7.042969 27.316406 7.660156 27.523438 8.085938 27.53125 C 8.09375 27.53125 8.105469 27.53125 8.117188 27.53125 C 8.511719 27.53125 9.167969 27.40625 9.269531 27.226562 C 9.292969 27.1875 9.292969 27.136719 9.265625 27.097656 C 9.226562 27.027344 9.117188 26.84375 7.042969 26.90625 C 7.121094 26.839844 7.429688 26.707031 8.597656 26.742188 C 10.816406 26.808594 12.855469 26.800781 13.386719 26.023438 C 13.558594 25.773438 13.566406 25.460938 13.417969 25.085938 C 12.765625 23.476562 12.773438 20.976562 12.9375 19.6875 L 13.011719 19.703125 L 13.101562 19.152344 C 13.058594 19.160156 13.011719 19.164062 12.964844 19.164062 Z M 9.117188 27.167969 C 9.011719 27.246094 8.523438 27.382812 8.085938 27.375 C 7.714844 27.367188 7.277344 27.210938 7.09375 27.0625 C 8.683594 27.019531 9.039062 27.125 9.117188 27.167969 Z M 9.117188 27.167969 " fill-opacity="1" fill-rule="nonzero"/></g><path fill="#000000" d="M 13.085938 17.738281 L 12.734375 17.667969 C 12.589844 17.640625 12.4375 17.664062 12.308594 17.738281 L 9.832031 19.167969 L 7.535156 17.148438 C 7.277344 16.921875 6.886719 16.949219 6.660156 17.210938 C 6.433594 17.472656 6.464844 17.871094 6.722656 18.097656 L 9.347656 20.410156 C 9.464844 20.511719 9.609375 20.5625 9.757812 20.5625 C 9.863281 20.5625 9.96875 20.535156 10.0625 20.480469 L 12.722656 18.949219 L 12.847656 18.972656 C 13.183594 19.039062 13.507812 18.816406 13.574219 18.476562 C 13.640625 18.132812 13.421875 17.804688 13.085938 17.738281 Z M 13.085938 17.738281 " fill-opacity="1" fill-rule="nonzero"/><path fill="#000000" d="M 9.132812 15.492188 C 9.101562 15.558594 9.097656 15.636719 9.117188 15.714844 L 7.574219 15.207031 C 7.726562 15.554688 7.996094 15.855469 8.355469 16.042969 C 8.8125 16.285156 9.324219 16.300781 9.773438 16.132812 L 9.898438 16.179688 C 9.914062 16.1875 9.929688 16.191406 9.945312 16.199219 C 10 16.222656 10.0625 16.246094 10.128906 16.246094 C 10.199219 16.246094 10.277344 16.21875 10.359375 16.140625 L 10.941406 15.507812 L 10.957031 15.488281 C 11.027344 15.339844 10.96875 15.152344 10.816406 15.054688 L 10.8125 15.050781 C 11.089844 14.234375 10.746094 13.316406 9.96875 12.90625 C 9.246094 12.523438 8.382812 12.703125 7.863281 13.289062 L 9.765625 14.492188 C 9.753906 14.496094 9.746094 14.496094 9.738281 14.5 C 9.65625 14.519531 9.59375 14.570312 9.554688 14.640625 L 7.71875 13.476562 C 7.679688 13.535156 7.644531 13.59375 7.613281 13.65625 C 7.402344 14.0625 7.367188 14.515625 7.472656 14.925781 L 9.140625 15.472656 Z M 9.785156 14.671875 C 9.800781 14.667969 9.816406 14.667969 9.832031 14.667969 C 9.875 14.667969 9.914062 14.679688 9.953125 14.703125 L 10.71875 15.207031 C 10.792969 15.253906 10.824219 15.332031 10.800781 15.394531 L 10.800781 15.398438 L 10.257812 15.046875 L 10.207031 15.125 L 10.734375 15.46875 L 10.234375 16.011719 C 10.152344 16.089844 10.113281 16.070312 10.011719 16.03125 C 9.996094 16.023438 9.976562 16.015625 9.960938 16.011719 L 9.417969 15.796875 C 9.359375 15.773438 9.3125 15.730469 9.292969 15.679688 C 9.277344 15.640625 9.277344 15.605469 9.292969 15.570312 L 9.703125 14.738281 C 9.71875 14.707031 9.746094 14.683594 9.785156 14.671875 Z M 9.785156 14.671875 " fill-opacity="1" fill-rule="nonzero"/><path fill="#000000" d="M 10.082031 15.046875 L 10.105469 15.007812 L 10.132812 14.964844 L 9.949219 14.847656 L 9.921875 14.886719 L 9.898438 14.929688 Z M 10.082031 15.046875 " fill-opacity="1" fill-rule="nonzero"/></svg>