<svg xmlns="http://www.w3.org/2000/svg" xmlns:xlink="http://www.w3.org/1999/xlink" width="50" zoomAndPan="magnify" viewBox="0 0 37.5 37.499999" height="50" preserveAspectRatio="xMidYMid meet" version="1.0"><defs><clipPath id="8f867046ab"><path d="M 16 10.355469 L 34.507812 10.355469 L 34.507812 23 L 16 23 Z M 16 10.355469 " clip-rule="nonzero"/></clipPath><clipPath id="16d2cb0cb1"><path d="M 2.683594 18 L 14 18 L 14 26.636719 L 2.683594 26.636719 Z M 2.683594 18 " clip-rule="nonzero"/></clipPath></defs><path fill="#FFFFFF" d="M 15.511719 17.378906 L 15.503906 17.480469 L 16.214844 17.53125 C 16.222656 17.496094 16.230469 17.464844 16.238281 17.429688 Z M 15.511719 17.378906 " fill-opacity="1" fill-rule="nonzero"/><path fill="#FFFFFF" d="M 15.480469 17.5625 L 15.4375 17.65625 L 16.15625 17.996094 C 16.160156 17.960938 16.164062 17.925781 16.167969 17.890625 Z M 15.480469 17.5625 " fill-opacity="1" fill-rule="nonzero"/><path fill="#FFFFFF" d="M 18 23.371094 C 17.609375 23.371094 17.234375 23.246094 16.921875 23.019531 L 16.921875 24.773438 C 16.921875 24.882812 17.011719 24.972656 17.121094 24.972656 L 18.941406 24.972656 C 19.054688 24.972656 19.140625 24.882812 19.140625 24.773438 L 19.140625 23.371094 Z M 18 23.371094 " fill-opacity="1" fill-rule="nonzero"/><path fill="#FFFFFF" d="M 32.835938 23.371094 L 31.695312 23.371094 L 31.695312 24.773438 C 31.695312 24.882812 31.78125 24.972656 31.894531 24.972656 L 33.714844 24.972656 C 33.824219 24.972656 33.914062 24.882812 33.914062 24.773438 L 33.914062 23.019531 C 33.601562 23.246094 33.226562 23.371094 32.835938 23.371094 Z M 32.835938 23.371094 " fill-opacity="1" fill-rule="nonzero"/><g clip-path="url(#8f867046ab)"><path fill="#FFFFFF" d="M 16.582031 21.558594 C 16.582031 21.945312 16.742188 22.316406 17.023438 22.582031 C 17.289062 22.828125 17.636719 22.964844 18 22.964844 L 32.835938 22.964844 C 33.199219 22.964844 33.546875 22.828125 33.8125 22.582031 C 34.09375 22.316406 34.253906 21.945312 34.253906 21.558594 L 34.253906 18.269531 C 34.253906 17.667969 34.101562 17.074219 33.808594 16.546875 L 33.058594 15.183594 L 34.117188 15.183594 C 34.476562 15.183594 34.476562 13.875 34.117188 13.875 L 32.335938 13.875 L 30.851562 11.191406 C 30.597656 10.730469 30.113281 10.4375 29.585938 10.429688 L 25.417969 10.355469 L 21.25 10.429688 C 20.722656 10.4375 20.238281 10.730469 19.980469 11.191406 L 18.5 13.875 L 16.71875 13.875 C 16.359375 13.875 16.359375 15.183594 16.71875 15.183594 L 17.777344 15.183594 L 17.027344 16.546875 C 16.734375 17.074219 16.582031 17.667969 16.582031 18.269531 Z M 27.984375 21.917969 C 27.984375 22 27.921875 22.0625 27.84375 22.0625 L 22.992188 22.0625 C 22.914062 22.0625 22.851562 22 22.851562 21.917969 L 22.851562 20.992188 C 22.851562 20.914062 22.914062 20.847656 22.992188 20.847656 L 27.84375 20.847656 C 27.921875 20.847656 27.984375 20.914062 27.984375 20.992188 Z M 32.984375 17.179688 C 33.179688 17.59375 33 18.082031 32.585938 18.277344 C 32.488281 18.324219 32.382812 18.347656 32.28125 18.355469 L 30.136719 18.476562 C 29.910156 18.492188 29.714844 18.316406 29.699219 18.089844 C 29.691406 17.917969 29.789062 17.765625 29.9375 17.695312 L 31.878906 16.785156 C 32.292969 16.59375 32.785156 16.769531 32.984375 17.179688 Z M 18.445312 15.378906 L 20.578125 11.515625 C 20.714844 11.265625 20.976562 11.109375 21.261719 11.105469 L 25.417969 11.03125 L 29.574219 11.105469 C 29.859375 11.109375 30.121094 11.265625 30.257812 11.515625 L 32.390625 15.378906 C 32.484375 15.550781 32.359375 15.761719 32.164062 15.761719 L 18.671875 15.761719 C 18.476562 15.761719 18.351562 15.550781 18.445312 15.378906 Z M 17.777344 17.484375 C 17.800781 17.03125 18.195312 16.683594 18.652344 16.707031 C 18.761719 16.714844 18.867188 16.742188 18.957031 16.785156 L 20.898438 17.695312 C 21.105469 17.792969 21.195312 18.039062 21.097656 18.242188 C 21.023438 18.398438 20.863281 18.488281 20.699219 18.476562 L 18.554688 18.355469 C 18.097656 18.328125 17.75 17.9375 17.777344 17.484375 Z M 17.777344 17.484375 " fill-opacity="1" fill-rule="nonzero"/></g><path fill="#FFFFFF" d="M 24.347656 11.335938 L 26.488281 11.335938 L 26.488281 11.871094 L 24.347656 11.871094 Z M 24.347656 11.335938 " fill-opacity="1" fill-rule="nonzero"/><path fill="#FFFFFF" d="M 5.847656 23.175781 C 5.347656 23.214844 4.972656 23.644531 5.011719 24.140625 C 5.046875 24.617188 5.441406 24.976562 5.914062 24.976562 C 5.9375 24.976562 5.957031 24.976562 5.980469 24.976562 L 10.460938 24.652344 C 10.855469 24.621094 11.183594 24.34375 11.277344 23.960938 C 11.367188 23.582031 11.203125 23.183594 10.863281 22.980469 L 8.039062 21.285156 L 8.191406 21.183594 L 9.152344 21.761719 L 10.453125 21.371094 L 10.566406 22.609375 L 10.949219 22.839844 C 11.351562 23.078125 11.546875 23.546875 11.4375 24 C 11.363281 24.316406 11.148438 24.574219 10.867188 24.710938 C 11.03125 24.960938 11.3125 25.121094 11.628906 25.121094 C 11.65625 25.121094 11.683594 25.121094 11.710938 25.117188 C 12.210938 25.070312 12.578125 24.632812 12.53125 24.136719 L 12.15625 20.105469 C 12.140625 19.925781 12.070312 19.757812 11.957031 19.621094 L 10.726562 20.316406 C 10.613281 20.382812 10.488281 20.414062 10.359375 20.414062 C 10.175781 20.414062 10.003906 20.351562 9.867188 20.234375 L 9.378906 19.8125 L 8.199219 20.164062 C 8.214844 20.101562 8.234375 20.039062 8.25 19.976562 C 8.332031 19.667969 8.425781 19.363281 8.523438 19.074219 L 7.410156 18.113281 C 7.101562 17.847656 7.066406 17.375 7.335938 17.066406 C 7.480469 16.90625 7.683594 16.8125 7.902344 16.8125 C 8.082031 16.8125 8.253906 16.875 8.390625 16.992188 L 9.046875 17.558594 C 9.15625 16.96875 8.972656 16.347656 8.492188 16.152344 C 7.902344 15.914062 6.964844 16.113281 6.449219 17.105469 C 5.75 18.476562 5.507812 19.398438 5.464844 21.007812 C 5.5 21.800781 5.863281 22.167969 6.296875 22.347656 L 6.375 22.394531 L 7.484375 23.058594 Z M 5.847656 23.175781 " fill-opacity="1" fill-rule="nonzero"/><path fill="#FFFFFF" d="M 13.171875 17.433594 L 13.5 17.496094 C 13.660156 17.527344 13.804688 17.609375 13.910156 17.726562 C 14.035156 17.746094 14.15625 17.707031 14.246094 17.621094 L 14.273438 17.597656 L 14.753906 17.675781 L 14.769531 17.601562 L 14.953125 17.632812 L 14.96875 17.546875 L 15.269531 17.597656 L 15.308594 17.375 L 15.003906 17.328125 L 15.019531 17.238281 L 14.832031 17.207031 L 14.84375 17.136719 L 14.175781 17.027344 L 14.539062 16.539062 C 14.621094 16.429688 14.671875 16.304688 14.695312 16.175781 L 14.839844 15.296875 L 14.875 15.300781 C 14.910156 15.308594 14.945312 15.285156 14.953125 15.246094 C 14.957031 15.210938 14.933594 15.175781 14.898438 15.171875 L 13.5625 14.953125 C 13.527344 14.945312 13.492188 14.972656 13.484375 15.007812 C 13.480469 15.042969 13.503906 15.078125 13.539062 15.082031 L 13.574219 15.089844 L 14.183594 15.1875 L 14.164062 15.289062 L 13.558594 15.191406 L 13.429688 15.96875 C 13.40625 16.097656 13.417969 16.230469 13.460938 16.363281 L 13.644531 16.9375 L 12.679688 16.78125 L 12.589844 17.320312 L 13.089844 17.402344 L 13.085938 17.421875 C 13.117188 17.425781 13.144531 17.425781 13.171875 17.433594 Z M 14.277344 15.203125 L 14.4375 15.230469 L 14.421875 15.328125 L 14.261719 15.304688 Z M 14.277344 15.203125 " fill-opacity="1" fill-rule="nonzero"/><g clip-path="url(#16d2cb0cb1)"><path fill="#FFFFFF" d="M 13.355469 18.96875 C 13.308594 18.96875 13.261719 18.960938 13.214844 18.953125 L 13.191406 18.949219 L 13.117188 19.414062 L 13.1875 19.421875 C 13.035156 20.617188 13.027344 22.949219 13.644531 24.449219 C 13.769531 24.746094 13.765625 24.984375 13.632812 25.171875 C 13.175781 25.828125 11.230469 25.824219 9.277344 25.769531 C 7.851562 25.726562 7.71875 25.941406 7.675781 26.011719 C 7.664062 26.03125 7.65625 26.050781 7.652344 26.070312 C 7.601562 26.070312 7.546875 26.074219 7.492188 26.078125 C 5.335938 26.160156 4.648438 25.632812 4.101562 25.207031 C 3.722656 24.914062 3.398438 24.664062 2.714844 24.742188 L 2.730469 24.886719 C 3.355469 24.8125 3.628906 25.027344 4.011719 25.320312 C 4.550781 25.734375 5.285156 26.308594 7.496094 26.21875 C 7.558594 26.21875 7.621094 26.214844 7.679688 26.214844 C 7.820312 26.441406 8.398438 26.628906 8.792969 26.636719 C 8.804688 26.636719 8.8125 26.636719 8.824219 26.636719 C 9.195312 26.636719 9.804688 26.523438 9.902344 26.359375 C 9.921875 26.320312 9.921875 26.277344 9.898438 26.238281 C 9.859375 26.175781 9.757812 26.007812 7.820312 26.066406 C 7.894531 26 8.183594 25.878906 9.273438 25.914062 C 11.347656 25.972656 13.253906 25.96875 13.75 25.253906 C 13.910156 25.027344 13.921875 24.738281 13.78125 24.394531 C 13.171875 22.921875 13.179688 20.625 13.328125 19.449219 L 13.398438 19.457031 L 13.484375 18.957031 C 13.441406 18.964844 13.398438 18.96875 13.355469 18.96875 Z M 9.757812 26.300781 C 9.660156 26.375 9.207031 26.5 8.796875 26.492188 C 8.449219 26.488281 8.039062 26.34375 7.871094 26.207031 C 9.355469 26.167969 9.6875 26.265625 9.757812 26.300781 Z M 9.757812 26.300781 " fill-opacity="1" fill-rule="nonzero"/></g><path fill="#FFFFFF" d="M 13.46875 17.660156 L 13.140625 17.59375 C 13.003906 17.570312 12.863281 17.59375 12.742188 17.660156 L 10.425781 18.96875 L 8.28125 17.117188 C 8.039062 16.910156 7.671875 16.9375 7.464844 17.175781 C 7.253906 17.417969 7.277344 17.78125 7.519531 17.988281 L 9.976562 20.109375 C 10.085938 20.203125 10.222656 20.25 10.359375 20.25 C 10.457031 20.25 10.554688 20.226562 10.644531 20.175781 L 13.128906 18.769531 L 13.246094 18.789062 C 13.558594 18.851562 13.863281 18.648438 13.925781 18.335938 C 13.988281 18.023438 13.78125 17.71875 13.46875 17.660156 Z M 13.46875 17.660156 " fill-opacity="1" fill-rule="nonzero"/><path fill="#FFFFFF" d="M 9.777344 15.601562 C 9.742188 15.664062 9.738281 15.734375 9.761719 15.804688 L 8.316406 15.339844 C 8.460938 15.65625 8.710938 15.933594 9.046875 16.105469 C 9.476562 16.328125 9.953125 16.339844 10.371094 16.1875 L 10.488281 16.230469 C 10.503906 16.238281 10.519531 16.242188 10.535156 16.25 C 10.585938 16.269531 10.640625 16.292969 10.707031 16.292969 C 10.769531 16.292969 10.84375 16.269531 10.921875 16.195312 L 11.464844 15.613281 L 11.480469 15.59375 C 11.546875 15.460938 11.492188 15.289062 11.347656 15.199219 L 11.34375 15.195312 C 11.605469 14.449219 11.28125 13.605469 10.554688 13.226562 C 9.878906 12.878906 9.074219 13.046875 8.589844 13.582031 L 10.363281 14.683594 C 10.355469 14.6875 10.347656 14.6875 10.339844 14.691406 C 10.265625 14.710938 10.207031 14.757812 10.167969 14.816406 L 8.453125 13.753906 C 8.417969 13.804688 8.382812 13.859375 8.351562 13.917969 C 8.160156 14.292969 8.125 14.703125 8.222656 15.082031 L 9.785156 15.585938 Z M 10.382812 14.851562 C 10.398438 14.847656 10.414062 14.84375 10.429688 14.84375 C 10.46875 14.84375 10.507812 14.855469 10.539062 14.878906 L 11.257812 15.335938 C 11.324219 15.378906 11.355469 15.453125 11.335938 15.511719 L 11.332031 15.511719 L 10.824219 15.191406 L 10.777344 15.265625 L 11.273438 15.578125 L 10.804688 16.078125 C 10.726562 16.148438 10.691406 16.132812 10.597656 16.09375 C 10.578125 16.089844 10.5625 16.082031 10.546875 16.078125 L 10.039062 15.878906 C 9.988281 15.859375 9.941406 15.820312 9.925781 15.773438 C 9.910156 15.738281 9.910156 15.703125 9.925781 15.671875 L 10.304688 14.910156 C 10.320312 14.882812 10.347656 14.859375 10.382812 14.851562 Z M 10.382812 14.851562 " fill-opacity="1" fill-rule="nonzero"/><path fill="#FFFFFF" d="M 10.660156 15.191406 L 10.683594 15.15625 L 10.707031 15.117188 L 10.535156 15.011719 L 10.488281 15.082031 Z M 10.660156 15.191406 " fill-opacity="1" fill-rule="nonzero"/></svg>