<svg xmlns="http://www.w3.org/2000/svg" xmlns:xlink="http://www.w3.org/1999/xlink" width="50" zoomAndPan="magnify" viewBox="0 0 37.5 37.499999" height="50" preserveAspectRatio="xMidYMid meet" version="1.0"><defs><clipPath id="7bc16058ff"><path d="M 2.53125 10.4375 L 34.355469 10.4375 L 34.355469 26.71875 L 2.53125 26.71875 Z M 2.53125 10.4375 " clip-rule="nonzero"/></clipPath></defs><g clip-path="url(#7bc16058ff)"><path fill="#0790f2" d="M 19.609375 11.800781 L 18.054688 12.875 C 18.03125 12.894531 18.015625 12.917969 18.015625 12.945312 L 18.015625 13.203125 L 18.183594 13.207031 L 18.183594 12.992188 L 19.742188 11.917969 C 19.765625 11.902344 19.777344 11.875 19.777344 11.847656 L 19.789062 11.011719 C 19.789062 10.964844 19.75 10.925781 19.703125 10.925781 L 19.464844 10.921875 L 19.460938 11.089844 L 19.617188 11.09375 Z M 10.382812 16.554688 L 11.683594 15.625 L 11.476562 15.332031 L 10.175781 16.257812 Z M 19.429688 10.480469 L 15.941406 10.4375 L 15.929688 11.507812 L 19.414062 11.546875 Z M 20.761719 15.507812 C 20.792969 15.394531 20.804688 15.273438 20.75 15.179688 C 20.691406 15.082031 20.554688 15.003906 20.554688 14.890625 C 20.550781 14.707031 20.761719 14.648438 20.734375 14.464844 C 20.621094 14.523438 20.515625 14.519531 20.453125 14.664062 C 20.335938 14.941406 20.445312 15.011719 20.617188 15.261719 C 20.644531 15.304688 20.613281 15.367188 20.601562 15.417969 C 20.582031 15.480469 20.738281 15.558594 20.761719 15.507812 Z M 28.328125 18.113281 C 30.007812 17.601562 29.898438 16.339844 29.890625 16.265625 L 29.894531 16.261719 C 29.894531 16.261719 29.890625 16.261719 29.890625 16.261719 C 29.828125 16.21875 28.777344 15.53125 27.542969 16.796875 L 27.949219 17.457031 Z M 29.359375 17.371094 C 29.410156 17.316406 29.449219 17.257812 29.492188 17.199219 C 29.535156 17.140625 29.5625 17.074219 29.597656 17.015625 C 29.632812 16.957031 29.652344 16.894531 29.679688 16.835938 C 29.707031 16.78125 29.722656 16.722656 29.742188 16.671875 C 29.757812 16.621094 29.777344 16.574219 29.785156 16.527344 C 29.796875 16.484375 29.804688 16.445312 29.8125 16.414062 C 29.828125 16.351562 29.839844 16.316406 29.839844 16.316406 L 29.84375 16.316406 C 29.84375 16.316406 29.84375 16.355469 29.835938 16.417969 C 29.835938 16.453125 29.832031 16.492188 29.824219 16.539062 C 29.820312 16.582031 29.804688 16.632812 29.792969 16.6875 C 29.777344 16.742188 29.765625 16.804688 29.742188 16.863281 C 29.730469 16.894531 29.71875 16.925781 29.703125 16.957031 C 29.691406 16.988281 29.679688 17.019531 29.660156 17.050781 C 29.621094 17.109375 29.59375 17.179688 29.542969 17.234375 C 29.5 17.292969 29.457031 17.355469 29.402344 17.410156 C 29.375 17.4375 29.351562 17.464844 29.324219 17.492188 C 29.296875 17.515625 29.269531 17.539062 29.242188 17.566406 C 29.191406 17.617188 29.128906 17.65625 29.074219 17.699219 C 29.015625 17.734375 28.957031 17.773438 28.902344 17.804688 C 28.847656 17.832031 28.792969 17.859375 28.742188 17.882812 C 28.691406 17.90625 28.644531 17.921875 28.601562 17.941406 C 28.558594 17.953125 28.523438 17.96875 28.492188 17.976562 C 28.429688 17.996094 28.394531 18.003906 28.394531 18.003906 L 28.390625 17.996094 C 28.390625 17.996094 28.425781 17.988281 28.488281 17.964844 C 28.519531 17.957031 28.554688 17.941406 28.59375 17.925781 C 28.636719 17.90625 28.683594 17.886719 28.730469 17.859375 C 28.78125 17.835938 28.832031 17.808594 28.886719 17.773438 C 28.941406 17.742188 28.992188 17.703125 29.050781 17.664062 C 29.101562 17.621094 29.160156 17.582031 29.210938 17.527344 C 29.238281 17.503906 29.261719 17.480469 29.289062 17.453125 C 29.3125 17.425781 29.335938 17.398438 29.359375 17.371094 Z M 28.171875 17.269531 C 28.222656 17.226562 28.285156 17.179688 28.359375 17.136719 C 28.429688 17.09375 28.511719 17.058594 28.589844 17.015625 C 28.746094 16.933594 28.902344 16.847656 29.019531 16.789062 C 29.140625 16.726562 29.21875 16.6875 29.21875 16.6875 L 29.226562 16.699219 C 29.226562 16.699219 29.152344 16.753906 29.046875 16.832031 C 28.9375 16.910156 28.792969 17.007812 28.644531 17.113281 C 28.574219 17.160156 28.503906 17.214844 28.433594 17.261719 C 28.359375 17.304688 28.292969 17.339844 28.230469 17.363281 C 28.105469 17.417969 28.015625 17.4375 28.015625 17.4375 L 28.007812 17.425781 C 28.007812 17.425781 28.066406 17.355469 28.171875 17.269531 Z M 20.390625 14.738281 C 20.398438 14.710938 20.410156 14.683594 20.421875 14.648438 C 20.472656 14.53125 20.554688 14.5 20.632812 14.46875 C 20.65625 14.460938 20.683594 14.449219 20.710938 14.4375 L 22.074219 12.570312 L 20.761719 14.445312 C 20.765625 14.449219 20.765625 14.453125 20.765625 14.460938 C 20.785156 14.570312 20.726562 14.644531 20.671875 14.707031 C 20.660156 14.722656 20.648438 14.738281 20.636719 14.753906 C 20.894531 14.699219 21.304688 14.492188 21.46875 14.191406 C 21.785156 13.613281 21.972656 13.066406 22.253906 12.457031 C 22.3125 12.328125 22.210938 12.257812 22.101562 12.351562 C 21.523438 12.847656 20.949219 13.339844 20.433594 13.890625 C 20.183594 14.160156 20.179688 14.613281 20.390625 14.738281 Z M 28.007812 17.632812 L 27.8125 17.304688 L 27.222656 17.664062 L 27.417969 17.992188 Z M 10.082031 16.140625 L 11.363281 15.222656 C 11.363281 15.222656 11.28125 14.917969 10.835938 14.558594 C 10.671875 14.425781 10.453125 14.390625 10.261719 14.425781 C 10.417969 14.488281 10.492188 14.582031 10.492188 14.582031 C 10.324219 14.429688 10.066406 14.484375 10 14.503906 C 9.835938 14.574219 9.679688 14.671875 9.546875 14.769531 C 9.757812 14.777344 9.890625 14.976562 9.890625 14.976562 C 9.621094 14.757812 9.304688 14.972656 9.230469 15.03125 C 9.160156 15.09375 9.117188 15.136719 9.117188 15.136719 C 9.578125 14.992188 10.082031 16.140625 10.082031 16.140625 Z M 17.664062 20.101562 L 17.640625 20.082031 L 17.617188 20.101562 L 15.886719 21.449219 L 14.820312 22.285156 L 14.730469 22.355469 L 20.546875 22.355469 L 20.457031 22.285156 Z M 14.957031 22.277344 L 15.933594 21.511719 L 17.640625 20.183594 L 20.320312 22.277344 Z M 20.710938 24.628906 L 22 24.628906 L 22 22.730469 L 20.710938 22.730469 Z M 17.542969 20.664062 L 17.542969 20.8125 C 17.417969 20.84375 17.316406 20.949219 17.28125 21.078125 L 17.136719 21.078125 L 17.136719 21.269531 L 17.28125 21.269531 C 17.316406 21.398438 17.417969 21.5 17.542969 21.535156 L 17.542969 21.679688 L 17.734375 21.679688 L 17.734375 21.535156 C 17.859375 21.5 17.960938 21.398438 17.996094 21.269531 L 18.140625 21.269531 L 18.140625 21.078125 L 17.996094 21.078125 C 17.960938 20.949219 17.859375 20.84375 17.734375 20.8125 L 17.734375 20.664062 Z M 17.9375 21.117188 L 17.941406 21.144531 L 18.074219 21.144531 L 18.074219 21.203125 L 17.941406 21.203125 L 17.9375 21.230469 C 17.914062 21.355469 17.816406 21.453125 17.695312 21.476562 L 17.667969 21.480469 L 17.667969 21.613281 L 17.609375 21.613281 L 17.609375 21.480469 L 17.582031 21.476562 C 17.460938 21.453125 17.363281 21.355469 17.339844 21.230469 L 17.335938 21.203125 L 17.203125 21.203125 L 17.203125 21.144531 L 17.335938 21.144531 L 17.339844 21.117188 C 17.363281 20.992188 17.460938 20.894531 17.582031 20.871094 L 17.609375 20.863281 L 17.609375 20.730469 L 17.667969 20.730469 L 17.667969 20.863281 L 17.695312 20.871094 C 17.816406 20.894531 17.914062 20.992188 17.9375 21.117188 Z M 30.941406 23.078125 C 30.6875 23.179688 30.691406 23.355469 30.59375 23.394531 C 30.59375 23.394531 28.917969 24.023438 28.332031 24.246094 C 28.261719 23.917969 28.175781 23.597656 28.078125 23.277344 L 29.066406 22.410156 L 28.347656 21.84375 L 27.492188 21.785156 C 27.480469 21.757812 27.464844 21.734375 27.453125 21.707031 L 28.375 21.773438 L 29.121094 22.363281 L 34.355469 17.773438 L 33.929688 17.273438 L 33.855469 17.230469 L 33.855469 17.328125 L 33.847656 17.332031 L 33.765625 17.28125 L 33.765625 17.378906 L 33.757812 17.382812 L 33.675781 17.335938 L 33.675781 17.433594 L 33.671875 17.4375 L 33.585938 17.386719 L 33.585938 17.484375 L 33.582031 17.488281 L 33.496094 17.441406 L 33.496094 17.539062 L 33.492188 17.542969 L 33.40625 17.492188 L 33.40625 17.589844 L 33.402344 17.59375 L 33.316406 17.546875 L 33.320312 17.644531 L 33.3125 17.648438 L 33.226562 17.597656 L 33.230469 17.695312 L 33.222656 17.699219 L 33.140625 17.652344 L 33.140625 17.75 L 33.132812 17.753906 L 33.050781 17.703125 L 33.050781 17.800781 L 33.042969 17.804688 L 32.960938 17.757812 L 32.960938 17.855469 L 32.953125 17.859375 L 32.871094 17.808594 L 32.871094 17.90625 L 32.867188 17.910156 L 32.78125 17.863281 L 32.78125 17.960938 L 32.777344 17.964844 L 32.691406 17.917969 L 32.691406 18.011719 L 32.6875 18.015625 L 32.601562 17.96875 L 32.601562 18.066406 L 32.597656 18.070312 L 32.515625 18.023438 L 32.515625 18.117188 L 32.507812 18.125 L 32.425781 18.074219 L 32.425781 18.171875 L 32.417969 18.175781 L 32.335938 18.128906 L 32.335938 18.222656 L 32.328125 18.230469 L 32.246094 18.179688 L 32.246094 18.277344 L 32.238281 18.28125 L 32.15625 18.234375 L 32.15625 18.332031 L 32.148438 18.335938 L 32.066406 18.285156 L 32.066406 18.382812 L 32.058594 18.386719 L 31.976562 18.339844 L 31.976562 18.4375 L 31.96875 18.441406 L 31.886719 18.390625 L 31.886719 18.488281 L 31.882812 18.492188 L 31.800781 18.445312 L 31.800781 18.542969 L 31.792969 18.546875 L 31.710938 18.5 L 31.710938 18.59375 L 31.703125 18.597656 L 31.621094 18.550781 L 31.621094 18.644531 L 31.613281 18.652344 L 31.53125 18.605469 L 31.53125 18.699219 L 31.523438 18.703125 L 31.441406 18.65625 L 31.441406 18.753906 L 31.433594 18.757812 L 31.351562 18.710938 L 31.351562 18.804688 L 31.34375 18.808594 L 31.261719 18.761719 L 31.261719 18.859375 L 31.253906 18.863281 L 31.171875 18.816406 L 31.171875 18.910156 L 31.164062 18.917969 L 31.082031 18.871094 L 31.085938 18.964844 L 31.074219 18.96875 L 30.996094 18.921875 L 30.996094 19.015625 L 30.988281 19.023438 L 30.90625 18.976562 L 30.90625 19.070312 L 30.898438 19.074219 L 30.816406 19.027344 L 30.816406 19.121094 L 30.808594 19.128906 L 30.726562 19.082031 L 30.726562 19.175781 L 30.71875 19.179688 L 30.636719 19.132812 L 30.636719 19.226562 L 30.628906 19.234375 L 30.546875 19.1875 L 30.546875 19.28125 L 30.539062 19.285156 L 30.457031 19.242188 L 30.457031 19.335938 L 30.449219 19.339844 L 30.371094 19.292969 L 30.371094 19.386719 L 30.359375 19.390625 L 30.28125 19.347656 L 30.28125 19.441406 L 30.269531 19.445312 L 30.191406 19.398438 L 30.191406 19.492188 L 30.179688 19.5 L 30.101562 19.453125 L 30.101562 19.546875 L 30.089844 19.550781 L 30.011719 19.503906 L 30.011719 19.597656 L 30.003906 19.605469 L 29.921875 19.558594 L 29.921875 19.652344 L 29.914062 19.65625 L 29.832031 19.609375 L 29.832031 19.703125 L 29.824219 19.710938 L 29.742188 19.664062 L 29.742188 19.757812 L 29.734375 19.761719 L 29.652344 19.71875 L 29.65625 19.808594 L 29.644531 19.816406 L 29.566406 19.769531 L 29.566406 19.863281 L 29.554688 19.867188 L 29.476562 19.824219 L 29.476562 19.914062 L 29.464844 19.921875 L 29.386719 19.875 L 29.386719 19.96875 L 29.375 19.976562 L 29.296875 19.929688 L 29.296875 20.019531 L 29.285156 20.027344 L 29.207031 19.980469 L 29.207031 20.074219 L 29.195312 20.082031 L 29.117188 20.035156 L 29.117188 20.125 L 29.109375 20.132812 L 29.027344 20.085938 L 29.027344 20.179688 L 29.019531 20.1875 L 28.9375 20.140625 L 28.941406 20.234375 L 28.929688 20.238281 L 28.851562 20.195312 L 28.851562 20.285156 L 28.839844 20.292969 L 28.761719 20.246094 L 28.761719 20.339844 L 28.75 20.34375 L 28.671875 20.300781 L 28.671875 20.390625 L 28.660156 20.398438 L 28.582031 20.351562 L 28.582031 20.445312 L 28.570312 20.449219 L 28.492188 20.40625 L 28.492188 20.496094 L 28.480469 20.503906 L 28.402344 20.457031 L 28.402344 20.550781 L 28.390625 20.554688 L 28.3125 20.511719 L 28.3125 20.601562 L 28.300781 20.609375 L 28.222656 20.566406 L 28.226562 20.65625 L 28.210938 20.664062 L 28.132812 20.617188 L 28.136719 20.707031 L 28.125 20.714844 L 28.046875 20.671875 L 28.046875 20.761719 L 28.035156 20.769531 L 27.957031 20.722656 L 27.957031 20.8125 L 27.945312 20.820312 L 27.867188 20.777344 L 27.867188 20.867188 L 27.855469 20.875 L 27.777344 20.828125 L 27.777344 20.917969 L 27.765625 20.925781 L 27.6875 20.882812 L 27.6875 20.972656 L 27.675781 20.980469 L 27.597656 20.933594 L 27.597656 21.023438 L 27.585938 21.03125 L 27.507812 20.988281 L 27.511719 21.078125 L 27.496094 21.085938 L 27.421875 21.039062 L 27.421875 21.132812 L 27.40625 21.136719 L 27.332031 21.09375 L 27.332031 21.183594 L 27.320312 21.191406 L 27.242188 21.148438 L 27.242188 21.238281 L 27.230469 21.246094 L 27.207031 21.230469 C 26.765625 20.425781 26.226562 19.679688 25.59375 19.003906 L 27.34375 17.9375 L 27.238281 17.761719 L 25.449219 18.851562 C 25.425781 18.828125 25.402344 18.804688 25.382812 18.78125 C 25.167969 18.5625 24.941406 18.355469 24.714844 18.160156 L 26.054688 16.527344 C 26.058594 16.527344 26.058594 16.523438 26.058594 16.523438 C 26.09375 16.480469 26.167969 16.484375 26.222656 16.535156 C 26.222656 16.535156 26.222656 16.535156 26.226562 16.535156 C 26.238281 16.515625 26.238281 16.492188 26.226562 16.480469 L 26.003906 16.296875 C 25.992188 16.285156 25.96875 16.289062 25.953125 16.304688 C 25.953125 16.308594 25.953125 16.308594 25.957031 16.308594 C 26.011719 16.355469 26.027344 16.425781 25.996094 16.46875 C 25.992188 16.46875 25.992188 16.472656 25.992188 16.472656 L 25.953125 16.519531 C 25.960938 16.527344 25.96875 16.535156 25.96875 16.535156 C 25.964844 16.535156 25.960938 16.53125 25.949219 16.523438 L 25.9375 16.539062 C 25.945312 16.546875 25.953125 16.550781 25.953125 16.550781 C 25.953125 16.554688 25.945312 16.546875 25.9375 16.542969 L 25.921875 16.554688 C 25.933594 16.5625 25.9375 16.570312 25.9375 16.570312 C 25.9375 16.570312 25.929688 16.566406 25.921875 16.558594 L 25.90625 16.574219 C 25.917969 16.582031 25.921875 16.589844 25.921875 16.589844 C 25.921875 16.589844 25.914062 16.585938 25.90625 16.578125 L 25.894531 16.59375 C 25.902344 16.601562 25.90625 16.605469 25.90625 16.605469 C 25.90625 16.609375 25.898438 16.601562 25.890625 16.59375 L 25.878906 16.609375 C 25.886719 16.617188 25.890625 16.625 25.890625 16.625 C 25.890625 16.625 25.882812 16.621094 25.875 16.613281 L 25.863281 16.628906 C 25.871094 16.636719 25.878906 16.640625 25.875 16.644531 C 25.875 16.644531 25.871094 16.640625 25.859375 16.632812 L 24.648438 18.105469 C 24.207031 17.730469 23.734375 17.390625 23.242188 17.09375 C 23.253906 17.035156 23.222656 16.960938 23.214844 16.902344 C 23.226562 16.875 23.242188 16.855469 23.257812 16.839844 C 23.535156 16.589844 23.714844 16.296875 23.875 16.023438 C 23.945312 15.90625 24.058594 15.957031 24.171875 16.082031 C 24.304688 16.226562 24.441406 16.320312 24.640625 16.347656 C 24.6875 16.359375 24.695312 16.367188 24.710938 16.320312 C 24.730469 16.332031 24.777344 16.316406 24.789062 16.300781 C 24.921875 16.34375 25.140625 16.054688 25.144531 15.972656 C 25.144531 15.953125 25.128906 15.957031 25.140625 15.945312 C 25.15625 15.925781 25.164062 15.90625 25.160156 15.878906 C 25.191406 15.898438 25.203125 15.832031 25.183594 15.800781 C 25.082031 15.636719 24.953125 15.496094 24.835938 15.34375 C 24.8125 15.296875 24.777344 15.191406 24.730469 15.171875 C 24.65625 15.144531 24.597656 15.109375 24.542969 15.070312 C 24.550781 15.0625 24.519531 15.023438 24.472656 14.972656 C 24.476562 14.964844 24.476562 14.953125 24.46875 14.941406 L 24.4375 14.914062 C 24.433594 14.910156 24.421875 14.914062 24.414062 14.917969 C 24.359375 14.871094 24.316406 14.839844 24.308594 14.847656 C 24.265625 14.800781 24.222656 14.75 24.175781 14.699219 C 24.125 14.558594 24.058594 14.554688 23.949219 14.515625 L 23.828125 14.425781 L 23.703125 14.332031 C 23.648438 14.382812 23.597656 14.433594 23.542969 14.488281 L 23.535156 14.476562 C 23.574219 14.433594 23.613281 14.386719 23.652344 14.339844 L 23.390625 14.070312 C 23.355469 14.035156 23.3125 14.007812 23.265625 13.984375 L 23.058594 13.886719 L 23.019531 13.929688 L 22.992188 13.910156 C 22.980469 13.917969 22.96875 13.929688 22.957031 13.941406 L 22.839844 13.863281 L 22.816406 13.890625 L 22.613281 13.6875 L 22.582031 13.671875 L 22.597656 13.707031 L 22.796875 13.910156 L 22.777344 13.929688 L 22.839844 14.058594 C 22.835938 14.066406 22.832031 14.074219 22.824219 14.078125 L 22.847656 14.109375 L 22.808594 14.148438 L 22.898438 14.359375 C 22.917969 14.40625 22.949219 14.449219 22.984375 14.488281 L 23.246094 14.757812 C 23.292969 14.714844 23.335938 14.671875 23.382812 14.628906 L 23.394531 14.640625 C 23.34375 14.691406 23.292969 14.746094 23.242188 14.796875 L 23.34375 14.933594 L 23.417969 15.054688 L 23.421875 15.046875 C 23.457031 15.113281 23.480469 15.148438 23.476562 15.226562 C 23.519531 15.277344 23.550781 15.316406 23.570312 15.34375 C 23.574219 15.355469 23.578125 15.367188 23.578125 15.378906 L 23.476562 15.25 C 23.457031 15.230469 23.449219 15.230469 23.4375 15.253906 C 23.386719 15.351562 23.320312 15.410156 23.230469 15.441406 C 23.21875 15.449219 23.21875 15.460938 23.226562 15.476562 L 23.316406 15.582031 C 23.289062 15.566406 23.253906 15.550781 23.253906 15.582031 C 23.25 15.621094 23.347656 15.699219 23.300781 15.746094 C 23.140625 15.929688 23.09375 16.199219 22.925781 16.367188 C 22.867188 16.414062 22.816406 16.429688 22.761719 16.429688 C 22.71875 16.425781 22.6875 16.414062 22.660156 16.390625 L 22.625 16.421875 C 22.523438 16.34375 22.410156 16.277344 22.296875 16.261719 C 22.269531 16.257812 22.242188 16.289062 22.214844 16.304688 L 21.941406 16.320312 C 21.902344 16.324219 21.863281 16.347656 21.828125 16.378906 C 21.453125 16.21875 21.074219 16.085938 20.6875 15.972656 C 20.703125 15.9375 20.71875 15.902344 20.730469 15.867188 C 20.742188 15.851562 20.738281 15.835938 20.730469 15.816406 L 20.839844 15.5625 C 20.851562 15.539062 20.835938 15.511719 20.804688 15.480469 C 20.800781 15.496094 20.796875 15.507812 20.796875 15.519531 C 20.792969 15.523438 20.792969 15.523438 20.792969 15.523438 C 20.78125 15.554688 20.742188 15.574219 20.671875 15.550781 C 20.640625 15.535156 20.609375 15.515625 20.589844 15.488281 C 20.570312 15.464844 20.5625 15.4375 20.570312 15.410156 C 20.570312 15.40625 20.578125 15.382812 20.578125 15.375 C 20.566406 15.375 20.550781 15.378906 20.542969 15.386719 C 20.539062 15.390625 20.539062 15.394531 20.535156 15.398438 C 20.535156 15.402344 20.394531 15.664062 20.394531 15.664062 C 20.386719 15.667969 20.375 15.675781 20.371094 15.683594 C 20.367188 15.683594 20.367188 15.683594 20.367188 15.6875 C 20.367188 15.6875 20.367188 15.6875 20.363281 15.691406 C 20.328125 15.746094 20.292969 15.800781 20.257812 15.855469 C 19.632812 15.703125 18.992188 15.605469 18.34375 15.5625 L 18.371094 13.492188 L 18.550781 13.257812 L 17.585938 13.246094 L 17.765625 13.488281 L 17.738281 15.542969 C 17.714844 15.542969 17.6875 15.542969 17.664062 15.542969 C 17.171875 15.542969 16.6875 15.574219 16.207031 15.640625 L 16.195312 15.609375 C 16.195312 15.609375 15.941406 15.375 15.824219 15.132812 C 15.785156 15.042969 15.828125 14.804688 15.828125 14.804688 L 15.722656 14.578125 L 15.542969 14.65625 L 14.847656 13.050781 L 14.867188 12.9375 L 14.710938 12.523438 L 14.566406 12.585938 L 14.5625 12.589844 L 14.554688 12.589844 L 14.414062 12.65625 L 14.601562 13.054688 L 14.699219 13.117188 L 15.394531 14.722656 L 15.214844 14.804688 L 15.308594 15.035156 C 15.308594 15.035156 15.511719 15.164062 15.546875 15.253906 C 15.605469 15.414062 15.628906 15.609375 15.636719 15.730469 C 15.191406 15.816406 14.75 15.929688 14.316406 16.074219 C 13.996094 15.53125 13.582031 14.820312 13.523438 14.722656 C 13.433594 14.570312 13.675781 14.316406 13.464844 13.957031 C 13.367188 13.789062 13.140625 13.609375 12.960938 13.609375 L 13.167969 13.964844 C 13.246094 14.09375 13.21875 14.222656 13.058594 14.316406 C 12.902344 14.414062 12.777344 14.375 12.699219 14.246094 L 12.546875 13.988281 C 12.464844 14.148438 12.457031 14.335938 12.554688 14.503906 C 12.765625 14.867188 13.101562 14.769531 13.191406 14.925781 C 13.246094 15.015625 13.628906 15.671875 13.941406 16.203125 C 13.765625 16.265625 13.589844 16.335938 13.414062 16.410156 C 12.921875 16.621094 12.449219 16.867188 11.996094 17.144531 C 11.832031 16.910156 11.683594 16.695312 11.648438 16.636719 C 11.402344 16.234375 11.640625 15.925781 11.792969 15.785156 L 11.789062 15.78125 L 10.511719 16.695312 L 10.515625 16.699219 C 10.695312 16.601562 11.0625 16.476562 11.355469 16.847656 C 11.375 16.871094 11.492188 17.109375 11.628906 17.382812 C 11.289062 17.613281 10.957031 17.863281 10.644531 18.132812 L 9.976562 17.199219 C 9.820312 16.976562 9.515625 16.925781 9.296875 17.085938 L 8.761719 17.476562 L 8.691406 17.375 L 8.527344 17.5 L 8.527344 17.601562 L 8.53125 17.601562 L 8.527344 17.605469 L 8.546875 17.632812 L 8.199219 17.886719 C 8.15625 17.863281 8.105469 17.851562 8.054688 17.851562 L 7.925781 17.671875 L 7.503906 17.984375 L 7.628906 18.160156 C 7.613281 18.210938 7.609375 18.261719 7.617188 18.3125 L 7.417969 18.460938 C 7.199219 18.621094 7.148438 18.929688 7.308594 19.152344 L 7.433594 19.328125 L 7.421875 19.335938 C 7.398438 19.355469 7.390625 19.386719 7.410156 19.414062 C 7.425781 19.4375 7.460938 19.445312 7.488281 19.425781 L 7.765625 19.222656 C 7.789062 19.203125 7.796875 19.167969 7.777344 19.144531 C 7.761719 19.117188 7.726562 19.113281 7.703125 19.128906 L 7.578125 18.953125 C 7.527344 18.882812 7.542969 18.785156 7.613281 18.734375 L 7.8125 18.585938 C 7.9375 18.644531 8.09375 18.628906 8.21875 18.539062 C 8.347656 18.445312 8.410156 18.296875 8.394531 18.160156 L 8.742188 17.90625 L 8.765625 17.9375 L 8.867188 17.976562 L 8.867188 17.96875 L 9.03125 17.851562 L 8.957031 17.746094 L 9.488281 17.359375 C 9.558594 17.308594 9.65625 17.324219 9.707031 17.394531 L 10.390625 18.351562 C 10.238281 18.492188 10.089844 18.632812 9.945312 18.78125 C 9.207031 19.527344 8.585938 20.367188 8.09375 21.28125 L 4.984375 19.089844 L 4.519531 19.730469 L 4.570312 19.769531 L 7.65625 22.171875 C 7.640625 22.214844 7.621094 22.253906 7.605469 22.292969 C 7.410156 22.757812 7.25 23.230469 7.121094 23.710938 L 7.113281 23.707031 C 7.082031 23.691406 7.054688 23.671875 7.023438 23.679688 C 7.007812 23.6875 6.992188 23.691406 6.980469 23.703125 L 6.613281 23.484375 C 6.484375 23.410156 6.34375 23.382812 6.207031 23.398438 L 6.265625 23.121094 L 6.828125 23.25 C 6.882812 23.261719 6.9375 23.226562 6.949219 23.171875 C 6.960938 23.117188 6.925781 23.0625 6.871094 23.050781 L 6.210938 22.902344 C 6.210938 22.902344 6.214844 22.902344 6.214844 22.902344 C 6.160156 22.890625 6.105469 22.925781 6.09375 22.980469 L 5.988281 23.476562 L 5.921875 23.5 C 5.898438 23.515625 5.875 23.535156 5.855469 23.554688 L 5.78125 23.578125 L 5.746094 23.402344 L 5.578125 23.457031 L 5.542969 23.285156 L 5.375 23.335938 L 5.339844 23.171875 L 5.339844 23.164062 L 5.171875 23.214844 L 5.136719 23.042969 L 4.96875 23.09375 L 4.933594 22.921875 L 4.769531 22.972656 L 4.730469 22.800781 L 4.566406 22.851562 L 4.53125 22.679688 L 4.363281 22.730469 L 4.328125 22.558594 L 4.160156 22.609375 L 4.125 22.4375 L 3.957031 22.488281 L 3.921875 22.316406 L 3.757812 22.371094 L 3.71875 22.195312 L 3.554688 22.25 L 3.519531 22.074219 L 3.320312 22.136719 C 3.089844 22.003906 2.796875 22.078125 2.664062 22.304688 C 2.53125 22.535156 2.613281 22.835938 2.84375 22.972656 L 2.882812 23.160156 L 3.050781 23.105469 L 3.085938 23.28125 L 3.253906 23.226562 L 3.289062 23.402344 L 3.457031 23.351562 L 3.492188 23.523438 L 3.660156 23.472656 L 3.695312 23.644531 L 3.863281 23.59375 L 3.898438 23.765625 L 4.066406 23.714844 L 4.105469 23.886719 L 4.269531 23.835938 L 4.308594 24.007812 L 4.472656 23.957031 L 4.511719 24.128906 L 4.675781 24.078125 L 4.710938 24.25 L 4.714844 24.25 L 4.71875 24.246094 L 4.878906 24.199219 L 4.914062 24.371094 L 5.082031 24.320312 L 5.117188 24.492188 L 5.285156 24.441406 L 5.289062 24.460938 C 5.257812 24.515625 5.277344 24.589844 5.332031 24.621094 L 6.640625 25.402344 C 6.667969 25.417969 6.699219 25.421875 6.730469 25.414062 C 6.757812 25.40625 6.785156 25.386719 6.800781 25.359375 L 6.804688 25.351562 L 6.816406 25.359375 C 6.777344 25.699219 6.753906 26.046875 6.75 26.394531 C 5.707031 26.488281 4.8125 26.597656 4.097656 26.71875 L 31.183594 26.71875 C 30.476562 26.601562 29.597656 26.492188 28.574219 26.398438 C 28.566406 25.824219 28.511719 25.253906 28.417969 24.699219 C 28.925781 24.507812 30.75 23.820312 30.75 23.820312 C 30.851562 23.78125 30.957031 23.914062 31.214844 23.828125 C 31.421875 23.757812 31.523438 23.519531 31.449219 23.3125 C 31.371094 23.105469 31.140625 22.992188 30.941406 23.078125 Z M 13.339844 14.796875 C 13.25 14.851562 13.152344 14.863281 13.109375 14.832031 C 13.160156 14.851562 13.25 14.832031 13.332031 14.78125 C 13.417969 14.730469 13.472656 14.664062 13.484375 14.605469 C 13.488281 14.660156 13.433594 14.742188 13.339844 14.796875 Z M 5.460938 23.972656 C 5.394531 24.085938 5.25 24.121094 5.132812 24.054688 L 3.300781 22.960938 L 2.96875 22.761719 C 2.855469 22.691406 2.8125 22.546875 2.878906 22.433594 C 2.945312 22.320312 3.089844 22.285156 3.203125 22.355469 L 5.039062 23.449219 L 5.371094 23.644531 C 5.484375 23.714844 5.523438 23.859375 5.460938 23.972656 Z M 6.597656 24.886719 C 6.589844 24.898438 6.574219 24.902344 6.5625 24.894531 L 6 24.558594 C 5.988281 24.550781 5.984375 24.535156 5.992188 24.523438 C 6 24.511719 6.015625 24.507812 6.027344 24.515625 L 6.589844 24.851562 C 6.601562 24.859375 6.605469 24.875 6.597656 24.886719 Z M 6.695312 24.71875 C 6.6875 24.734375 6.671875 24.738281 6.660156 24.730469 L 6.097656 24.394531 C 6.085938 24.386719 6.082031 24.371094 6.089844 24.359375 C 6.09375 24.34375 6.113281 24.339844 6.125 24.347656 L 6.6875 24.683594 C 6.699219 24.691406 6.703125 24.707031 6.695312 24.71875 Z M 6.792969 24.554688 C 6.785156 24.566406 6.769531 24.570312 6.757812 24.5625 L 6.195312 24.226562 C 6.183594 24.21875 6.175781 24.203125 6.183594 24.191406 C 6.191406 24.179688 6.207031 24.175781 6.21875 24.183594 L 6.78125 24.519531 C 6.796875 24.527344 6.800781 24.542969 6.792969 24.554688 Z M 10.636719 25.195312 L 10.335938 25.195312 L 10.335938 24.394531 L 10.636719 24.394531 Z M 10.636719 24.308594 L 10.335938 24.308594 L 10.335938 23.507812 L 10.636719 23.507812 Z M 11.027344 25.195312 L 10.722656 25.195312 L 10.722656 24.394531 L 11.027344 24.394531 Z M 11.027344 24.308594 L 10.722656 24.308594 L 10.722656 23.507812 L 11.027344 23.507812 Z M 12.136719 25.195312 L 11.835938 25.195312 L 11.835938 24.394531 L 12.136719 24.394531 Z M 12.136719 24.308594 L 11.835938 24.308594 L 11.835938 23.507812 L 12.136719 23.507812 Z M 12.527344 25.195312 L 12.226562 25.195312 L 12.226562 24.394531 L 12.527344 24.394531 Z M 12.527344 24.308594 L 12.226562 24.308594 L 12.226562 23.507812 L 12.527344 23.507812 Z M 15.328125 25.253906 L 15.027344 25.253906 L 15.027344 24.453125 L 15.328125 24.453125 Z M 15.328125 24.367188 L 15.027344 24.367188 L 15.027344 23.570312 L 15.328125 23.570312 Z M 15.71875 25.253906 L 15.417969 25.253906 L 15.417969 24.453125 L 15.71875 24.453125 Z M 15.71875 24.367188 L 15.417969 24.367188 L 15.417969 23.570312 L 15.71875 23.570312 Z M 18.4375 25.542969 L 16.84375 25.542969 L 16.84375 23.851562 L 18.4375 23.851562 Z M 16.847656 23.738281 C 16.882812 23.414062 17.222656 23.160156 17.640625 23.160156 C 18.058594 23.160156 18.398438 23.414062 18.433594 23.738281 Z M 19.863281 25.253906 L 19.5625 25.253906 L 19.5625 24.453125 L 19.863281 24.453125 Z M 19.863281 24.367188 L 19.5625 24.367188 L 19.5625 23.570312 L 19.863281 23.570312 Z M 20.253906 25.253906 L 19.953125 25.253906 L 19.953125 24.453125 L 20.253906 24.453125 Z M 20.253906 24.367188 L 19.953125 24.367188 L 19.953125 23.570312 L 20.253906 23.570312 Z M 22.722656 22.730469 L 22.277344 22.730469 L 22.277344 25.691406 L 22 25.691406 L 22 24.710938 L 21.917969 24.710938 L 21.917969 25.691406 L 21.835938 25.691406 L 21.835938 24.710938 L 21.710938 24.710938 L 21.710938 25.691406 L 21.628906 25.691406 L 21.628906 24.710938 L 21.503906 24.710938 L 21.503906 25.691406 L 21.421875 25.691406 L 21.421875 24.710938 L 21.296875 24.710938 L 21.296875 25.691406 L 21.214844 25.691406 L 21.214844 24.710938 L 21.089844 24.710938 L 21.089844 25.691406 L 21.007812 25.691406 L 21.007812 24.710938 L 20.882812 24.710938 L 20.882812 25.691406 L 20.800781 25.691406 L 20.800781 24.710938 L 20.710938 24.710938 L 20.710938 25.691406 L 20.4375 25.691406 L 20.4375 22.730469 L 19.355469 22.730469 L 19.355469 25.691406 L 19.078125 25.691406 L 19.078125 22.730469 L 16.203125 22.730469 L 16.203125 25.691406 L 15.925781 25.691406 L 15.925781 22.730469 L 14.84375 22.730469 L 14.84375 25.691406 L 14.570312 25.691406 L 14.570312 24.710938 L 14.480469 24.710938 L 14.480469 25.691406 L 14.398438 25.691406 L 14.398438 24.710938 L 14.273438 24.710938 L 14.273438 25.691406 L 14.191406 25.691406 L 14.191406 24.710938 L 14.066406 24.710938 L 14.066406 25.691406 L 13.984375 25.691406 L 13.984375 24.710938 L 13.859375 24.710938 L 13.859375 25.691406 L 13.777344 25.691406 L 13.777344 24.710938 L 13.652344 24.710938 L 13.652344 25.691406 L 13.570312 25.691406 L 13.570312 24.710938 L 13.445312 24.710938 L 13.445312 25.691406 L 13.363281 25.691406 L 13.363281 24.710938 L 13.28125 24.710938 L 13.28125 25.691406 L 13.003906 25.691406 L 13.003906 22.730469 L 12.554688 22.730469 L 12.554688 22.316406 L 14.257812 22.316406 L 15.710938 21.179688 L 17.640625 19.675781 L 19.566406 21.179688 L 21.019531 22.316406 L 22.722656 22.316406 Z M 23.054688 25.195312 L 22.753906 25.195312 L 22.753906 24.394531 L 23.054688 24.394531 Z M 23.054688 24.308594 L 22.753906 24.308594 L 22.753906 23.507812 L 23.054688 23.507812 Z M 23.445312 25.195312 L 23.140625 25.195312 L 23.140625 24.394531 L 23.445312 24.394531 Z M 23.445312 24.308594 L 23.140625 24.308594 L 23.140625 23.507812 L 23.445312 23.507812 Z M 24.554688 25.195312 L 24.253906 25.195312 L 24.253906 24.394531 L 24.554688 24.394531 Z M 24.554688 24.308594 L 24.253906 24.308594 L 24.253906 23.507812 L 24.554688 23.507812 Z M 24.945312 25.195312 L 24.644531 25.195312 L 24.644531 24.394531 L 24.945312 24.394531 Z M 24.945312 24.308594 L 24.644531 24.308594 L 24.644531 23.507812 L 24.945312 23.507812 Z M 26.011719 26.203125 L 26.011719 23.265625 L 26.691406 23.265625 C 26.515625 22.824219 25.1875 20.25 25.089844 19.519531 L 22.246094 19.519531 C 22.273438 19.972656 22.328125 20.457031 22.417969 20.953125 C 22.460938 21.199219 22.511719 21.441406 22.566406 21.671875 C 22.488281 21.472656 22.417969 21.269531 22.347656 21.0625 C 22.175781 20.53125 22.042969 20.011719 21.953125 19.519531 L 21.949219 19.519531 C 21.890625 19.191406 21.839844 18.875 21.800781 18.566406 L 21.046875 18.566406 L 21.046875 18.085938 L 21.078125 18.085938 L 21.078125 17.878906 L 20.324219 17.878906 L 20.324219 18.085938 L 20.355469 18.085938 L 20.355469 18.566406 L 13.476562 18.566406 C 13.4375 18.875 13.386719 19.191406 13.328125 19.519531 L 13.324219 19.519531 C 13.234375 20.011719 13.101562 20.53125 12.929688 21.0625 C 12.859375 21.269531 12.789062 21.472656 12.710938 21.671875 C 12.765625 21.441406 12.816406 21.199219 12.859375 20.953125 C 12.949219 20.457031 13.003906 19.972656 13.03125 19.519531 L 10.1875 19.519531 C 10.09375 20.25 8.761719 22.824219 8.585938 23.265625 L 9.265625 23.265625 L 9.265625 26.203125 C 8.476562 26.25 7.734375 26.304688 7.050781 26.363281 C 7.109375 23.582031 8.207031 20.972656 10.15625 18.996094 C 12.160156 16.964844 14.828125 15.847656 17.660156 15.847656 C 20.496094 15.847656 23.160156 16.964844 25.164062 18.996094 C 27.117188 20.972656 28.214844 23.582031 28.269531 26.367188 C 27.574219 26.308594 26.820312 26.253906 26.011719 26.203125 Z M 30.65625 23.613281 C 30.613281 23.503906 30.621094 23.398438 30.667969 23.359375 C 30.636719 23.410156 30.632812 23.507812 30.671875 23.605469 C 30.707031 23.707031 30.769531 23.777344 30.828125 23.796875 C 30.765625 23.792969 30.695312 23.71875 30.65625 23.613281 Z M 31.320312 23.566406 L 31.308594 23.644531 L 31.234375 23.671875 L 31.183594 23.734375 L 31.105469 23.722656 L 31.027344 23.75 L 30.96875 23.699219 L 30.886719 23.683594 L 30.859375 23.609375 L 30.800781 23.558594 L 30.8125 23.476562 L 30.785156 23.402344 L 30.835938 23.339844 L 30.847656 23.257812 L 30.925781 23.230469 L 30.976562 23.167969 L 31.054688 23.183594 L 31.128906 23.15625 L 31.191406 23.207031 L 31.269531 23.21875 L 31.296875 23.292969 L 31.359375 23.347656 L 31.34375 23.425781 L 31.371094 23.503906 Z M 5.292969 23.785156 L 3.132812 22.496094 C 3.09375 22.476562 3.042969 22.488281 3.023438 22.527344 C 3 22.5625 3.011719 22.613281 3.050781 22.636719 L 5.210938 23.925781 C 5.25 23.949219 5.300781 23.9375 5.320312 23.898438 C 5.34375 23.859375 5.332031 23.808594 5.292969 23.785156 Z M 13.28125 24.628906 L 14.570312 24.628906 L 14.570312 22.730469 L 13.28125 22.730469 Z M 7.15625 17.746094 C 7.171875 17.734375 7.183594 17.722656 7.195312 17.707031 L 7.347656 17.5625 C 7.363281 17.5625 7.378906 17.558594 7.390625 17.554688 L 7.503906 17.714844 L 7.441406 17.761719 C 7.429688 17.773438 7.425781 17.789062 7.433594 17.804688 C 7.441406 17.816406 7.460938 17.820312 7.472656 17.808594 L 7.765625 17.597656 C 7.777344 17.589844 7.78125 17.570312 7.769531 17.554688 C 7.761719 17.542969 7.742188 17.539062 7.730469 17.550781 L 7.667969 17.597656 L 7.554688 17.4375 C 7.5625 17.425781 7.566406 17.410156 7.570312 17.398438 L 7.757812 17.296875 C 7.773438 17.292969 7.792969 17.28125 7.808594 17.269531 C 7.894531 17.207031 7.917969 17.09375 7.867188 17.019531 C 7.8125 16.941406 7.699219 16.933594 7.613281 16.996094 C 7.609375 16.996094 7.605469 17 7.601562 17.003906 L 7.597656 17.003906 C 7.582031 17.019531 7.570312 17.035156 7.558594 17.050781 L 7.4375 17.191406 C 7.386719 17.1875 7.335938 17.203125 7.289062 17.238281 C 7.242188 17.273438 7.210938 17.320312 7.195312 17.367188 L 7.027344 17.441406 C 7.007812 17.445312 6.992188 17.453125 6.972656 17.464844 L 6.96875 17.464844 C 6.964844 17.46875 6.960938 17.472656 6.957031 17.472656 C 6.871094 17.535156 6.847656 17.648438 6.902344 17.722656 C 6.953125 17.800781 7.066406 17.8125 7.15625 17.746094 Z M 3.601562 20.3125 C 3.601562 20.3125 3.605469 20.125 3.773438 19.867188 C 3.921875 19.644531 4.273438 19.550781 4.460938 19.6875 C 4.46875 19.691406 4.472656 19.695312 4.476562 19.699219 L 4.941406 19.054688 C 4.855469 18.980469 4.597656 18.730469 4.785156 18.472656 C 5.089844 18.054688 5.824219 18.355469 5.824219 18.355469 L 5.84375 18.203125 C 5.84375 18.203125 4.335938 17.605469 3.90625 18.140625 C 3.535156 18.601562 3.363281 18.890625 3.363281 18.890625 L 3.289062 18.988281 C 3.335938 19.132812 3.308594 19.304688 3.207031 19.445312 C 3.101562 19.589844 2.949219 19.664062 2.800781 19.664062 L 2.550781 20.007812 L 3.378906 20.621094 Z M 7.839844 17.570312 L 7.417969 17.878906 C 7.394531 17.894531 7.390625 17.929688 7.40625 17.949219 C 7.421875 17.972656 7.457031 17.980469 7.476562 17.960938 L 7.898438 17.65625 C 7.921875 17.636719 7.925781 17.605469 7.910156 17.582031 C 7.894531 17.558594 7.863281 17.554688 7.839844 17.570312 Z M 7.839844 17.570312 " fill-opacity="1" fill-rule="evenodd"/></g></svg>