<svg xmlns="http://www.w3.org/2000/svg" xmlns:xlink="http://www.w3.org/1999/xlink" width="50" zoomAndPan="magnify" viewBox="0 0 37.5 37.499999" height="50" preserveAspectRatio="xMidYMid meet" version="1.0"><defs><clipPath id="1ff3d7962c"><path d="M 5.546875 7.960938 L 29 7.960938 L 29 26 L 5.546875 26 Z M 5.546875 7.960938 " clip-rule="nonzero"/></clipPath><clipPath id="a6b0e4de75"><path d="M 13 27 L 22 27 L 22 28.683594 L 13 28.683594 Z M 13 27 " clip-rule="nonzero"/></clipPath><clipPath id="4e47fd7cd3"><path d="M 23 15 L 31.453125 15 L 31.453125 28.683594 L 23 28.683594 Z M 23 15 " clip-rule="nonzero"/></clipPath></defs><path fill="#000000" d="M 12.792969 21.496094 C 12.929688 21.441406 13.082031 21.441406 13.214844 21.496094 L 15.375 21.496094 C 15.558594 21.277344 15.542969 20.949219 15.324219 20.753906 L 14.699219 20.183594 C 14.523438 20.023438 14.476562 19.769531 14.582031 19.554688 C 14.699219 19.316406 14.792969 19.0625 14.867188 18.800781 C 14.929688 18.570312 15.136719 18.402344 15.378906 18.394531 L 16.226562 18.359375 C 16.53125 18.347656 16.765625 18.097656 16.753906 17.796875 L 16.722656 16.960938 C 16.710938 16.664062 16.453125 16.429688 16.148438 16.441406 L 15.304688 16.472656 C 15.058594 16.480469 14.84375 16.332031 14.757812 16.105469 C 14.667969 15.851562 14.550781 15.605469 14.417969 15.375 C 14.296875 15.171875 14.320312 14.914062 14.484375 14.738281 L 15.0625 14.125 C 15.269531 13.902344 15.257812 13.558594 15.03125 13.355469 L 14.40625 12.789062 C 14.183594 12.585938 13.835938 12.597656 13.628906 12.816406 L 13.050781 13.433594 C 12.886719 13.605469 12.625 13.652344 12.410156 13.550781 C 12.164062 13.433594 11.90625 13.339844 11.640625 13.269531 C 11.40625 13.207031 11.234375 13.003906 11.226562 12.765625 L 11.195312 11.933594 C 11.183594 11.636719 10.925781 11.402344 10.621094 11.414062 L 9.769531 11.445312 C 9.464844 11.457031 9.226562 11.710938 9.238281 12.007812 L 9.273438 12.839844 C 9.28125 13.078125 9.128906 13.292969 8.898438 13.375 C 8.640625 13.464844 8.390625 13.578125 8.15625 13.710938 C 7.949219 13.832031 7.683594 13.804688 7.507812 13.644531 L 7.371094 13.519531 L 7.371094 21.496094 Z M 10.332031 14.890625 C 11.867188 14.832031 13.15625 16.007812 13.214844 17.515625 C 13.277344 19.023438 12.082031 20.289062 10.546875 20.347656 C 9.015625 20.40625 7.722656 19.234375 7.664062 17.726562 C 7.605469 16.21875 8.800781 14.949219 10.332031 14.890625 Z M 10.332031 14.890625 " fill-opacity="1" fill-rule="nonzero"/><path fill="#000000" d="M 10.390625 16.382812 C 9.695312 16.40625 9.152344 16.984375 9.179688 17.667969 C 9.207031 18.351562 9.792969 18.886719 10.488281 18.859375 C 11.1875 18.832031 11.726562 18.257812 11.703125 17.574219 C 11.675781 16.886719 11.085938 16.355469 10.390625 16.382812 Z M 10.390625 16.382812 " fill-opacity="1" fill-rule="nonzero"/><path fill="#000000" d="M 30.21875 23.804688 C 29.472656 23.769531 28.777344 23.3125 28.488281 22.582031 C 28.089844 21.589844 28.585938 20.46875 29.597656 20.078125 C 29.800781 20 30.011719 19.957031 30.21875 19.949219 L 30.21875 18.6875 C 30.175781 18.691406 30.128906 18.691406 30.085938 18.695312 C 29.914062 18.707031 29.753906 18.609375 29.691406 18.453125 L 29.46875 17.90625 C 29.390625 17.707031 29.164062 17.613281 28.964844 17.6875 L 28.402344 17.90625 C 28.203125 17.984375 28.105469 18.207031 28.183594 18.402344 L 28.402344 18.949219 C 28.464844 19.109375 28.414062 19.289062 28.28125 19.394531 C 28.128906 19.515625 27.988281 19.644531 27.863281 19.789062 C 27.753906 19.914062 27.570312 19.960938 27.414062 19.894531 L 26.863281 19.65625 C 26.664062 19.570312 26.433594 19.660156 26.347656 19.855469 L 26.109375 20.398438 C 26.023438 20.59375 26.113281 20.816406 26.308594 20.902344 L 26.863281 21.140625 C 27.019531 21.207031 27.109375 21.367188 27.089844 21.53125 C 27.070312 21.71875 27.066406 21.910156 27.078125 22.101562 C 27.089844 22.269531 26.992188 22.429688 26.832031 22.492188 L 26.277344 22.707031 C 26.074219 22.785156 25.976562 23.007812 26.054688 23.203125 L 26.277344 23.753906 C 26.355469 23.953125 26.582031 24.050781 26.78125 23.972656 L 27.339844 23.757812 C 27.5 23.695312 27.679688 23.746094 27.789062 23.878906 C 27.914062 24.027344 28.046875 24.164062 28.191406 24.285156 C 28.320312 24.398438 28.367188 24.574219 28.296875 24.726562 L 28.058594 25.269531 C 27.972656 25.464844 28.0625 25.691406 28.257812 25.777344 L 28.8125 26.011719 C 29.007812 26.097656 29.238281 26.007812 29.324219 25.8125 L 29.566406 25.269531 C 29.632812 25.117188 29.796875 25.027344 29.964844 25.046875 C 30.050781 25.054688 30.132812 25.0625 30.21875 25.0625 Z M 30.21875 23.804688 " fill-opacity="1" fill-rule="nonzero"/><path fill="#000000" d="M 30.21875 21.003906 C 30.140625 21.011719 30.066406 21.03125 29.988281 21.058594 C 29.53125 21.238281 29.304688 21.746094 29.484375 22.199219 C 29.609375 22.511719 29.898438 22.714844 30.21875 22.75 Z M 30.21875 21.003906 " fill-opacity="1" fill-rule="nonzero"/><g clip-path="url(#1ff3d7962c)"><path fill="#000000" d="M 23.363281 22.398438 L 6.457031 22.398438 L 6.457031 8.867188 L 27.8125 8.867188 L 27.8125 15.492188 L 28.714844 15.492188 L 28.714844 7.960938 L 5.558594 7.960938 L 5.558594 25.289062 L 23.363281 25.289062 Z M 23.363281 22.398438 " fill-opacity="1" fill-rule="nonzero"/></g><g clip-path="url(#a6b0e4de75)"><path fill="#000000" d="M 13.066406 27.882812 L 21.207031 27.882812 L 21.207031 28.6875 L 13.066406 28.6875 Z M 13.066406 27.882812 " fill-opacity="1" fill-rule="nonzero"/></g><path fill="#000000" d="M 14.480469 25.738281 L 19.792969 25.738281 L 19.792969 27.457031 L 14.480469 27.457031 Z M 14.480469 25.738281 " fill-opacity="1" fill-rule="nonzero"/><g clip-path="url(#4e47fd7cd3)"><path fill="#000000" d="M 23.953125 15.898438 L 23.953125 28.6875 L 31.441406 28.6875 L 31.441406 15.898438 Z M 28.414062 28.21875 L 26.984375 28.21875 L 26.984375 27.59375 L 28.414062 27.59375 Z M 30.917969 27.253906 L 24.472656 27.253906 L 24.472656 16.457031 L 30.917969 16.457031 Z M 30.917969 27.253906 " fill-opacity="1" fill-rule="nonzero"/></g></svg>