<svg xmlns="http://www.w3.org/2000/svg" xmlns:xlink="http://www.w3.org/1999/xlink" width="50" zoomAndPan="magnify" viewBox="0 0 37.5 37.499999" height="50" preserveAspectRatio="xMidYMid meet" version="1.0"><defs><clipPath id="d6ce435271"><path d="M 4.863281 7.40625 L 30 7.40625 L 30 26 L 4.863281 26 Z M 4.863281 7.40625 " clip-rule="nonzero"/></clipPath><clipPath id="1a970a0958"><path d="M 12 28 L 22 28 L 22 29.609375 L 12 29.609375 Z M 12 28 " clip-rule="nonzero"/></clipPath><clipPath id="8a528cad9c"><path d="M 24 15 L 32.25 15 L 32.25 29.609375 L 24 29.609375 Z M 24 15 " clip-rule="nonzero"/></clipPath></defs><path fill="#FFFFFF" d="M 12.523438 21.910156 C 12.671875 21.851562 12.832031 21.851562 12.96875 21.910156 L 15.253906 21.910156 C 15.449219 21.671875 15.433594 21.324219 15.203125 21.113281 L 14.542969 20.503906 C 14.355469 20.332031 14.304688 20.058594 14.417969 19.828125 C 14.539062 19.570312 14.640625 19.300781 14.714844 19.019531 C 14.785156 18.773438 15 18.59375 15.257812 18.582031 L 16.152344 18.550781 C 16.476562 18.535156 16.726562 18.265625 16.714844 17.945312 L 16.679688 17.050781 C 16.664062 16.726562 16.394531 16.476562 16.074219 16.492188 L 15.179688 16.527344 C 14.921875 16.535156 14.691406 16.375 14.605469 16.132812 C 14.507812 15.859375 14.382812 15.597656 14.242188 15.347656 C 14.113281 15.128906 14.140625 14.855469 14.3125 14.667969 L 14.925781 14.007812 C 15.144531 13.773438 15.128906 13.40625 14.894531 13.1875 L 14.230469 12.578125 C 13.996094 12.359375 13.625 12.375 13.40625 12.609375 L 12.796875 13.269531 C 12.621094 13.453125 12.347656 13.503906 12.117188 13.394531 C 11.859375 13.269531 11.589844 13.167969 11.308594 13.09375 C 11.058594 13.027344 10.878906 12.808594 10.867188 12.554688 L 10.835938 11.664062 C 10.820312 11.34375 10.550781 11.09375 10.230469 11.105469 L 9.328125 11.140625 C 9.007812 11.152344 8.757812 11.421875 8.769531 11.742188 L 8.804688 12.632812 C 8.8125 12.890625 8.652344 13.121094 8.410156 13.207031 C 8.132812 13.304688 7.871094 13.425781 7.621094 13.566406 C 7.402344 13.695312 7.125 13.667969 6.9375 13.496094 L 6.792969 13.363281 L 6.792969 21.910156 Z M 9.921875 14.832031 C 11.542969 14.769531 12.910156 16.027344 12.972656 17.640625 C 13.035156 19.257812 11.773438 20.617188 10.152344 20.679688 C 8.53125 20.742188 7.167969 19.484375 7.101562 17.871094 C 7.039062 16.253906 8.304688 14.894531 9.921875 14.832031 Z M 9.921875 14.832031 " fill-opacity="1" fill-rule="nonzero"/><path fill="#FFFFFF" d="M 9.984375 16.425781 C 9.25 16.457031 8.675781 17.074219 8.703125 17.808594 C 8.734375 18.539062 9.351562 19.113281 10.089844 19.082031 C 10.824219 19.054688 11.398438 18.4375 11.371094 17.703125 C 11.34375 16.96875 10.722656 16.398438 9.984375 16.425781 Z M 9.984375 16.425781 " fill-opacity="1" fill-rule="nonzero"/><path fill="#FFFFFF" d="M 30.945312 24.382812 C 30.15625 24.339844 29.421875 23.855469 29.113281 23.074219 C 28.695312 22.007812 29.21875 20.808594 30.289062 20.390625 C 30.503906 20.304688 30.726562 20.261719 30.945312 20.25 L 30.945312 18.898438 C 30.898438 18.902344 30.851562 18.902344 30.804688 18.90625 C 30.625 18.921875 30.453125 18.816406 30.386719 18.648438 L 30.15625 18.0625 C 30.070312 17.851562 29.832031 17.746094 29.621094 17.828125 L 29.027344 18.0625 C 28.816406 18.144531 28.710938 18.382812 28.792969 18.59375 L 29.027344 19.179688 C 29.09375 19.351562 29.039062 19.542969 28.894531 19.65625 C 28.734375 19.785156 28.589844 19.925781 28.457031 20.078125 C 28.339844 20.214844 28.148438 20.261719 27.980469 20.191406 L 27.398438 19.9375 C 27.1875 19.847656 26.945312 19.941406 26.855469 20.148438 L 26.601562 20.730469 C 26.507812 20.9375 26.605469 21.179688 26.8125 21.273438 L 27.398438 21.527344 C 27.5625 21.597656 27.660156 21.769531 27.640625 21.945312 C 27.617188 22.148438 27.613281 22.351562 27.628906 22.558594 C 27.640625 22.738281 27.539062 22.90625 27.367188 22.972656 L 26.777344 23.207031 C 26.566406 23.289062 26.460938 23.527344 26.546875 23.738281 L 26.777344 24.328125 C 26.863281 24.539062 27.101562 24.644531 27.3125 24.5625 L 27.902344 24.332031 C 28.074219 24.265625 28.265625 24.316406 28.378906 24.460938 C 28.507812 24.621094 28.648438 24.765625 28.804688 24.898438 C 28.941406 25.015625 28.988281 25.207031 28.914062 25.371094 L 28.660156 25.953125 C 28.570312 26.160156 28.664062 26.402344 28.875 26.492188 L 29.457031 26.746094 C 29.667969 26.839844 29.910156 26.742188 30 26.535156 L 30.257812 25.953125 C 30.328125 25.789062 30.5 25.691406 30.679688 25.710938 C 30.765625 25.722656 30.855469 25.726562 30.945312 25.730469 Z M 30.945312 24.382812 " fill-opacity="1" fill-rule="nonzero"/><path fill="#FFFFFF" d="M 30.945312 21.382812 C 30.863281 21.390625 30.78125 21.410156 30.703125 21.441406 C 30.21875 21.628906 29.980469 22.175781 30.171875 22.660156 C 30.304688 22.996094 30.609375 23.210938 30.945312 23.25 Z M 30.945312 21.382812 " fill-opacity="1" fill-rule="nonzero"/><g clip-path="url(#d6ce435271)"><path fill="#FFFFFF" d="M 23.699219 22.875 L 5.828125 22.875 L 5.828125 8.375 L 28.402344 8.375 L 28.402344 15.476562 L 29.355469 15.476562 L 29.355469 7.40625 L 4.875 7.40625 L 4.875 25.96875 L 23.699219 25.96875 Z M 23.699219 22.875 " fill-opacity="1" fill-rule="nonzero"/></g><g clip-path="url(#1a970a0958)"><path fill="#FFFFFF" d="M 12.8125 28.75 L 21.417969 28.75 L 21.417969 29.609375 L 12.8125 29.609375 Z M 12.8125 28.75 " fill-opacity="1" fill-rule="nonzero"/></g><path fill="#FFFFFF" d="M 14.308594 26.453125 L 19.921875 26.453125 L 19.921875 28.296875 L 14.308594 28.296875 Z M 14.308594 26.453125 " fill-opacity="1" fill-rule="nonzero"/><g clip-path="url(#8a528cad9c)"><path fill="#FFFFFF" d="M 24.320312 15.910156 L 24.320312 29.609375 L 32.238281 29.609375 L 32.238281 15.910156 Z M 29.035156 29.109375 L 27.523438 29.109375 L 27.523438 28.441406 L 29.035156 28.441406 Z M 31.6875 28.074219 L 24.875 28.074219 L 24.875 16.507812 L 31.6875 16.507812 Z M 31.6875 28.074219 " fill-opacity="1" fill-rule="nonzero"/></g></svg>