<svg xmlns="http://www.w3.org/2000/svg" xmlns:xlink="http://www.w3.org/1999/xlink" width="50" zoomAndPan="magnify" viewBox="0 0 37.5 37.499999" height="50" preserveAspectRatio="xMidYMid meet" version="1.0"><defs><clipPath id="385f893cdf"><path d="M 12 14 L 33.917969 14 L 33.917969 29 L 12 29 Z M 12 14 " clip-rule="nonzero"/></clipPath><clipPath id="816bc7e3d2"><path d="M 13 8.316406 L 19 8.316406 L 19 14 L 13 14 Z M 13 8.316406 " clip-rule="nonzero"/></clipPath><clipPath id="2881afed00"><path d="M 7 11 L 14 11 L 14 29.039062 L 7 29.039062 Z M 7 11 " clip-rule="nonzero"/></clipPath></defs><g clip-path="url(#385f893cdf)"><path fill="#FFFFFF" d="M 12.945312 15.269531 C 12.941406 15.273438 12.9375 15.273438 12.9375 15.277344 L 29.277344 15.277344 C 30.152344 15.277344 30.894531 15.945312 31.007812 16.832031 L 31.667969 21.929688 L 29.601562 22.8125 L 13.523438 22.8125 L 13.46875 23.203125 L 29.675781 23.203125 L 32.25 22.105469 C 32.4375 22.023438 32.644531 22.023438 32.835938 22.105469 C 33.023438 22.183594 33.171875 22.335938 33.25 22.527344 C 33.410156 22.925781 33.226562 23.386719 32.835938 23.554688 L 30.125 24.710938 C 30.03125 24.753906 29.929688 24.773438 29.828125 24.773438 L 13.246094 24.773438 L 12.996094 26.5625 L 30.285156 26.5625 C 30.621094 26.5625 30.914062 26.769531 31.039062 27.089844 L 31.71875 28.851562 L 32.160156 28.671875 L 31.484375 26.910156 C 31.3125 26.464844 30.929688 26.15625 30.476562 26.089844 L 31.519531 26.089844 C 31.871094 26.089844 32.15625 25.796875 32.15625 25.4375 L 32.15625 24.269531 L 32.984375 23.914062 C 33.566406 23.664062 33.84375 22.976562 33.601562 22.378906 C 33.484375 22.085938 33.261719 21.859375 32.980469 21.742188 C 32.695312 21.621094 32.386719 21.621094 32.101562 21.742188 L 32.03125 21.773438 L 31.386719 16.78125 C 31.25 15.699219 30.339844 14.882812 29.277344 14.882812 L 13.289062 14.882812 C 13.285156 14.886719 13.285156 14.890625 13.28125 14.894531 C 13.175781 15.015625 13.0625 15.140625 12.945312 15.269531 Z M 12.945312 15.269531 " fill-opacity="1" fill-rule="nonzero"/></g><path fill="#FFFFFF" d="M 3.761719 23.914062 L 4.59375 24.269531 L 4.59375 25.4375 C 4.59375 25.796875 4.878906 26.089844 5.226562 26.089844 L 6.269531 26.089844 C 5.820312 26.15625 5.4375 26.464844 5.265625 26.910156 L 4.585938 28.671875 L 5.03125 28.851562 L 5.710938 27.089844 C 5.832031 26.769531 6.128906 26.5625 6.460938 26.5625 L 10.003906 26.5625 L 10.253906 24.773438 L 6.917969 24.773438 C 6.816406 24.773438 6.71875 24.753906 6.625 24.710938 L 3.910156 23.554688 C 3.519531 23.386719 3.335938 22.925781 3.5 22.527344 C 3.578125 22.335938 3.722656 22.183594 3.914062 22.105469 C 4.007812 22.0625 4.105469 22.042969 4.203125 22.042969 C 4.304688 22.042969 4.402344 22.066406 4.496094 22.105469 L 7.070312 23.203125 L 10.476562 23.203125 L 10.53125 22.8125 L 7.148438 22.8125 L 5.082031 21.929688 L 5.738281 16.832031 C 5.851562 15.945312 6.597656 15.277344 7.46875 15.277344 L 7.675781 15.277344 C 7.75 15.140625 7.824219 15.011719 7.902344 14.882812 L 7.46875 14.882812 C 6.40625 14.882812 5.5 15.699219 5.359375 16.78125 L 4.714844 21.773438 L 4.644531 21.742188 C 4.363281 21.621094 4.050781 21.621094 3.765625 21.742188 C 3.484375 21.859375 3.261719 22.085938 3.144531 22.378906 C 2.902344 22.976562 3.179688 23.664062 3.761719 23.914062 Z M 3.761719 23.914062 " fill-opacity="1" fill-rule="nonzero"/><path fill="#FFFFFF" d="M 7.425781 18.996094 L 5.917969 18.996094 L 5.917969 19.191406 L 7.632812 19.191406 C 7.558594 19.128906 7.488281 19.0625 7.425781 18.996094 Z M 7.425781 18.996094 " fill-opacity="1" fill-rule="nonzero"/><path fill="#FFFFFF" d="M 9.367188 21.0625 L 9.269531 22.074219 L 9.457031 22.09375 L 9.539062 21.257812 Z M 9.367188 21.0625 " fill-opacity="1" fill-rule="nonzero"/><path fill="#FFFFFF" d="M 18.277344 20.871094 L 18.277344 21.859375 L 18.46875 21.859375 L 18.46875 20.605469 Z M 18.277344 20.871094 " fill-opacity="1" fill-rule="nonzero"/><path fill="#FFFFFF" d="M 16.503906 16.597656 L 16.714844 16.757812 L 16.394531 17.074219 C 16.488281 17.195312 16.554688 17.335938 16.589844 17.488281 L 16.652344 17.425781 C 16.746094 17.332031 16.898438 17.332031 16.988281 17.429688 C 17.082031 17.527344 17.078125 17.683594 16.984375 17.777344 L 15.597656 19.152344 C 15.550781 19.199219 15.488281 19.222656 15.429688 19.222656 C 15.367188 19.222656 15.304688 19.195312 15.257812 19.148438 C 15.167969 19.050781 15.167969 18.894531 15.265625 18.800781 L 15.378906 18.683594 C 15.242188 18.648438 15.113281 18.582031 15 18.484375 L 14.984375 18.472656 L 14.609375 18.847656 L 14.457031 18.730469 C 14.394531 18.683594 14.308594 18.695312 14.261719 18.761719 C 14.214844 18.824219 14.230469 18.914062 14.289062 18.960938 L 14.339844 18.996094 L 11.539062 18.996094 L 11.714844 19.191406 L 14.597656 19.191406 L 16.039062 20.292969 C 16.066406 20.3125 16.101562 20.320312 16.132812 20.316406 C 16.109375 20.140625 16.148438 19.957031 16.257812 19.804688 L 17.503906 18.078125 L 19.234375 19.394531 L 19.382812 19.191406 L 27.007812 19.191406 L 27.289062 22.09375 L 27.480469 22.074219 L 27.199219 19.191406 L 30.828125 19.191406 L 30.828125 18.996094 L 27.179688 18.996094 L 26.878906 15.890625 L 26.6875 15.910156 L 26.988281 18.996094 L 19.921875 18.996094 C 19.953125 18.9375 19.9375 18.855469 19.882812 18.8125 L 18.46875 17.738281 L 18.46875 15.804688 L 18.277344 15.804688 L 18.277344 17.59375 L 16.667969 16.371094 C 16.605469 16.324219 16.519531 16.335938 16.472656 16.398438 C 16.429688 16.460938 16.441406 16.550781 16.503906 16.597656 Z M 19.523438 18.996094 L 19.570312 18.933594 L 19.652344 18.996094 Z M 19.523438 18.996094 " fill-opacity="1" fill-rule="nonzero"/><path fill="#FFFFFF" d="M 16.433594 19.9375 C 16.285156 20.144531 16.328125 20.4375 16.53125 20.589844 L 17.246094 21.136719 C 17.449219 21.289062 17.734375 21.246094 17.882812 21.039062 L 19 19.496094 L 17.550781 18.394531 Z M 17.707031 20.90625 C 17.628906 21.011719 17.480469 21.035156 17.378906 20.953125 L 16.660156 20.410156 C 16.554688 20.328125 16.535156 20.179688 16.613281 20.070312 L 17.597656 18.710938 L 17.832031 18.890625 L 17.273438 19.664062 L 17.394531 19.753906 L 16.964844 20.347656 L 17.347656 20.640625 L 17.777344 20.046875 L 17.894531 20.136719 L 18.453125 19.363281 L 18.691406 19.542969 Z M 17.707031 20.90625 " fill-opacity="1" fill-rule="nonzero"/><g clip-path="url(#816bc7e3d2)"><path fill="#FFFFFF" d="M 18.097656 10.460938 C 18.167969 10.746094 18.179688 11.03125 18.132812 11.320312 C 18.089844 11.609375 17.996094 11.878906 17.847656 12.128906 C 17.699219 12.378906 17.507812 12.589844 17.28125 12.765625 C 17.050781 12.9375 16.796875 13.058594 16.519531 13.128906 C 16.242188 13.195312 15.960938 13.207031 15.679688 13.164062 C 15.398438 13.117188 15.136719 13.019531 14.894531 12.867188 C 14.648438 12.714844 14.441406 12.523438 14.273438 12.285156 C 14.105469 12.050781 13.988281 11.789062 13.921875 11.507812 C 13.855469 11.222656 13.839844 10.9375 13.886719 10.648438 C 13.929688 10.359375 14.023438 10.089844 14.171875 9.839844 C 14.320312 9.589844 14.511719 9.375 14.738281 9.203125 C 14.96875 9.03125 15.222656 8.910156 15.5 8.839844 C 15.777344 8.773438 16.058594 8.757812 16.339844 8.804688 C 16.621094 8.847656 16.882812 8.949219 17.125 9.097656 C 17.371094 9.25 17.578125 9.445312 17.746094 9.679688 C 17.914062 9.917969 18.03125 10.175781 18.097656 10.460938 Z M 18.097656 10.460938 " fill-opacity="1" fill-rule="nonzero"/></g><g clip-path="url(#2881afed00)"><path fill="#FFFFFF" d="M 7.308594 16.671875 C 6.820312 18.023438 7.425781 18.726562 8.101562 19.1875 L 10.882812 22.34375 L 10.144531 27.648438 C 10.050781 28.316406 10.503906 28.9375 11.15625 29.035156 C 11.214844 29.042969 11.269531 29.046875 11.328125 29.046875 C 11.910156 29.046875 12.421875 28.605469 12.507812 27.996094 L 13.328125 22.125 C 13.378906 21.761719 13.269531 21.398438 13.03125 21.128906 L 10.386719 18.125 C 10.574219 17.777344 10.796875 17.4375 11.03125 17.109375 L 10.894531 13.671875 C 10.871094 13.117188 11.292969 12.644531 11.835938 12.621094 C 11.847656 12.621094 11.863281 12.621094 11.875 12.621094 C 12.40625 12.621094 12.835938 13.046875 12.859375 13.589844 L 12.910156 14.871094 C 12.96875 14.808594 13.023438 14.746094 13.078125 14.6875 C 13.804688 14 14.089844 12.808594 13.5 12.195312 C 12.90625 11.585938 11.667969 11.34375 10.527344 12.3125 C 8.972656 13.65625 8.199219 14.679688 7.308594 16.671875 Z M 7.308594 16.671875 " fill-opacity="1" fill-rule="nonzero"/></g><path fill="#FFFFFF" d="M 11.257812 17.210938 C 11.273438 17.617188 11.589844 17.945312 11.988281 17.960938 L 14.882812 18.089844 L 15.140625 18.3125 C 15.285156 18.433594 15.457031 18.492188 15.628906 18.492188 C 15.847656 18.492188 16.066406 18.394531 16.21875 18.207031 C 16.488281 17.875 16.441406 17.378906 16.117188 17.105469 L 15.65625 16.714844 C 15.53125 16.605469 15.371094 16.542969 15.203125 16.535156 L 12.753906 16.425781 L 12.640625 13.597656 C 12.621094 13.164062 12.265625 12.828125 11.84375 12.847656 C 11.421875 12.863281 11.09375 13.230469 11.113281 13.664062 Z M 11.257812 17.210938 " fill-opacity="1" fill-rule="nonzero"/><path fill="#FFFFFF" d="M 22.246094 21.679688 C 22.171875 21.679688 21.980469 21.722656 21.753906 21.792969 L 20.390625 20.753906 L 20.464844 20.648438 L 19.621094 20.007812 L 19.546875 20.109375 L 19.082031 19.757812 L 18.808594 20.140625 L 19.269531 20.492188 L 19.195312 20.597656 L 20.039062 21.238281 L 20.117188 21.136719 L 21.21875 21.976562 C 20.894531 22.101562 20.621094 22.246094 20.621094 22.351562 C 20.621094 22.382812 20.648438 22.414062 20.6875 22.445312 C 20.761719 22.511719 20.863281 22.546875 20.964844 22.546875 C 21.289062 22.546875 22.128906 22.546875 22.246094 22.546875 C 22.480469 22.546875 22.667969 22.351562 22.667969 22.113281 C 22.667969 21.875 22.480469 21.679688 22.246094 21.679688 Z M 22.242188 22.371094 C 22.101562 22.371094 21.988281 22.257812 21.988281 22.113281 C 21.988281 21.96875 22.101562 21.855469 22.242188 21.855469 C 22.378906 21.855469 22.492188 21.96875 22.492188 22.113281 C 22.492188 22.257812 22.378906 22.371094 22.242188 22.371094 Z M 22.242188 22.371094 " fill-opacity="1" fill-rule="nonzero"/></svg>